<svg width="939" height="753" viewBox="0 0 939 753" fill="none" xmlns="http://www.w3.org/2000/svg">
<path d="M857.974 466.107C863.856 464.07 868.583 462.985 872.851 462.006C873.255 461.913 873.655 461.821 874.052 461.729C878.642 460.669 882.8 459.631 887.245 457.483C896.133 453.186 905.944 444.563 923.344 423.01C940.261 402.056 939.565 374.344 931.425 347.877C923.274 321.376 907.561 295.756 893.841 278.55C881.257 262.767 866.958 248.947 852.791 235.255C849.028 231.617 845.274 227.989 841.565 224.336C823.85 206.889 807.07 188.808 794.637 166.171C788.227 154.502 783.823 141.314 779.797 127.815C778.872 124.714 777.966 121.594 777.06 118.472C774.038 108.059 771.013 97.6377 767.262 87.8922C752.111 48.5344 715.638 21.268 676.495 8.7799C629.6 -6.18111 582.554 6.31727 537.421 20.1894C491.632 34.2626 449.442 49.8289 411.901 80.6461C343.9 136.467 334.026 214.572 325.735 296.616C322.249 331.111 305.446 358.197 283.732 382.457C272.871 394.591 260.802 405.995 248.576 417.261C246.385 419.281 244.188 421.297 241.991 423.311C231.953 432.52 221.936 441.709 212.578 451.162C196.794 467.105 184.016 480.946 179.297 503.725C174.11 528.758 177.382 558.351 191.882 580.116C209.334 606.314 239.816 630.756 264.871 648.94C290.278 667.379 322.778 679.529 353.98 681.903C417.193 686.712 478.431 668.153 531.837 636.157C573.948 610.927 621.062 582.282 655.649 546.61C661.76 540.308 671.759 535.144 682.585 530.71C689.393 527.922 696.368 525.481 702.806 523.228C706.608 521.897 710.223 520.632 713.506 519.399C739.235 511.405 804.052 489.588 857.974 466.107Z" fill="white" stroke="white" stroke-width="3" stroke-linecap="round"/>
<path d="M336.859 563.659C336.36 562.997 336.493 562.057 337.155 561.558C337.817 561.06 338.757 561.193 339.255 561.855C339.754 562.517 339.621 563.457 338.959 563.955C338.297 564.453 337.357 564.321 336.859 563.659Z" fill="black"/>
<path d="M531.447 519.757C530.619 519.794 529.919 519.152 529.882 518.325C529.846 517.497 530.487 516.797 531.315 516.76C532.143 516.724 532.843 517.365 532.879 518.193C532.916 519.021 532.274 519.721 531.447 519.757Z" fill="black"/>
<path d="M262.982 436.1C262.194 435.845 261.762 434.999 262.018 434.211C262.273 433.423 263.119 432.991 263.907 433.247C264.695 433.502 265.127 434.348 264.872 435.136C264.616 435.924 263.77 436.356 262.982 436.1Z" fill="black"/>
<path d="M421.475 230.227C420.418 229.784 419.756 228.573 419.996 227.523C420.236 226.473 421.288 225.98 422.345 226.423C423.402 226.866 424.064 228.077 423.824 229.127C423.584 230.178 422.532 230.67 421.475 230.227Z" fill="black"/>
<path d="M406.276 120.254C405.219 119.811 404.557 118.6 404.797 117.55C405.037 116.5 406.089 116.008 407.146 116.451C408.203 116.894 408.865 118.104 408.625 119.155C408.385 120.205 407.333 120.697 406.276 120.254Z" fill="black"/>
<path d="M393.087 351.899C392.134 351.499 391.536 350.407 391.753 349.459C391.969 348.511 392.918 348.067 393.872 348.467C394.825 348.867 395.423 349.959 395.206 350.907C394.99 351.854 394.041 352.298 393.087 351.899Z" fill="black"/>
<path d="M327.886 727.648C328.586 728.409 328.673 729.651 328.081 730.422C327.489 731.193 326.442 731.201 325.742 730.44C325.041 729.679 324.954 728.437 325.546 727.666C326.138 726.895 327.185 726.887 327.886 727.648Z" fill="black"/>
<path d="M220.998 676.318C221.888 676.844 222.331 678.008 221.986 678.917C221.642 679.826 220.641 680.136 219.751 679.61C218.861 679.083 218.419 677.919 218.763 677.01C219.108 676.101 220.108 675.791 220.998 676.318Z" fill="black"/>
<path d="M197.638 569.541C198.528 570.067 198.97 571.231 198.626 572.14C198.282 573.049 197.281 573.359 196.391 572.833C195.501 572.306 195.058 571.142 195.403 570.233C195.747 569.324 196.748 569.014 197.638 569.541Z" fill="black"/>
<path d="M340.985 540.481C341.875 541.008 342.318 542.171 341.973 543.08C341.629 543.99 340.629 544.3 339.738 543.773C338.848 543.247 338.406 542.083 338.75 541.174C339.095 540.265 340.095 539.954 340.985 540.481Z" fill="black"/>
<path d="M453.5 603.477C454.39 604.004 454.832 605.168 454.488 606.077C454.143 606.986 453.143 607.296 452.253 606.769C451.363 606.243 450.92 605.079 451.265 604.17C451.609 603.261 452.609 602.951 453.5 603.477Z" fill="black"/>
<path d="M566.014 666.474C566.904 667 567.346 668.164 567.002 669.073C566.658 669.982 565.657 670.292 564.767 669.766C563.877 669.239 563.434 668.075 563.779 667.166C564.123 666.257 565.124 665.947 566.014 666.474Z" fill="black"/>
<path d="M375.145 611.19C374.647 610.528 374.779 609.588 375.441 609.089C376.103 608.591 377.043 608.724 377.542 609.385C378.04 610.047 377.907 610.988 377.245 611.486C376.584 611.984 375.643 611.852 375.145 611.19Z" fill="black"/>
<path d="M592.3 515.084C591.472 515.12 590.772 514.478 590.736 513.651C590.699 512.823 591.341 512.123 592.169 512.086C592.996 512.05 593.697 512.692 593.733 513.519C593.769 514.347 593.128 515.047 592.3 515.084Z" fill="black"/>
<path d="M321.626 453.008C320.838 452.753 320.406 451.907 320.662 451.119C320.917 450.331 321.763 449.899 322.551 450.155C323.339 450.41 323.771 451.256 323.516 452.044C323.26 452.832 322.414 453.264 321.626 453.008Z" fill="black"/>
<path d="M487.295 422.196C486.63 421.98 486.265 421.266 486.481 420.6C486.697 419.935 487.411 419.57 488.077 419.786C488.742 420.002 489.107 420.716 488.891 421.382C488.675 422.047 487.961 422.412 487.295 422.196Z" fill="black"/>
<path d="M499.888 260.315C498.831 259.872 498.169 258.661 498.409 257.611C498.649 256.561 499.7 256.068 500.757 256.511C501.814 256.955 502.477 258.165 502.236 259.215C501.996 260.266 500.945 260.758 499.888 260.315Z" fill="black"/>
<path d="M484.689 150.342C483.632 149.899 482.969 148.689 483.21 147.638C483.45 146.588 484.501 146.096 485.558 146.539C486.615 146.982 487.277 148.192 487.037 149.243C486.797 150.293 485.746 150.785 484.689 150.342Z" fill="black"/>
<path d="M463.839 379.047C462.885 378.647 462.288 377.555 462.504 376.607C462.721 375.66 463.67 375.216 464.623 375.615C465.577 376.015 466.175 377.107 465.958 378.055C465.741 379.003 464.793 379.447 463.839 379.047Z" fill="black"/>
<path d="M274.902 673.467C275.602 674.228 275.69 675.47 275.098 676.241C274.506 677.012 273.458 677.02 272.758 676.259C272.058 675.498 271.97 674.256 272.562 673.485C273.154 672.714 274.202 672.706 274.902 673.467Z" fill="black"/>
<path d="M154.629 639.74C155.519 640.266 155.962 641.43 155.617 642.339C155.273 643.248 154.272 643.558 153.382 643.032C152.492 642.505 152.05 641.341 152.394 640.432C152.738 639.523 153.739 639.213 154.629 639.74Z" fill="black"/>
<path d="M131.269 532.962C132.159 533.489 132.601 534.653 132.257 535.562C131.912 536.471 130.912 536.781 130.022 536.254C129.132 535.728 128.689 534.564 129.034 533.655C129.378 532.746 130.379 532.436 131.269 532.962Z" fill="black"/>
<path d="M274.616 503.903C275.506 504.429 275.949 505.593 275.604 506.502C275.26 507.411 274.259 507.721 273.369 507.195C272.479 506.668 272.037 505.504 272.381 504.595C272.726 503.686 273.726 503.376 274.616 503.903Z" fill="black"/>
<path d="M387.13 566.899C388.021 567.426 388.463 568.59 388.119 569.499C387.774 570.408 386.774 570.718 385.884 570.191C384.994 569.665 384.551 568.501 384.896 567.592C385.24 566.683 386.24 566.373 387.13 566.899Z" fill="black"/>
<path d="M499.645 629.896C500.535 630.422 500.977 631.586 500.633 632.495C500.289 633.404 499.288 633.714 498.398 633.188C497.508 632.661 497.065 631.497 497.41 630.588C497.754 629.679 498.755 629.369 499.645 629.896Z" fill="black"/>
<path d="M385.889 580.57C385.391 579.908 385.524 578.968 386.186 578.47C386.847 577.971 387.788 578.104 388.286 578.766C388.784 579.428 388.652 580.368 387.99 580.866C387.328 581.365 386.388 581.232 385.889 580.57Z" fill="black"/>
<path d="M573.133 488.899C572.305 488.935 571.605 488.294 571.569 487.466C571.532 486.639 572.174 485.938 573.001 485.902C573.829 485.866 574.529 486.507 574.566 487.335C574.602 488.162 573.961 488.863 573.133 488.899Z" fill="black"/>
<path d="M312.829 421.774C312.041 421.518 311.61 420.672 311.865 419.884C312.121 419.096 312.966 418.664 313.755 418.92C314.543 419.175 314.974 420.021 314.719 420.809C314.463 421.597 313.618 422.029 312.829 421.774Z" fill="black"/>
<path d="M479.866 395.817C479.201 395.602 478.836 394.887 479.052 394.222C479.268 393.556 479.982 393.191 480.648 393.407C481.313 393.623 481.678 394.337 481.462 395.003C481.246 395.668 480.532 396.033 479.866 395.817Z" fill="black"/>
<path d="M484.745 216.458C483.688 216.015 483.026 214.804 483.266 213.754C483.506 212.704 484.557 212.212 485.614 212.655C486.671 213.098 487.334 214.308 487.094 215.358C486.854 216.409 485.802 216.901 484.745 216.458Z" fill="black"/>
<path d="M469.546 106.485C468.489 106.042 467.827 104.832 468.067 103.781C468.307 102.731 469.358 102.239 470.415 102.682C471.472 103.125 472.135 104.336 471.895 105.386C471.654 106.436 470.603 106.928 469.546 106.485Z" fill="black"/>
<path d="M450.175 339.475C449.222 339.075 448.624 337.983 448.841 337.035C449.057 336.088 450.006 335.644 450.96 336.043C451.914 336.443 452.511 337.535 452.295 338.483C452.078 339.431 451.129 339.875 450.175 339.475Z" fill="black"/>
<path d="M270.818 715.132C271.518 715.893 271.605 717.135 271.013 717.906C270.421 718.677 269.374 718.685 268.674 717.924C267.973 717.163 267.886 715.921 268.478 715.15C269.07 714.379 270.118 714.371 270.818 715.132Z" fill="black"/>
<path d="M162.747 680.81C163.637 681.336 164.079 682.5 163.735 683.409C163.391 684.318 162.39 684.628 161.5 684.102C160.61 683.575 160.168 682.411 160.512 681.502C160.856 680.593 161.857 680.283 162.747 680.81Z" fill="black"/>
<path d="M139.386 574.032C140.276 574.559 140.719 575.723 140.374 576.632C140.03 577.541 139.03 577.851 138.14 577.324C137.249 576.798 136.807 575.634 137.151 574.725C137.496 573.816 138.496 573.506 139.386 574.032Z" fill="black"/>
<path d="M282.734 544.973C283.624 545.499 284.066 546.663 283.722 547.572C283.378 548.481 282.377 548.791 281.487 548.265C280.597 547.738 280.155 546.574 280.499 545.665C280.843 544.756 281.844 544.446 282.734 544.973Z" fill="black"/>
<path d="M395.248 607.969C396.138 608.496 396.581 609.659 396.236 610.569C395.892 611.478 394.891 611.788 394.001 611.261C393.111 610.735 392.669 609.571 393.013 608.662C393.357 607.753 394.358 607.443 395.248 607.969Z" fill="black"/>
<path d="M507.762 670.965C508.652 671.492 509.095 672.656 508.751 673.565C508.406 674.474 507.406 674.784 506.516 674.258C505.626 673.731 505.183 672.567 505.527 671.658C505.872 670.749 506.872 670.439 507.762 670.965Z" fill="black"/>
<path d="M380.44 553.38C379.942 552.718 380.075 551.778 380.736 551.28C381.398 550.781 382.339 550.914 382.837 551.576C383.335 552.238 383.203 553.178 382.541 553.676C381.879 554.175 380.938 554.042 380.44 553.38Z" fill="black"/>
<path d="M547.631 478.007C546.803 478.044 546.103 477.402 546.066 476.575C546.03 475.747 546.672 475.047 547.499 475.01C548.327 474.974 549.027 475.615 549.064 476.443C549.1 477.271 548.458 477.971 547.631 478.007Z" fill="black"/>
<path d="M292.748 402.649C291.96 402.394 291.528 401.548 291.784 400.76C292.039 399.972 292.885 399.54 293.673 399.795C294.461 400.051 294.893 400.897 294.638 401.685C294.382 402.473 293.536 402.905 292.748 402.649Z" fill="black"/>
<path d="M462.907 379.666C462.242 379.45 461.877 378.736 462.093 378.07C462.309 377.405 463.023 377.04 463.688 377.256C464.354 377.472 464.719 378.186 464.503 378.852C464.287 379.517 463.573 379.882 462.907 379.666Z" fill="black"/>
<path d="M456.324 187.874C455.267 187.431 454.604 186.22 454.844 185.17C455.084 184.12 456.136 183.628 457.193 184.071C458.25 184.514 458.912 185.724 458.672 186.775C458.432 187.825 457.381 188.317 456.324 187.874Z" fill="black"/>
<path d="M441.124 77.9015C440.067 77.4584 439.405 76.2478 439.645 75.1976C439.885 74.1473 440.937 73.6551 441.994 74.0981C443.051 74.5411 443.713 75.7517 443.473 76.802C443.233 77.8523 442.181 78.3445 441.124 77.9015Z" fill="black"/>
<path d="M424.531 313.684C423.577 313.284 422.979 312.192 423.196 311.244C423.413 310.297 424.361 309.852 425.315 310.252C426.269 310.652 426.867 311.744 426.65 312.692C426.433 313.639 425.485 314.084 424.531 313.684Z" fill="black"/>
<path d="M283.37 749.268C284.07 750.029 284.158 751.271 283.566 752.042C282.974 752.813 281.926 752.821 281.226 752.06C280.526 751.299 280.438 750.057 281.03 749.286C281.622 748.515 282.67 748.507 283.37 749.268Z" fill="black"/>
<path d="M184.62 709.868C185.51 710.395 185.952 711.559 185.608 712.468C185.263 713.377 184.263 713.687 183.373 713.16C182.483 712.634 182.04 711.47 182.385 710.561C182.729 709.652 183.73 709.342 184.62 709.868Z" fill="black"/>
<path d="M161.259 603.091C162.149 603.618 162.591 604.782 162.247 605.691C161.903 606.6 160.902 606.91 160.012 606.383C159.122 605.857 158.68 604.693 159.024 603.784C159.368 602.875 160.369 602.565 161.259 603.091Z" fill="black"/>
<path d="M304.607 574.032C305.497 574.558 305.939 575.722 305.595 576.631C305.25 577.54 304.25 577.85 303.36 577.324C302.47 576.797 302.027 575.633 302.372 574.724C302.716 573.815 303.717 573.505 304.607 574.032Z" fill="black"/>
<path d="M417.121 637.028C418.011 637.555 418.453 638.718 418.109 639.627C417.765 640.537 416.764 640.847 415.874 640.32C414.984 639.794 414.542 638.63 414.886 637.721C415.23 636.812 416.231 636.501 417.121 637.028Z" fill="black"/>
<path d="M529.635 700.024C530.525 700.551 530.968 701.715 530.623 702.624C530.279 703.533 529.278 703.843 528.388 703.316C527.498 702.79 527.056 701.626 527.4 700.717C527.744 699.808 528.745 699.498 529.635 700.024Z" fill="black"/>
<path d="M331.931 603.668C331.433 603.006 331.566 602.066 332.227 601.567C332.889 601.069 333.83 601.202 334.328 601.864C334.826 602.526 334.694 603.466 334.032 603.964C333.37 604.462 332.429 604.33 331.931 603.668Z" fill="black"/>
<path d="M561.647 546.458C560.819 546.495 560.119 545.853 560.083 545.026C560.046 544.198 560.688 543.498 561.515 543.461C562.343 543.425 563.043 544.066 563.08 544.894C563.116 545.722 562.475 546.422 561.647 546.458Z" fill="black"/>
<path d="M281.935 471.679C281.147 471.423 280.715 470.577 280.97 469.789C281.226 469.001 282.072 468.569 282.86 468.825C283.648 469.08 284.08 469.926 283.824 470.714C283.569 471.502 282.723 471.934 281.935 471.679Z" fill="black"/>
<path d="M453.775 437.963C453.109 437.748 452.745 437.033 452.96 436.368C453.176 435.702 453.89 435.338 454.556 435.553C455.222 435.769 455.586 436.483 455.37 437.149C455.155 437.814 454.44 438.179 453.775 437.963Z" fill="black"/>
<path d="M450.364 281.234C449.307 280.791 448.645 279.581 448.885 278.53C449.125 277.48 450.176 276.988 451.233 277.431C452.29 277.874 452.953 279.085 452.712 280.135C452.472 281.185 451.421 281.677 450.364 281.234Z" fill="black"/>
<path d="M435.165 171.262C434.108 170.819 433.445 169.608 433.686 168.558C433.926 167.507 434.977 167.015 436.034 167.458C437.091 167.901 437.753 169.112 437.513 170.162C437.273 171.212 436.222 171.705 435.165 171.262Z" fill="black"/>
<path d="M419.153 397.923C418.2 397.523 417.602 396.431 417.819 395.483C418.035 394.535 418.984 394.091 419.938 394.491C420.892 394.891 421.489 395.983 421.272 396.931C421.056 397.878 420.107 398.322 419.153 397.923Z" fill="black"/>
<path d="M323.388 674.947C324.088 675.708 324.176 676.95 323.584 677.721C322.992 678.492 321.944 678.5 321.244 677.738C320.544 676.977 320.456 675.735 321.048 674.964C321.64 674.193 322.688 674.185 323.388 674.947Z" fill="black"/>
<path d="M201.478 627.159C202.368 627.685 202.81 628.849 202.466 629.758C202.122 630.667 201.121 630.977 200.231 630.451C199.341 629.924 198.899 628.76 199.243 627.851C199.587 626.942 200.588 626.632 201.478 627.159Z" fill="black"/>
<path d="M178.117 520.381C179.007 520.908 179.45 522.072 179.105 522.981C178.761 523.89 177.761 524.2 176.871 523.674C175.981 523.147 175.538 521.983 175.882 521.074C176.227 520.165 177.227 519.855 178.117 520.381Z" fill="black"/>
<path d="M321.465 491.322C322.355 491.848 322.797 493.012 322.453 493.921C322.109 494.83 321.108 495.141 320.218 494.614C319.328 494.087 318.886 492.924 319.23 492.014C319.574 491.105 320.575 490.795 321.465 491.322Z" fill="black"/>
<path d="M480.286 489.339C481.177 489.865 481.619 491.029 481.275 491.938C480.93 492.847 479.93 493.157 479.04 492.631C478.15 492.104 477.707 490.94 478.051 490.031C478.396 489.122 479.396 488.812 480.286 489.339Z" fill="black"/>
<path d="M480.286 489.339C481.177 489.865 481.619 491.029 481.275 491.938C480.93 492.847 479.93 493.157 479.04 492.631C478.15 492.104 477.707 490.94 478.051 490.031C478.396 489.122 479.396 488.812 480.286 489.339Z" fill="black"/>
<path d="M629.806 454.304C630.696 454.831 631.138 455.995 630.794 456.904C630.45 457.813 629.449 458.123 628.559 457.596C627.669 457.07 627.226 455.906 627.571 454.997C627.915 454.088 628.916 453.778 629.806 454.304Z" fill="black"/>
<path d="M242.902 397.605C243.792 398.131 244.235 399.295 243.891 400.204C243.546 401.113 242.546 401.423 241.656 400.897C240.765 400.37 240.323 399.206 240.667 398.297C241.012 397.388 242.012 397.078 242.902 397.605Z" fill="black"/>
<path d="M546.493 617.315C547.383 617.841 547.826 619.005 547.482 619.914C547.137 620.823 546.137 621.133 545.247 620.607C544.357 620.08 543.914 618.916 544.258 618.007C544.603 617.098 545.603 616.788 546.493 617.315Z" fill="black"/>
<path d="M696.013 582.28C696.903 582.807 697.345 583.971 697.001 584.88C696.657 585.789 695.656 586.099 694.766 585.572C693.876 585.046 693.433 583.882 693.778 582.973C694.122 582.064 695.123 581.754 696.013 582.28Z" fill="black"/>
<path d="M309.109 525.581C309.999 526.107 310.442 527.271 310.097 528.18C309.753 529.089 308.753 529.399 307.862 528.873C306.972 528.346 306.53 527.182 306.874 526.273C307.219 525.364 308.219 525.054 309.109 525.581Z" fill="black"/>
<path d="M293.295 583.938C292.797 583.276 292.93 582.336 293.592 581.837C294.253 581.339 295.194 581.472 295.692 582.134C296.19 582.795 296.058 583.736 295.396 584.234C294.734 584.732 293.794 584.6 293.295 583.938Z" fill="black"/>
<path d="M442.815 548.903C442.316 548.242 442.449 547.301 443.111 546.803C443.773 546.305 444.713 546.437 445.211 547.099C445.71 547.761 445.577 548.701 444.915 549.2C444.253 549.698 443.313 549.565 442.815 548.903Z" fill="black"/>
<path d="M55.9112 492.204C55.413 491.542 55.5456 490.602 56.2074 490.103C56.8693 489.605 57.8097 489.738 58.3079 490.399C58.8062 491.061 58.6736 492.002 58.0117 492.5C57.3499 492.998 56.4095 492.866 55.9112 492.204Z" fill="black"/>
<path d="M523.518 567.151C522.69 567.187 521.99 566.546 521.954 565.718C521.917 564.89 522.559 564.19 523.386 564.154C524.214 564.117 524.914 564.759 524.951 565.587C524.987 566.414 524.346 567.115 523.518 567.151Z" fill="black"/>
<path d="M673.037 532.116C672.209 532.153 671.509 531.511 671.473 530.684C671.436 529.856 672.078 529.156 672.905 529.119C673.733 529.083 674.433 529.724 674.47 530.552C674.506 531.38 673.865 532.08 673.037 532.116Z" fill="black"/>
<path d="M286.134 475.417C285.306 475.453 284.606 474.812 284.569 473.984C284.533 473.156 285.174 472.456 286.002 472.42C286.83 472.383 287.53 473.025 287.566 473.852C287.603 474.68 286.961 475.38 286.134 475.417Z" fill="black"/>
<path d="M238.976 477.726C238.188 477.471 237.756 476.625 238.012 475.837C238.267 475.049 239.113 474.617 239.901 474.872C240.689 475.128 241.121 475.974 240.866 476.762C240.61 477.55 239.764 477.982 238.976 477.726Z" fill="black"/>
<path d="M388.495 442.692C387.707 442.436 387.276 441.59 387.531 440.802C387.786 440.014 388.632 439.582 389.42 439.838C390.209 440.093 390.64 440.939 390.385 441.727C390.129 442.515 389.283 442.947 388.495 442.692Z" fill="black"/>
<path d="M1.59203 385.992C0.80398 385.737 0.372308 384.891 0.627742 384.103C0.883176 383.315 1.72911 382.883 2.51716 383.138C3.30521 383.394 3.73697 384.24 3.48153 385.028C3.2261 385.816 2.38008 386.248 1.59203 385.992Z" fill="black"/>
<path d="M567.014 408.036C566.349 407.821 565.984 407.106 566.2 406.441C566.416 405.775 567.13 405.41 567.796 405.626C568.461 405.842 568.826 406.556 568.61 407.222C568.394 407.887 567.68 408.252 567.014 408.036Z" fill="black"/>
<path d="M180.111 351.337C179.446 351.121 179.081 350.407 179.297 349.741C179.512 349.075 180.227 348.711 180.892 348.927C181.558 349.142 181.923 349.857 181.707 350.522C181.491 351.188 180.777 351.552 180.111 351.337Z" fill="black"/>
<path d="M395.096 284.465C394.039 284.022 393.377 282.811 393.617 281.761C393.857 280.71 394.908 280.218 395.965 280.661C397.022 281.104 397.685 282.315 397.445 283.365C397.205 284.415 396.153 284.908 395.096 284.465Z" fill="black"/>
<path d="M544.615 249.43C543.558 248.987 542.896 247.776 543.136 246.726C543.376 245.676 544.428 245.184 545.485 245.627C546.542 246.07 547.204 247.28 546.964 248.331C546.724 249.381 545.672 249.873 544.615 249.43Z" fill="black"/>
<path d="M157.712 192.73C156.655 192.287 155.993 191.077 156.233 190.027C156.473 188.976 157.524 188.484 158.581 188.927C159.638 189.37 160.301 190.581 160.061 191.631C159.82 192.681 158.769 193.173 157.712 192.73Z" fill="black"/>
<path d="M379.897 174.492C378.84 174.049 378.178 172.838 378.418 171.788C378.658 170.738 379.709 170.246 380.766 170.689C381.823 171.132 382.486 172.342 382.246 173.392C382.006 174.443 380.954 174.935 379.897 174.492Z" fill="black"/>
<path d="M529.416 139.457C528.359 139.014 527.697 137.804 527.937 136.754C528.177 135.703 529.228 135.211 530.285 135.654C531.343 136.097 532.005 137.308 531.765 138.358C531.525 139.408 530.473 139.901 529.416 139.457Z" fill="black"/>
<path d="M142.513 82.7578C141.456 82.3147 140.794 81.1042 141.034 80.0539C141.274 79.0036 142.325 78.5114 143.382 78.9544C144.439 79.3975 145.101 80.608 144.861 81.6583C144.621 82.7086 143.57 83.2008 142.513 82.7578Z" fill="black"/>
<path d="M369.285 400.837C368.332 400.438 367.734 399.345 367.951 398.398C368.167 397.45 369.116 397.006 370.07 397.406C371.023 397.805 371.621 398.898 371.404 399.845C371.188 400.793 370.239 401.237 369.285 400.837Z" fill="black"/>
<path d="M369.928 693.094C370.628 693.855 370.716 695.097 370.124 695.868C369.532 696.639 368.484 696.647 367.784 695.886C367.084 695.125 366.996 693.883 367.588 693.112C368.181 692.341 369.228 692.333 369.928 693.094Z" fill="black"/>
<path d="M251.275 631.098C252.166 631.625 252.608 632.788 252.264 633.697C251.919 634.607 250.919 634.917 250.029 634.39C249.139 633.864 248.696 632.7 249.04 631.791C249.385 630.882 250.385 630.571 251.275 631.098Z" fill="black"/>
<path d="M227.915 524.321C228.805 524.847 229.247 526.011 228.903 526.92C228.559 527.829 227.558 528.139 226.668 527.613C225.778 527.086 225.336 525.922 225.68 525.013C226.024 524.104 227.025 523.794 227.915 524.321Z" fill="black"/>
<path d="M371.262 495.261C372.153 495.788 372.595 496.952 372.251 497.861C371.906 498.77 370.906 499.08 370.016 498.553C369.126 498.027 368.683 496.863 369.027 495.954C369.372 495.045 370.372 494.735 371.262 495.261Z" fill="black"/>
<path d="M483.777 558.258C484.667 558.784 485.109 559.948 484.765 560.857C484.421 561.766 483.42 562.076 482.53 561.55C481.64 561.023 481.197 559.859 481.542 558.95C481.886 558.041 482.887 557.731 483.777 558.258Z" fill="black"/>
<path d="M596.291 621.254C597.181 621.781 597.623 622.944 597.279 623.854C596.935 624.763 595.934 625.073 595.044 624.546C594.154 624.02 593.712 622.856 594.056 621.947C594.4 621.038 595.401 620.727 596.291 621.254Z" fill="black"/>
<path d="M247.111 592.422C246.612 591.76 246.745 590.819 247.407 590.321C248.069 589.823 249.009 589.955 249.507 590.617C250.006 591.279 249.873 592.219 249.211 592.718C248.549 593.216 247.609 593.083 247.111 592.422Z" fill="black"/>
<path d="M504.38 610.032C503.553 610.068 502.852 609.426 502.816 608.599C502.78 607.771 503.421 607.071 504.249 607.035C505.077 606.998 505.777 607.64 505.813 608.467C505.85 609.295 505.208 609.995 504.38 610.032Z" fill="black"/>
<path d="M206.048 511.204C205.26 510.948 204.828 510.102 205.084 509.314C205.339 508.526 206.185 508.094 206.973 508.35C207.761 508.605 208.193 509.451 207.937 510.239C207.682 511.027 206.836 511.459 206.048 511.204Z" fill="black"/>
<path d="M389.687 471.343C389.021 471.128 388.656 470.413 388.872 469.748C389.088 469.082 389.802 468.718 390.468 468.933C391.133 469.149 391.498 469.863 391.282 470.529C391.066 471.194 390.352 471.559 389.687 471.343Z" fill="black"/>
<path d="M356.13 326.48C355.073 326.037 354.411 324.827 354.651 323.777C354.891 322.726 355.942 322.234 356.999 322.677C358.057 323.12 358.719 324.331 358.479 325.381C358.239 326.431 357.187 326.924 356.13 326.48Z" fill="black"/>
<path d="M340.931 216.508C339.874 216.065 339.212 214.854 339.452 213.804C339.692 212.754 340.743 212.261 341.8 212.704C342.857 213.147 343.52 214.358 343.28 215.408C343.04 216.459 341.988 216.951 340.931 216.508Z" fill="black"/>
<path d="M334.126 438.748C333.173 438.348 332.575 437.256 332.792 436.309C333.008 435.361 333.957 434.917 334.911 435.316C335.865 435.716 336.462 436.809 336.246 437.756C336.029 438.704 335.08 439.148 334.126 438.748Z" fill="black"/>
<path d="M417.694 673.3C418.394 674.061 418.482 675.303 417.89 676.074C417.298 676.845 416.25 676.853 415.55 676.092C414.85 675.331 414.762 674.089 415.354 673.318C415.946 672.547 416.994 672.539 417.694 673.3Z" fill="black"/>
<path d="M291.293 598.357C292.183 598.884 292.626 600.047 292.281 600.956C291.937 601.866 290.936 602.176 290.046 601.649C289.156 601.123 288.714 599.959 289.058 599.05C289.402 598.14 290.403 597.83 291.293 598.357Z" fill="black"/>
<path d="M267.933 491.58C268.823 492.106 269.265 493.27 268.921 494.179C268.576 495.088 267.576 495.398 266.686 494.872C265.796 494.345 265.353 493.181 265.698 492.272C266.042 491.363 267.043 491.053 267.933 491.58Z" fill="black"/>
<path d="M411.28 462.52C412.17 463.047 412.613 464.21 412.268 465.12C411.924 466.029 410.923 466.339 410.033 465.812C409.143 465.286 408.701 464.122 409.045 463.213C409.39 462.304 410.39 461.994 411.28 462.52Z" fill="black"/>
<path d="M523.794 525.517C524.684 526.043 525.127 527.207 524.783 528.116C524.438 529.025 523.438 529.335 522.548 528.809C521.658 528.282 521.215 527.118 521.559 526.209C521.904 525.3 522.904 524.99 523.794 525.517Z" fill="black"/>
<path d="M639.763 596.763C640.653 597.289 641.096 598.453 640.751 599.362C640.407 600.271 639.406 600.581 638.516 600.055C637.626 599.528 637.184 598.364 637.528 597.455C637.872 596.546 638.873 596.236 639.763 596.763Z" fill="black"/>
<path d="M240.978 526.528L246.427 520.956L238.754 522.318C230.955 523.703 223.104 524.536 215.222 524.92L215.22 524.921C206.226 525.366 197.168 525.204 188.179 524.513L188.178 524.513C170.154 523.137 152.281 519.829 134.985 514.603C126.343 511.993 117.84 508.87 109.59 505.239C102.341 502.025 95.3022 498.434 88.5169 494.315L81.8346 490.259L84.9231 497.44C97.0896 525.729 122.675 547.661 155.217 553.696C187.736 559.763 219.471 548.522 240.978 526.528ZM49.1908 451.259L49.1936 451.265C56.7109 468.243 73.0101 481.547 88.0313 490.66C106.68 501.988 127.776 509.802 148.811 514.887C182.599 523.09 220.716 525.531 254.742 515.783C267.62 512.101 281.13 506.147 290.975 496.236C294.474 492.742 297.574 488.569 299.796 483.812C304.19 474.444 304.431 463.791 300.862 454.183C296.606 442.728 288.195 433.681 279.026 426.513C275.154 423.478 271.244 420.874 267.42 418.559L260.837 414.574L263.82 421.667C266.116 427.125 267.904 432.789 269.203 438.628L269.204 438.634C269.453 439.833 269.696 440.999 269.911 442.167L270.04 442.866L270.518 443.393C271.406 444.373 272.279 445.389 273.131 446.418C278.345 452.896 282.732 460.622 281.483 468.183L281.482 468.189C280.655 473.272 277.129 477.843 272.586 481.136C262.76 488.257 249.718 491.445 237.415 493.302C202.61 498.549 165.423 493.042 132.086 481.808L132.083 481.806C128.362 480.559 124.677 479.154 121.011 477.699C103.138 470.51 84.1343 460.794 73.0569 445.379C67.5353 437.695 65.9214 428.981 71.2683 421.62L71.2723 421.615C74.9941 416.462 81.2911 412.235 87.3066 409.246L87.9543 408.925L88.3302 408.307C92.0033 402.269 96.3569 396.628 101.326 391.456L106.722 385.839L99.0649 387.266L99.0518 387.269C97.7993 387.502 96.5158 387.742 95.2072 388.016C82.9654 390.563 70.1633 394.996 60.2014 403.516C52.8498 409.79 47.1323 418.517 45.6447 428.337L45.6447 428.337L45.6437 428.344C44.4743 436.205 46.0815 444.183 49.1908 451.259ZM93.6098 406.709L93.6041 406.718L93.5984 406.726C89.8547 412.234 86.6728 418.141 84.1381 424.311C83.9248 424.828 83.6969 425.371 83.46 425.934C82.1206 429.12 80.4971 432.983 79.6397 436.823C78.6244 441.372 78.5425 446.466 81.6772 450.778C84.8592 455.166 89.4516 458.189 93.5542 460.679L93.5551 460.679C122.921 478.482 156.94 487.389 190.882 490.707L190.883 490.708C211.801 492.743 233.401 492.763 253.933 487.098L253.937 487.097C257.642 486.068 262.646 484.396 265.21 480.09C266.521 477.892 266.932 475.437 267.216 473.454L267.217 473.452C271.882 440.705 258.142 405.99 232.337 385.333C206.532 364.675 169.647 358.87 138.745 370.62C122.384 376.826 108.053 387.821 97.3949 401.554C96.0455 403.257 94.8026 404.984 93.6098 406.709ZM278.112 596.598C293.401 593.054 302.92 577.783 299.375 562.49C295.83 547.197 280.563 537.672 265.273 541.216C249.984 544.76 240.465 560.032 244.01 575.324C247.555 590.617 262.823 600.143 278.112 596.598ZM322.604 536.893C331.777 534.767 337.486 525.605 335.36 516.432C333.233 507.259 324.075 501.544 314.903 503.67C305.731 505.797 300.021 514.958 302.147 524.131C304.274 533.305 313.432 539.019 322.604 536.893Z" fill="black" stroke="white" stroke-width="5"/>
</svg>
