<svg width="945" height="798" viewBox="0 0 945 798" fill="none" xmlns="http://www.w3.org/2000/svg">
<path d="M368.758 19.2057C409.328 22.9973 435.386 26.8147 474.008 39.6887C504.837 49.9653 544.577 54.4402 579.515 60.4294C597.329 63.4833 616.355 64.4229 634.394 65.0671C656.5 65.8566 680.484 62 702.284 66.2265C753.271 76.1118 804.894 96.6889 846.052 128.32C899.483 169.382 938.715 224.874 943.057 293.473C946.403 346.339 913.717 407.937 874.78 442.007C815.303 494.049 739.861 497.43 664.023 498.947C618.512 499.857 575.044 506.487 531.463 519.688C492.313 531.547 463.355 551.304 430.98 575.211C402.892 595.953 372.063 613.733 339.386 626.097C310.094 637.18 275.832 636.749 244.958 635.114C200.131 632.741 144.631 626.766 105.313 602.651C72.1895 582.335 46.8968 548.688 24.9264 517.627C8.19987 493.979 -7.56812 466.131 9.081 439.688C18.9904 423.95 32.0981 410.682 41.5447 394.342C54.1389 372.557 64.5147 351.571 74.1372 328.255C100.679 263.942 102.313 192.376 132.623 129.35C144.059 105.571 161.963 85.8032 181.963 68.803C204.814 49.3801 235.837 27.9972 265.312 20.3651C297.381 12.0616 336.299 16.1721 368.758 19.2057Z" fill="white" stroke="white" stroke-width="3" stroke-linecap="round"/>
<path d="M697.284 293.264C697.284 294.093 696.613 294.764 695.784 294.764C694.956 294.764 694.284 294.093 694.284 293.264C694.284 292.436 694.956 291.764 695.784 291.764C696.613 291.764 697.284 292.436 697.284 293.264Z" fill="black"/>
<path d="M515.421 211.304C516.104 211.772 516.278 212.706 515.809 213.389C515.34 214.072 514.407 214.246 513.724 213.777C513.041 213.308 512.867 212.375 513.336 211.692C513.804 211.009 514.738 210.835 515.421 211.304Z" fill="black"/>
<path d="M679.585 439.605C680.061 440.283 679.897 441.219 679.219 441.695C678.541 442.171 677.606 442.007 677.13 441.329C676.654 440.651 676.818 439.715 677.496 439.239C678.174 438.764 679.109 438.927 679.585 439.605Z" fill="black"/>
<path d="M429.141 508.755C429.719 509.745 429.52 511.11 428.697 511.805C427.873 512.5 426.737 512.261 426.159 511.271C425.581 510.281 425.78 508.916 426.603 508.221C427.427 507.526 428.563 507.765 429.141 508.755Z" fill="black"/>
<path d="M375.141 605.755C375.719 606.745 375.52 608.11 374.697 608.805C373.873 609.5 372.737 609.261 372.159 608.271C371.581 607.281 371.78 605.916 372.603 605.221C373.427 604.526 374.563 604.765 375.141 605.755Z" fill="black"/>
<path d="M525 428.624C525.521 429.517 525.342 430.749 524.599 431.376C523.856 432.003 522.831 431.787 522.309 430.894C521.788 430.001 521.967 428.769 522.71 428.142C523.453 427.515 524.478 427.731 525 428.624Z" fill="black"/>
<path d="M803.084 167.649C802.982 166.619 803.659 165.575 804.596 165.315C805.532 165.055 806.374 165.678 806.476 166.708C806.577 167.737 805.9 168.782 804.964 169.042C804.027 169.301 803.185 168.678 803.084 167.649Z" fill="black"/>
<path d="M857.605 272.944C857.211 271.988 857.557 270.792 858.379 270.273C859.201 269.754 860.187 270.108 860.581 271.064C860.975 272.02 860.629 273.216 859.807 273.735C858.985 274.254 857.999 273.9 857.605 272.944Z" fill="black"/>
<path d="M812.047 372.3C811.653 371.344 811.999 370.148 812.821 369.629C813.643 369.109 814.629 369.464 815.023 370.42C815.418 371.376 815.071 372.571 814.249 373.091C813.427 373.61 812.441 373.256 812.047 372.3Z" fill="black"/>
<path d="M680.047 309.3C679.653 308.344 679.999 307.148 680.821 306.629C681.643 306.109 682.629 306.464 683.023 307.42C683.418 308.376 683.071 309.571 682.249 310.091C681.427 310.61 680.441 310.256 680.047 309.3Z" fill="black"/>
<path d="M628.047 191.3C627.653 190.344 627.999 189.148 628.821 188.629C629.643 188.109 630.629 188.464 631.023 189.42C631.418 190.376 631.071 191.571 630.249 192.091C629.427 192.61 628.441 192.256 628.047 191.3Z" fill="black"/>
<path d="M576.047 73.2997C575.653 72.3437 575.999 71.1478 576.821 70.6286C577.643 70.1094 578.629 70.4635 579.023 71.4195C579.418 72.3755 579.071 73.5714 578.249 74.0906C577.427 74.6098 576.441 74.2557 576.047 73.2997Z" fill="black"/>
<path d="M695.284 232.264C695.284 233.093 694.613 233.764 693.784 233.764C692.956 233.764 692.284 233.093 692.284 232.264C692.284 231.436 692.956 230.764 693.784 230.764C694.613 230.764 695.284 231.436 695.284 232.264Z" fill="black"/>
<path d="M463.993 178.437C464.676 178.906 464.85 179.84 464.381 180.523C463.913 181.206 462.979 181.38 462.296 180.911C461.613 180.442 461.439 179.509 461.908 178.825C462.377 178.142 463.31 177.969 463.993 178.437Z" fill="black"/>
<path d="M642.903 390.826C643.379 391.504 643.215 392.44 642.537 392.916C641.859 393.392 640.924 393.228 640.448 392.55C639.972 391.872 640.136 390.936 640.814 390.46C641.492 389.984 642.427 390.148 642.903 390.826Z" fill="black"/>
<path d="M492.016 315.801C492.418 316.374 492.28 317.164 491.707 317.566C491.134 317.968 490.344 317.829 489.942 317.257C489.54 316.684 489.679 315.894 490.251 315.492C490.824 315.09 491.614 315.229 492.016 315.801Z" fill="black"/>
<path d="M384.593 437.556C385.171 438.546 384.972 439.912 384.148 440.606C383.325 441.301 382.189 441.062 381.611 440.072C381.033 439.082 381.232 437.717 382.055 437.022C382.879 436.328 384.015 436.567 384.593 437.556Z" fill="black"/>
<path d="M330.593 534.556C331.171 535.546 330.972 536.912 330.148 537.606C329.325 538.301 328.189 538.062 327.611 537.072C327.033 536.082 327.232 534.717 328.055 534.022C328.879 533.328 330.015 533.567 330.593 534.556Z" fill="black"/>
<path d="M484.804 364.381C485.325 365.274 485.146 366.506 484.403 367.133C483.66 367.76 482.635 367.544 482.113 366.651C481.592 365.758 481.771 364.526 482.514 363.899C483.257 363.273 484.282 363.488 484.804 364.381Z" fill="black"/>
<path d="M812.826 242.801C812.724 241.772 813.401 240.727 814.338 240.467C815.275 240.207 816.116 240.831 816.218 241.86C816.32 242.889 815.643 243.934 814.706 244.194C813.769 244.454 812.928 243.83 812.826 242.801Z" fill="black"/>
<path d="M888.628 342.084C888.234 341.128 888.58 339.932 889.402 339.413C890.224 338.894 891.21 339.248 891.604 340.204C891.999 341.16 891.652 342.356 890.83 342.875C890.008 343.394 889.023 343.04 888.628 342.084Z" fill="black"/>
<path d="M843.07 441.44C842.676 440.484 843.022 439.288 843.844 438.769C844.666 438.25 845.652 438.604 846.046 439.56C846.441 440.516 846.094 441.712 845.272 442.231C844.451 442.75 843.465 442.396 843.07 441.44Z" fill="black"/>
<path d="M711.07 378.44C710.676 377.484 711.022 376.288 711.844 375.769C712.666 375.25 713.652 375.604 714.046 376.56C714.441 377.516 714.094 378.712 713.272 379.231C712.451 379.75 711.465 379.396 711.07 378.44Z" fill="black"/>
<path d="M659.07 260.44C658.676 259.484 659.022 258.288 659.844 257.769C660.666 257.25 661.652 257.604 662.046 258.56C662.441 259.516 662.094 260.712 661.272 261.231C660.451 261.75 659.465 261.396 659.07 260.44Z" fill="black"/>
<path d="M607.07 142.44C606.676 141.484 607.022 140.288 607.844 139.769C608.666 139.25 609.652 139.604 610.046 140.56C610.441 141.516 610.094 142.712 609.272 143.231C608.451 143.75 607.465 143.396 607.07 142.44Z" fill="black"/>
<path d="M668.284 250.264C668.284 251.093 667.613 251.764 666.784 251.764C665.956 251.764 665.284 251.093 665.284 250.264C665.284 249.436 665.956 248.764 666.784 248.764C667.613 248.764 668.284 249.436 668.284 250.264Z" fill="black"/>
<path d="M463.558 210.884C464.241 211.353 464.414 212.287 463.946 212.97C463.477 213.653 462.543 213.827 461.86 213.358C461.177 212.889 461.003 211.956 461.472 211.273C461.941 210.589 462.875 210.416 463.558 210.884Z" fill="black"/>
<path d="M631.145 421.071C631.621 421.749 631.457 422.684 630.779 423.16C630.101 423.636 629.165 423.472 628.689 422.794C628.213 422.116 628.377 421.181 629.055 420.705C629.733 420.229 630.669 420.393 631.145 421.071Z" fill="black"/>
<path d="M482.086 341.344C482.488 341.916 482.349 342.706 481.777 343.108C481.204 343.51 480.414 343.372 480.012 342.799C479.61 342.227 479.748 341.437 480.321 341.035C480.894 340.633 481.684 340.771 482.086 341.344Z" fill="black"/>
<path d="M370.313 481.702C370.891 482.692 370.692 484.057 369.868 484.752C369.045 485.446 367.909 485.207 367.331 484.218C366.753 483.228 366.952 481.862 367.775 481.168C368.599 480.473 369.735 480.712 370.313 481.702Z" fill="black"/>
<path d="M316.313 578.702C316.891 579.692 316.692 581.057 315.868 581.752C315.045 582.446 313.909 582.207 313.331 581.218C312.753 580.228 312.952 578.862 313.775 578.168C314.599 577.473 315.735 577.712 316.313 578.702Z" fill="black"/>
<path d="M471.919 404.214C472.441 405.107 472.261 406.339 471.518 406.966C470.775 407.592 469.75 407.377 469.229 406.484C468.707 405.591 468.887 404.359 469.63 403.732C470.373 403.105 471.398 403.321 471.919 404.214Z" fill="black"/>
<path d="M841.148 211.971C841.047 210.942 841.724 209.897 842.66 209.637C843.597 209.377 844.439 210.001 844.54 211.03C844.642 212.059 843.965 213.104 843.028 213.364C842.091 213.624 841.25 213 841.148 211.971Z" fill="black"/>
<path d="M906.844 304.391C906.45 303.435 906.796 302.239 907.618 301.719C908.44 301.2 909.426 301.554 909.82 302.51C910.215 303.466 909.868 304.662 909.046 305.181C908.225 305.701 907.239 305.347 906.844 304.391Z" fill="black"/>
<path d="M861.286 403.746C860.892 402.79 861.239 401.594 862.06 401.075C862.882 400.556 863.868 400.91 864.262 401.866C864.657 402.822 864.31 404.018 863.489 404.537C862.667 405.056 861.681 404.702 861.286 403.746Z" fill="black"/>
<path d="M729.286 340.746C728.892 339.79 729.239 338.594 730.06 338.075C730.882 337.556 731.868 337.91 732.262 338.866C732.657 339.822 732.31 341.018 731.488 341.537C730.667 342.056 729.681 341.702 729.286 340.746Z" fill="black"/>
<path d="M677.286 222.746C676.892 221.79 677.239 220.594 678.06 220.075C678.882 219.556 679.868 219.91 680.262 220.866C680.657 221.822 680.31 223.018 679.488 223.537C678.667 224.056 677.681 223.702 677.286 222.746Z" fill="black"/>
<path d="M625.286 104.746C624.892 103.79 625.238 102.594 626.06 102.075C626.882 101.556 627.868 101.91 628.262 102.866C628.657 103.822 628.31 105.018 627.488 105.537C626.667 106.056 625.681 105.702 625.286 104.746Z" fill="black"/>
<path d="M656.284 275.264C656.284 276.093 655.613 276.764 654.784 276.764C653.956 276.764 653.284 276.093 653.284 275.264C653.284 274.436 653.956 273.764 654.784 273.764C655.613 273.764 656.284 274.436 656.284 275.264Z" fill="black"/>
<path d="M477.381 234.924C478.064 235.393 478.238 236.327 477.769 237.01C477.3 237.693 476.366 237.867 475.683 237.398C475 236.929 474.827 235.995 475.295 235.312C475.764 234.629 476.698 234.456 477.381 234.924Z" fill="black"/>
<path d="M635.686 448.427C636.162 449.105 635.998 450.041 635.32 450.517C634.642 450.993 633.706 450.829 633.23 450.151C632.754 449.473 632.918 448.537 633.596 448.061C634.274 447.585 635.21 447.749 635.686 448.427Z" fill="black"/>
<path d="M485.921 364.447C486.322 365.02 486.184 365.81 485.611 366.212C485.039 366.614 484.249 366.475 483.847 365.903C483.445 365.33 483.583 364.54 484.156 364.138C484.728 363.736 485.519 363.874 485.921 364.447Z" fill="black"/>
<path d="M375.827 521.632C376.405 522.622 376.206 523.987 375.383 524.682C374.56 525.376 373.423 525.137 372.845 524.148C372.267 523.158 372.466 521.792 373.29 521.098C374.113 520.403 375.249 520.642 375.827 521.632Z" fill="black"/>
<path d="M321.827 618.632C322.405 619.622 322.207 620.987 321.383 621.682C320.56 622.376 319.423 622.137 318.845 621.148C318.267 620.158 318.466 618.792 319.29 618.098C320.113 617.403 321.249 617.642 321.827 618.632Z" fill="black"/>
<path d="M476.895 440.243C477.417 441.136 477.237 442.368 476.494 442.994C475.751 443.621 474.726 443.405 474.204 442.512C473.683 441.619 473.862 440.387 474.605 439.761C475.348 439.134 476.374 439.35 476.895 440.243Z" fill="black"/>
<path d="M851.651 177.15C851.549 176.121 852.226 175.076 853.163 174.816C854.1 174.556 854.941 175.18 855.043 176.209C855.145 177.238 854.468 178.283 853.531 178.543C852.594 178.803 851.752 178.179 851.651 177.15Z" fill="black"/>
<path d="M906.847 268.02C906.453 267.064 906.799 265.868 907.621 265.349C908.443 264.829 909.429 265.184 909.823 266.14C910.218 267.096 909.871 268.291 909.049 268.811C908.228 269.33 907.242 268.976 906.847 268.02Z" fill="black"/>
<path d="M861.289 367.376C860.895 366.42 861.242 365.224 862.063 364.704C862.885 364.185 863.871 364.539 864.266 365.495C864.66 366.451 864.313 367.647 863.492 368.166C862.67 368.686 861.684 368.332 861.289 367.376Z" fill="black"/>
<path d="M729.289 304.376C728.895 303.42 729.242 302.224 730.063 301.704C730.885 301.185 731.871 301.539 732.266 302.495C732.66 303.451 732.313 304.647 731.492 305.166C730.67 305.686 729.684 305.332 729.289 304.376Z" fill="black"/>
<path d="M677.289 186.376C676.895 185.42 677.242 184.224 678.063 183.704C678.885 183.185 679.871 183.539 680.266 184.495C680.66 185.451 680.313 186.647 679.492 187.166C678.67 187.686 677.684 187.332 677.289 186.376Z" fill="black"/>
<path d="M625.289 68.3756C624.895 67.4196 625.242 66.2237 626.063 65.7045C626.885 65.1853 627.871 65.5394 628.266 66.4954C628.66 67.4514 628.313 68.6473 627.492 69.1665C626.67 69.6857 625.684 69.3316 625.289 68.3756Z" fill="black"/>
<path d="M725.284 264.264C725.284 265.093 724.613 265.764 723.784 265.764C722.956 265.764 722.284 265.093 722.284 264.264C722.284 263.436 722.956 262.764 723.784 262.764C724.613 262.764 725.284 263.436 725.284 264.264Z" fill="black"/>
<path d="M507.353 171.808C508.036 172.277 508.21 173.21 507.741 173.894C507.272 174.577 506.338 174.75 505.655 174.282C504.972 173.813 504.799 172.879 505.267 172.196C505.736 171.513 506.67 171.339 507.353 171.808Z" fill="black"/>
<path d="M685.842 399.783C686.318 400.461 686.155 401.396 685.476 401.872C684.798 402.348 683.863 402.184 683.387 401.506C682.911 400.828 683.075 399.893 683.753 399.417C684.431 398.941 685.366 399.105 685.842 399.783Z" fill="black"/>
<path d="M528.279 323.365C528.681 323.938 528.543 324.728 527.97 325.13C527.398 325.532 526.607 325.394 526.206 324.821C525.804 324.248 525.942 323.458 526.515 323.056C527.087 322.654 527.877 322.793 528.279 323.365Z" fill="black"/>
<path d="M436.74 450.63C437.318 451.619 437.119 452.985 436.296 453.68C435.472 454.374 434.336 454.135 433.758 453.145C433.18 452.156 433.379 450.79 434.202 450.095C435.026 449.401 436.162 449.64 436.74 450.63Z" fill="black"/>
<path d="M382.74 547.63C383.318 548.619 383.119 549.985 382.296 550.68C381.472 551.374 380.336 551.135 379.758 550.145C379.18 549.156 379.379 547.79 380.202 547.095C381.026 546.401 382.162 546.64 382.74 547.63Z" fill="black"/>
<path d="M531.856 376.177C532.378 377.07 532.198 378.302 531.455 378.929C530.712 379.556 529.687 379.34 529.166 378.447C528.644 377.554 528.824 376.322 529.567 375.695C530.31 375.069 531.335 375.284 531.856 376.177Z" fill="black"/>
<path d="M774.98 212.457C774.878 211.428 775.555 210.383 776.492 210.123C777.429 209.864 778.27 210.487 778.372 211.516C778.473 212.546 777.796 213.59 776.86 213.85C775.923 214.11 775.081 213.487 774.98 212.457Z" fill="black"/>
<path d="M843.633 323.958C843.239 323.002 843.586 321.806 844.407 321.287C845.229 320.768 846.215 321.122 846.61 322.078C847.004 323.034 846.657 324.23 845.836 324.749C845.014 325.268 844.028 324.914 843.633 323.958Z" fill="black"/>
<path d="M798.076 423.314C797.681 422.358 798.028 421.162 798.85 420.643C799.671 420.124 800.657 420.478 801.052 421.434C801.446 422.39 801.1 423.586 800.278 424.105C799.456 424.624 798.47 424.27 798.076 423.314Z" fill="black"/>
<path d="M666.076 360.314C665.681 359.358 666.028 358.162 666.85 357.643C667.671 357.124 668.657 357.478 669.052 358.434C669.446 359.39 669.1 360.586 668.278 361.105C667.456 361.624 666.47 361.27 666.076 360.314Z" fill="black"/>
<path d="M537.998 266.376C537.604 265.42 537.95 264.224 538.772 263.704C539.594 263.185 540.58 263.539 540.974 264.495C541.369 265.451 541.022 266.647 540.2 267.166C539.379 267.686 538.393 267.332 537.998 266.376Z" fill="black"/>
<path d="M537.998 266.376C537.604 265.42 537.95 264.224 538.772 263.704C539.594 263.185 540.58 263.539 540.974 264.495C541.369 265.451 541.022 266.647 540.2 267.166C539.379 267.686 538.393 267.332 537.998 266.376Z" fill="black"/>
<path d="M397.474 204.437C397.08 203.481 397.426 202.285 398.248 201.766C399.07 201.247 400.056 201.601 400.45 202.557C400.845 203.513 400.498 204.709 399.676 205.228C398.854 205.747 397.869 205.393 397.474 204.437Z" fill="black"/>
<path d="M672.474 482.437C672.08 481.481 672.426 480.285 673.248 479.766C674.07 479.247 675.056 479.601 675.45 480.557C675.845 481.513 675.498 482.709 674.676 483.228C673.854 483.747 672.869 483.393 672.474 482.437Z" fill="black"/>
<path d="M562.076 124.314C561.681 123.358 562.028 122.162 562.849 121.643C563.671 121.124 564.657 121.478 565.052 122.434C565.446 123.39 565.099 124.586 564.278 125.105C563.456 125.624 562.47 125.27 562.076 124.314Z" fill="black"/>
<path d="M421.551 62.3756C421.157 61.4196 421.504 60.2237 422.325 59.7045C423.147 59.1853 424.133 59.5394 424.527 60.4954C424.922 61.4514 424.575 62.6473 423.754 63.1665C422.932 63.6857 421.946 63.3316 421.551 62.3756Z" fill="black"/>
<path d="M696.551 340.376C696.157 339.42 696.504 338.224 697.325 337.704C698.147 337.185 699.133 337.539 699.528 338.495C699.922 339.451 699.575 340.647 698.754 341.166C697.932 341.686 696.946 341.332 696.551 340.376Z" fill="black"/>
<path d="M744.284 303.264C744.284 304.093 743.613 304.764 742.784 304.764C741.956 304.764 741.284 304.093 741.284 303.264C741.284 302.436 741.956 301.764 742.784 301.764C743.613 301.764 744.284 302.436 744.284 303.264Z" fill="black"/>
<path d="M603.76 241.326C603.76 242.154 603.089 242.826 602.26 242.826C601.432 242.826 600.76 242.154 600.76 241.326C600.76 240.498 601.432 239.826 602.26 239.826C603.089 239.826 603.76 240.498 603.76 241.326Z" fill="black"/>
<path d="M878.76 519.326C878.76 520.154 878.089 520.826 877.26 520.826C876.432 520.826 875.76 520.154 875.76 519.326C875.76 518.498 876.432 517.826 877.26 517.826C878.089 517.826 878.76 518.498 878.76 519.326Z" fill="black"/>
<path d="M550.26 178.209C550.943 178.678 551.117 179.612 550.648 180.295C550.179 180.978 549.246 181.151 548.563 180.683C547.88 180.214 547.706 179.28 548.175 178.597C548.643 177.914 549.577 177.74 550.26 178.209Z" fill="black"/>
<path d="M409.736 116.271C410.419 116.739 410.593 117.673 410.124 118.356C409.655 119.039 408.722 119.213 408.038 118.744C407.355 118.275 407.182 117.342 407.65 116.659C408.119 115.976 409.053 115.802 409.736 116.271Z" fill="black"/>
<path d="M684.736 394.271C685.419 394.739 685.593 395.673 685.124 396.356C684.655 397.039 683.722 397.213 683.039 396.744C682.356 396.275 682.182 395.342 682.651 394.659C683.119 393.976 684.053 393.802 684.736 394.271Z" fill="black"/>
<path d="M723.8 420.788C724.276 421.466 724.112 422.402 723.434 422.878C722.756 423.354 721.82 423.19 721.344 422.512C720.868 421.834 721.032 420.898 721.71 420.422C722.388 419.946 723.324 420.11 723.8 420.788Z" fill="black"/>
<path d="M583.276 358.85C583.752 359.528 583.588 360.464 582.91 360.939C582.232 361.415 581.296 361.252 580.82 360.574C580.344 359.895 580.508 358.96 581.186 358.484C581.864 358.008 582.8 358.172 583.276 358.85Z" fill="black"/>
<path d="M858.276 636.85C858.752 637.528 858.588 638.464 857.91 638.939C857.232 639.415 856.296 639.252 855.82 638.574C855.344 637.895 855.508 636.96 856.186 636.484C856.864 636.008 857.8 636.172 858.276 636.85Z" fill="black"/>
<path d="M419.811 279.167C420.213 279.739 420.075 280.53 419.502 280.931C418.929 281.333 418.139 281.195 417.737 280.622C417.335 280.05 417.474 279.26 418.046 278.858C418.619 278.456 419.409 278.594 419.811 279.167Z" fill="black"/>
<path d="M694.811 557.167C695.213 557.739 695.075 558.53 694.502 558.931C693.929 559.333 693.139 559.195 692.737 558.622C692.336 558.05 692.474 557.26 693.047 556.858C693.619 556.456 694.409 556.594 694.811 557.167Z" fill="black"/>
<path d="M482.837 481.29C483.415 482.279 483.216 483.645 482.392 484.34C481.569 485.034 480.433 484.795 479.855 483.805C479.277 482.816 479.476 481.45 480.299 480.755C481.123 480.061 482.259 480.3 482.837 481.29Z" fill="black"/>
<path d="M342.313 419.351C342.891 420.341 342.692 421.706 341.868 422.401C341.045 423.096 339.909 422.857 339.331 421.867C338.753 420.877 338.952 419.512 339.775 418.817C340.599 418.122 341.735 418.362 342.313 419.351Z" fill="black"/>
<path d="M617.313 697.351C617.891 698.341 617.692 699.706 616.868 700.401C616.045 701.096 614.909 700.857 614.331 699.867C613.753 698.877 613.952 697.512 614.775 696.817C615.599 696.122 616.735 696.362 617.313 697.351Z" fill="black"/>
<path d="M428.837 578.29C429.415 579.279 429.216 580.645 428.392 581.34C427.569 582.034 426.433 581.795 425.855 580.805C425.277 579.816 425.476 578.45 426.299 577.755C427.123 577.061 428.259 577.3 428.837 578.29Z" fill="black"/>
<path d="M288.313 516.351C288.891 517.341 288.692 518.706 287.868 519.401C287.045 520.096 285.909 519.857 285.331 518.867C284.753 517.877 284.952 516.512 285.775 515.817C286.599 515.122 287.735 515.362 288.313 516.351Z" fill="black"/>
<path d="M563.313 794.351C563.891 795.341 563.692 796.706 562.868 797.401C562.045 798.096 560.909 797.857 560.331 796.867C559.753 795.877 559.952 794.512 560.775 793.817C561.599 793.122 562.735 793.362 563.313 794.351Z" fill="black"/>
<path d="M573.45 403.842C573.971 404.735 573.792 405.967 573.049 406.594C572.306 407.221 571.28 407.005 570.759 406.112C570.237 405.219 570.417 403.987 571.16 403.36C571.903 402.733 572.928 402.949 573.45 403.842Z" fill="black"/>
<path d="M748.713 169.968C748.611 168.938 749.288 167.894 750.225 167.634C751.162 167.374 752.004 167.997 752.105 169.027C752.207 170.056 751.53 171.101 750.593 171.361C749.656 171.62 748.815 170.997 748.713 169.968Z" fill="black"/>
<path d="M806.219 290.86C805.824 289.904 806.171 288.708 806.993 288.189C807.815 287.67 808.801 288.024 809.195 288.98C809.589 289.936 809.243 291.132 808.421 291.651C807.599 292.17 806.613 291.816 806.219 290.86Z" fill="black"/>
<path d="M760.661 390.216C760.267 389.26 760.613 388.064 761.435 387.545C762.257 387.026 763.243 387.38 763.637 388.336C764.031 389.292 763.685 390.488 762.863 391.007C762.041 391.526 761.055 391.172 760.661 390.216Z" fill="black"/>
<path d="M628.661 327.216C628.267 326.26 628.613 325.064 629.435 324.545C630.257 324.026 631.243 324.38 631.637 325.336C632.031 326.292 631.685 327.488 630.863 328.007C630.041 328.526 629.055 328.172 628.661 327.216Z" fill="black"/>
<path d="M576.661 209.216C576.267 208.26 576.613 207.064 577.435 206.545C578.257 206.026 579.243 206.38 579.637 207.336C580.031 208.292 579.685 209.488 578.863 210.007C578.041 210.526 577.055 210.172 576.661 209.216Z" fill="black"/>
<path d="M524.661 91.2162C524.267 90.2602 524.613 89.0643 525.435 88.5451C526.257 88.0259 527.243 88.38 527.637 89.336C528.031 90.292 527.685 91.4879 526.863 92.0071C526.041 92.5263 525.055 92.1722 524.661 91.2162Z" fill="black"/>
<path d="M786.284 324.264C786.284 325.093 785.613 325.764 784.784 325.764C783.956 325.764 783.284 325.093 783.284 324.264C783.284 323.436 783.956 322.764 784.784 322.764C785.613 322.764 786.284 323.436 786.284 324.264Z" fill="black"/>
<path d="M591.34 155.461C592.023 155.93 592.196 156.864 591.728 157.547C591.259 158.23 590.325 158.404 589.642 157.935C588.959 157.466 588.785 156.532 589.254 155.849C589.723 155.166 590.657 154.993 591.34 155.461Z" fill="black"/>
<path d="M770.241 413.847C770.717 414.526 770.553 415.461 769.875 415.937C769.197 416.413 768.262 416.249 767.786 415.571C767.31 414.893 767.474 413.957 768.152 413.482C768.83 413.006 769.765 413.169 770.241 413.847Z" fill="black"/>
<path d="M599.556 335.243C599.958 335.816 599.82 336.606 599.247 337.008C598.675 337.41 597.885 337.272 597.483 336.699C597.081 336.126 597.219 335.336 597.792 334.934C598.364 334.532 599.155 334.671 599.556 335.243Z" fill="black"/>
<path d="M539.238 471.159C539.816 472.148 539.617 473.514 538.793 474.208C537.97 474.903 536.834 474.664 536.256 473.674C535.678 472.685 535.877 471.319 536.7 470.624C537.524 469.93 538.66 470.169 539.238 471.159Z" fill="black"/>
<path d="M485.238 568.159C485.816 569.148 485.617 570.514 484.793 571.208C483.97 571.903 482.834 571.664 482.256 570.674C481.678 569.685 481.877 568.319 482.7 567.624C483.524 566.93 484.66 567.169 485.238 568.159Z" fill="black"/>
<path d="M624.34 394.701C624.861 395.594 624.682 396.826 623.939 397.452C623.196 398.079 622.171 397.863 621.649 396.97C621.128 396.077 621.307 394.845 622.05 394.219C622.793 393.592 623.818 393.808 624.34 394.701Z" fill="black"/>
<path d="M698.647 157.053C698.545 156.024 699.222 154.979 700.159 154.719C701.096 154.459 701.938 155.083 702.039 156.112C702.141 157.141 701.464 158.186 700.527 158.446C699.59 158.706 698.749 158.082 698.647 157.053Z" fill="black"/>
<path d="M754.556 292.949C754.162 291.993 754.508 290.797 755.33 290.278C756.152 289.759 757.138 290.113 757.532 291.069C757.927 292.025 757.58 293.221 756.758 293.74C755.937 294.259 754.951 293.905 754.556 292.949Z" fill="black"/>
<path d="M708.998 392.305C708.604 391.349 708.95 390.153 709.772 389.634C710.594 389.115 711.58 389.469 711.974 390.425C712.369 391.381 712.022 392.577 711.2 393.096C710.379 393.615 709.393 393.261 708.998 392.305Z" fill="black"/>
<path d="M576.998 329.305C576.604 328.349 576.95 327.153 577.772 326.634C578.594 326.115 579.58 326.469 579.974 327.425C580.369 328.381 580.022 329.577 579.2 330.096C578.379 330.615 577.393 330.261 576.998 329.305Z" fill="black"/>
<path d="M524.998 211.305C524.604 210.349 524.95 209.153 525.772 208.634C526.594 208.115 527.58 208.469 527.974 209.425C528.369 210.381 528.022 211.577 527.2 212.096C526.379 212.615 525.393 212.261 524.998 211.305Z" fill="black"/>
<path d="M475.2 84.6364C474.806 83.6804 475.153 82.4845 475.974 81.9653C476.796 81.4461 477.782 81.8002 478.176 82.7562C478.571 83.7122 478.224 84.9081 477.403 85.4273C476.581 85.9465 475.595 85.5924 475.2 84.6364Z" fill="black"/>
<path d="M548.827 387.48C548.827 387.48 544.445 384.225 533.505 383.158L538.535 399.626C547.012 392.628 548.827 387.48 548.827 387.48ZM532.124 382.909C519.617 381.688 499.131 383.129 467.848 394.272C466.844 394.606 465.915 394.93 465.057 395.242C464.199 395.555 463.413 395.855 462.696 396.14C461.978 396.425 461.33 396.695 460.747 396.947C460.163 397.199 459.646 397.434 459.192 397.647C458.737 397.861 458.345 398.053 458.014 398.222C457.681 398.39 457.409 398.536 457.194 398.654C456.762 398.891 456.56 399.021 456.56 399.021C456.56 399.021 456.587 398.979 456.688 398.881C456.788 398.784 456.961 398.631 457.251 398.411C457.396 398.3 457.57 398.173 457.779 398.027C457.987 397.881 458.231 397.717 458.515 397.532C458.799 397.347 459.123 397.142 459.493 396.915C459.863 396.688 460.279 396.439 460.747 396.167C461.214 395.895 461.697 395.629 462.185 395.37C462.672 395.113 463.164 394.864 463.648 394.627C464.134 394.39 464.611 394.164 465.071 393.952C465.252 393.869 465.413 393.799 465.587 393.722L435.144 386.301L427.297 388.588L448.32 404.834L455.753 429.168L447.395 454.388L455.238 452.09L476.25 428.829C476.058 428.862 475.88 428.895 475.679 428.928C475.18 429.01 474.657 429.089 474.122 429.163C473.589 429.238 473.042 429.306 472.494 429.365C471.945 429.424 471.397 429.472 470.857 429.507C470.317 429.543 469.834 429.568 469.401 429.587C468.967 429.606 468.583 429.617 468.245 429.622C467.907 429.627 467.612 429.627 467.358 429.622C467.103 429.618 466.888 429.609 466.706 429.599C466.343 429.578 466.114 429.548 465.976 429.524C465.838 429.499 465.792 429.48 465.792 429.48C465.792 429.48 466.033 429.474 466.522 429.429C466.767 429.407 467.074 429.375 467.443 429.33C467.813 429.285 468.245 429.225 468.741 429.148C469.237 429.071 469.797 428.977 470.421 428.86C471.045 428.744 471.734 428.605 472.488 428.441C473.242 428.277 474.061 428.087 474.947 427.866C475.832 427.646 476.783 427.396 477.802 427.112C510.017 418.871 527.832 408.611 537.529 400.604L532.124 382.909ZM513.021 398.345C513.024 398.354 513.026 398.362 513.028 398.371C513.034 398.386 513.038 398.401 513.042 398.416C513.047 398.431 513.052 398.445 513.056 398.46C513.06 398.476 513.064 398.49 513.068 398.505C513.073 398.52 513.077 398.535 513.081 398.55C513.085 398.565 513.09 398.58 513.094 398.595C513.098 398.61 513.102 398.626 513.106 398.641C513.11 398.656 513.114 398.671 513.117 398.686C513.122 398.7 513.126 398.715 513.13 398.73C513.134 398.746 513.137 398.76 513.141 398.775C513.145 398.791 513.149 398.806 513.152 398.821C513.156 398.836 513.16 398.851 513.163 398.867C513.167 398.882 513.17 398.897 513.174 398.912C513.177 398.927 513.181 398.942 513.184 398.958C513.188 398.973 513.191 398.988 513.194 399.003C513.198 399.018 513.201 399.034 513.205 399.049C513.208 399.064 513.211 399.079 513.215 399.094C513.218 399.11 513.221 399.125 513.224 399.14C513.227 399.155 513.23 399.17 513.233 399.186C513.236 399.201 513.239 399.216 513.242 399.232C513.245 399.247 513.247 399.262 513.251 399.277C513.254 399.293 513.256 399.308 513.259 399.323C513.262 399.339 513.264 399.354 513.267 399.369C513.269 399.385 513.273 399.4 513.275 399.416C513.277 399.431 513.28 399.446 513.283 399.462C513.285 399.477 513.288 399.493 513.29 399.508C513.293 399.523 513.295 399.539 513.297 399.554C513.3 399.569 513.302 399.585 513.304 399.6C513.307 399.615 513.309 399.631 513.311 399.647C513.313 399.661 513.315 399.678 513.317 399.692C513.32 399.708 513.321 399.723 513.324 399.739C513.325 399.755 513.328 399.77 513.329 399.785C513.331 399.801 513.333 399.816 513.335 399.832C513.337 399.847 513.338 399.862 513.34 399.878C513.342 399.894 513.343 399.909 513.345 399.924C513.347 399.94 513.349 399.955 513.35 399.971C513.351 399.986 513.353 400.002 513.355 400.018C513.356 400.033 513.357 400.048 513.359 400.064C513.36 400.079 513.361 400.095 513.363 400.11C513.364 400.126 513.366 400.141 513.366 400.157C513.368 400.172 513.369 400.188 513.37 400.203C513.372 400.219 513.372 400.235 513.373 400.25C513.374 400.266 513.375 400.281 513.376 400.297C513.377 400.313 513.378 400.328 513.379 400.343C513.38 400.359 513.38 400.374 513.381 400.39C513.382 400.405 513.383 400.421 513.384 400.436C513.384 400.452 513.385 400.467 513.386 400.483C513.386 400.499 513.387 400.514 513.387 400.53C513.388 400.545 513.388 400.561 513.388 400.577C513.389 400.592 513.389 400.608 513.39 400.623C513.391 400.639 513.391 400.654 513.391 400.67C513.391 400.686 513.391 400.701 513.391 400.717C513.392 400.733 513.392 400.747 513.392 400.764C513.392 400.779 513.392 400.794 513.392 400.81C513.392 400.826 513.392 400.841 513.392 400.857C513.392 400.872 513.392 400.888 513.392 400.903C513.391 400.919 513.391 400.935 513.391 400.95C513.39 400.966 513.39 400.981 513.39 400.997C513.39 401.012 513.389 401.028 513.388 401.043C513.388 401.059 513.388 401.074 513.387 401.09C513.387 401.106 513.386 401.121 513.385 401.137C513.385 401.152 513.384 401.168 513.383 401.184C513.383 401.199 513.382 401.214 513.381 401.23C513.381 401.245 513.379 401.261 513.379 401.277C513.378 401.292 513.377 401.308 513.376 401.323C513.375 401.339 513.374 401.354 513.373 401.369C513.372 401.385 513.37 401.401 513.37 401.417C513.368 401.432 513.367 401.447 513.366 401.463C513.365 401.478 513.363 401.494 513.363 401.51C513.361 401.525 513.36 401.541 513.359 401.556C513.357 401.571 513.356 401.587 513.354 401.602C513.353 401.618 513.351 401.634 513.35 401.648C513.348 401.664 513.346 401.68 513.345 401.695C513.343 401.711 513.341 401.727 513.34 401.742C513.337 401.757 513.336 401.773 513.334 401.788C513.333 401.804 513.33 401.819 513.329 401.834C513.327 401.85 513.324 401.866 513.323 401.881C513.321 401.896 513.318 401.911 513.316 401.928C513.314 401.943 513.313 401.958 513.31 401.973C513.307 401.989 513.306 402.005 513.304 402.02C513.301 402.035 513.298 402.051 513.296 402.066C513.294 402.081 513.292 402.097 513.289 402.112C513.287 402.127 513.284 402.143 513.282 402.158C513.279 402.174 513.277 402.188 513.274 402.204C513.271 402.219 513.268 402.235 513.266 402.25C513.263 402.265 513.261 402.281 513.258 402.297C513.255 402.312 513.253 402.327 513.25 402.342C513.246 402.357 513.243 402.373 513.241 402.388C513.238 402.404 513.235 402.418 513.231 402.434C513.228 402.449 513.226 402.464 513.222 402.48C513.219 402.495 513.216 402.51 513.213 402.525C513.21 402.541 513.207 402.556 513.203 402.571C513.2 402.586 513.196 402.601 513.193 402.617C513.19 402.632 513.187 402.647 513.183 402.662C513.18 402.677 513.175 402.692 513.172 402.708C513.169 402.723 513.165 402.738 513.162 402.754C513.158 402.769 513.155 402.783 513.151 402.799C513.147 402.814 513.143 402.829 513.139 402.844C513.135 402.859 513.131 402.874 513.128 402.889C513.124 402.904 513.12 402.92 513.116 402.935C513.112 402.95 513.108 402.964 513.104 402.979C513.1 402.994 513.096 403.009 513.092 403.025C513.088 403.04 513.083 403.055 513.079 403.069C513.075 403.084 513.071 403.099 513.066 403.115C513.062 403.129 513.058 403.144 513.053 403.16C513.049 403.174 513.044 403.189 513.04 403.204C513.036 403.219 513.031 403.234 513.026 403.249C513.022 403.263 513.018 403.278 513.013 403.293C513.008 403.308 513.003 403.323 512.999 403.338C512.994 403.353 512.989 403.367 512.985 403.382C512.98 403.397 512.974 403.412 512.97 403.427C512.965 403.442 512.96 403.456 512.955 403.471C512.95 403.485 512.945 403.501 512.94 403.515C512.935 403.53 512.93 403.545 512.925 403.559C512.92 403.574 512.914 403.589 512.91 403.603C512.904 403.618 512.899 403.633 512.894 403.647C512.888 403.662 512.883 403.676 512.877 403.691C512.872 403.706 512.867 403.72 512.861 403.735C512.856 403.749 512.85 403.764 512.845 403.779C512.839 403.793 512.833 403.808 512.828 403.822C512.822 403.836 512.817 403.851 512.811 403.866C512.805 403.88 512.8 403.894 512.793 403.909C512.788 403.923 512.782 403.938 512.776 403.952C512.77 403.966 512.765 403.981 512.758 403.995C512.753 404.01 512.746 404.025 512.74 404.039C512.734 404.054 512.729 404.068 512.722 404.082C512.716 404.096 512.71 404.11 512.704 404.125C512.697 404.139 512.691 404.153 512.685 404.167C512.679 404.182 512.672 404.196 512.666 404.21C512.66 404.224 512.654 404.238 512.647 404.253C512.641 404.267 512.634 404.281 512.628 404.295C512.621 404.309 512.614 404.324 512.607 404.337C512.601 404.352 512.595 404.366 512.588 404.38C512.581 404.394 512.574 404.408 512.568 404.422C512.561 404.436 512.554 404.45 512.547 404.463C512.541 404.478 512.534 404.492 512.527 404.506C512.52 404.52 512.513 404.534 512.506 404.548C512.499 404.562 512.492 404.576 512.485 404.59C512.478 404.603 512.471 404.617 512.464 404.631C512.456 404.645 512.449 404.658 512.442 404.672C512.435 404.686 512.428 404.7 512.42 404.713C512.413 404.727 512.406 404.741 512.398 404.755C512.391 404.769 512.384 404.782 512.376 404.796C512.369 404.809 512.361 404.823 512.354 404.837C512.347 404.851 512.338 404.864 512.331 404.878C512.324 404.892 512.316 404.905 512.308 404.919C512.301 404.932 512.293 404.946 512.285 404.959C512.278 404.973 512.269 404.986 512.262 405C512.254 405.013 512.246 405.026 512.238 405.04C512.23 405.053 512.222 405.067 512.214 405.08C512.206 405.093 512.198 405.107 512.19 405.12C512.183 405.133 512.174 405.147 512.166 405.16C512.158 405.173 512.149 405.186 512.141 405.2C512.134 405.213 512.125 405.226 512.117 405.239C512.108 405.253 512.1 405.266 512.092 405.278C512.083 405.292 512.075 405.305 512.066 405.318C512.058 405.332 512.05 405.344 512.041 405.357C512.033 405.37 512.025 405.384 512.015 405.396C512.007 405.41 511.999 405.422 511.99 405.435C511.981 405.448 511.973 405.461 511.964 405.474C511.955 405.487 511.946 405.5 511.937 405.513C511.929 405.526 511.92 405.539 511.911 405.551C511.903 405.564 511.893 405.577 511.884 405.59C511.876 405.602 511.867 405.615 511.857 405.628C511.849 405.641 511.84 405.653 511.831 405.666C511.821 405.678 511.813 405.691 511.803 405.704C511.794 405.716 511.785 405.729 511.776 405.742C511.767 405.754 511.757 405.766 511.748 405.779C511.739 405.791 511.729 405.804 511.72 405.816C511.711 405.829 511.701 405.841 511.692 405.853C511.682 405.866 511.673 405.879 511.663 405.891C511.654 405.903 511.645 405.916 511.635 405.928C511.625 405.94 511.616 405.952 511.606 405.964C511.597 405.977 511.587 405.989 511.578 406.001C511.567 406.013 511.557 406.026 511.548 406.038C511.539 406.05 511.528 406.062 511.519 406.074C511.509 406.086 511.499 406.098 511.489 406.11C511.479 406.122 511.469 406.134 511.459 406.146C511.449 406.158 511.44 406.17 511.429 406.182C511.419 406.194 511.409 406.206 511.399 406.217C511.388 406.23 511.379 406.241 511.369 406.253C511.358 406.265 511.348 406.277 511.338 406.288C511.327 406.3 511.317 406.311 511.308 406.323C511.297 406.335 511.286 406.347 511.276 406.358C511.266 406.37 511.255 406.381 511.245 406.393C511.235 406.404 511.224 406.416 511.214 406.428C511.204 406.439 511.192 406.45 511.182 406.462C511.172 406.473 511.161 406.485 511.15 406.497C511.14 406.507 511.129 406.519 511.118 406.531C511.108 406.542 511.097 406.553 511.086 406.565C511.076 406.576 511.064 406.587 511.054 406.598C511.043 406.609 511.032 406.62 511.021 406.631C511.011 406.642 511 406.654 510.989 406.664C510.978 406.676 510.966 406.687 510.956 406.698C510.945 406.709 510.933 406.72 510.922 406.731C510.912 406.742 510.9 406.753 510.89 406.764C510.878 406.774 510.867 406.786 510.856 406.797C510.845 406.807 510.833 406.818 510.822 406.829C510.811 406.84 510.8 406.85 510.788 406.861C510.777 406.872 510.766 406.883 510.755 406.893C510.743 406.904 510.732 406.914 510.721 406.924C510.709 406.936 510.698 406.946 510.686 406.957C510.674 406.967 510.663 406.977 510.651 406.988C510.64 406.998 510.629 407.009 510.617 407.019C510.605 407.03 510.593 407.04 510.582 407.051C510.57 407.06 510.559 407.071 510.547 407.081C510.535 407.091 510.524 407.102 510.512 407.111C510.5 407.122 510.488 407.132 510.476 407.142C510.464 407.152 510.453 407.163 510.44 407.172C510.429 407.182 510.417 407.193 510.405 407.203C510.393 407.213 510.381 407.223 510.369 407.233C510.357 407.243 510.345 407.252 510.333 407.262C510.321 407.272 510.309 407.282 510.297 407.292C510.285 407.302 510.273 407.312 510.261 407.321C510.248 407.331 510.236 407.34 510.224 407.35C510.212 407.359 510.199 407.369 510.188 407.379C510.175 407.388 510.163 407.398 510.15 407.408C510.138 407.417 510.126 407.426 510.113 407.436C510.101 407.446 510.088 407.455 510.076 407.464C510.064 407.473 510.051 407.483 510.039 407.492C510.026 407.502 510.014 407.511 510.001 407.52C509.988 407.529 509.976 407.539 509.963 407.548C509.951 407.557 509.938 407.566 509.925 407.575C509.913 407.584 509.9 407.593 509.887 407.602C509.875 407.611 509.862 407.621 509.85 407.63C509.837 407.639 509.824 407.647 509.811 407.656C509.799 407.665 509.786 407.674 509.773 407.683C509.761 407.691 509.747 407.701 509.734 407.709C509.722 407.718 509.709 407.726 509.695 407.735C509.682 407.744 509.67 407.753 509.657 407.761C509.644 407.77 509.631 407.778 509.618 407.787C509.605 407.795 509.591 407.804 509.579 407.812C509.566 407.821 509.552 407.829 509.539 407.838C509.526 407.846 509.513 407.855 509.5 407.863C509.487 407.871 509.473 407.879 509.461 407.888C509.447 407.896 509.434 407.904 509.42 407.912C509.408 407.921 509.394 407.928 509.381 407.937C509.367 407.945 509.354 407.953 509.341 407.96C509.328 407.969 509.315 407.977 509.301 407.985C509.287 407.993 509.274 408 509.26 408.008C509.247 408.017 509.233 408.024 509.22 408.032C509.207 408.04 509.193 408.047 509.18 408.055C509.166 408.063 509.153 408.07 509.139 408.078C509.125 408.086 509.112 408.093 509.098 408.101C509.084 408.108 509.071 408.116 509.057 408.123C509.043 408.131 509.03 408.138 509.016 408.146C509.002 408.153 508.988 408.161 508.975 408.168C508.961 408.175 508.947 408.182 508.934 408.19C508.92 408.197 508.906 408.204 508.892 408.212C508.878 408.219 508.865 408.226 508.851 408.233C508.837 408.24 508.823 408.247 508.809 408.254C508.796 408.261 508.781 408.268 508.768 408.275C508.753 408.282 508.739 408.288 508.725 408.296C508.712 408.302 508.698 408.309 508.684 408.316C508.67 408.323 508.655 408.329 508.641 408.336C508.627 408.343 508.614 408.349 508.599 408.356C508.585 408.363 508.571 408.369 508.557 408.376C508.543 408.382 508.529 408.389 508.515 408.395C508.5 408.402 508.486 408.409 508.472 408.415C508.458 408.421 508.443 408.427 508.429 408.434C508.415 408.441 508.401 408.446 508.386 408.453C508.372 408.459 508.358 408.465 508.344 408.472C508.329 408.478 508.315 408.483 508.301 408.49C508.286 408.496 508.272 408.502 508.258 408.508C508.243 408.515 508.229 408.52 508.214 408.526C508.2 408.532 508.186 408.538 508.171 408.543C508.157 408.55 508.142 408.555 508.128 408.561C508.114 408.567 508.099 408.572 508.085 408.578C508.071 408.584 508.056 408.589 508.041 408.595C508.027 408.602 508.012 408.606 507.997 408.611C507.983 408.618 507.968 408.622 507.954 408.628C507.939 408.632 507.925 408.639 507.91 408.644C507.895 408.649 507.88 408.655 507.866 408.66C507.851 408.664 507.836 408.67 507.822 408.675C507.807 408.679 507.793 408.686 507.778 408.691C507.763 408.695 507.748 408.702 507.733 408.707C507.719 408.711 507.704 408.718 507.69 408.722C507.675 408.727 507.661 408.733 507.646 408.738C507.631 408.742 507.616 408.747 507.601 408.752C507.586 408.756 507.571 408.761 507.556 408.765C507.542 408.77 507.527 408.774 507.512 408.779C507.503 408.782 507.494 408.784 507.486 408.787C507.471 408.791 507.456 408.796 507.441 408.8C507.427 408.805 507.411 408.81 507.396 408.814C507.382 408.819 507.367 408.823 507.352 408.828C507.337 408.832 507.322 408.837 507.308 408.841C507.293 408.846 507.277 408.848 507.262 408.853C507.247 408.857 507.232 408.86 507.217 408.864C507.202 408.869 507.186 408.871 507.172 408.876C507.157 408.88 507.141 408.883 507.126 408.887C507.111 408.892 507.096 408.895 507.081 408.9C507.066 408.904 507.051 408.907 507.036 408.91C507.021 408.915 507.005 408.917 506.99 408.921C506.975 408.926 506.96 408.928 506.945 408.932C506.929 408.935 506.915 408.94 506.899 408.943C506.884 408.945 506.869 408.95 506.854 408.953C506.839 408.956 506.823 408.96 506.808 408.963C506.793 408.965 506.778 408.969 506.762 408.972C506.747 408.975 506.732 408.979 506.716 408.982C506.701 408.984 506.686 408.988 506.671 408.991C506.655 408.993 506.64 408.997 506.625 409C506.609 409.003 506.594 409.006 506.579 409.009C506.563 409.011 506.548 409.015 506.533 409.018C506.518 409.02 506.502 409.022 506.487 409.026C506.471 409.028 506.457 409.03 506.441 409.034C506.425 409.036 506.411 409.038 506.395 409.041C506.379 409.044 506.364 409.046 506.349 409.048C506.334 409.051 506.318 409.053 506.302 409.055C506.287 409.057 506.272 409.06 506.256 409.062C506.241 409.065 506.226 409.067 506.21 409.068C506.195 409.071 506.179 409.073 506.164 409.075C506.148 409.077 506.133 409.08 506.118 409.081C506.102 409.084 506.087 409.085 506.071 409.087C506.055 409.089 506.04 409.091 506.025 409.093C506.01 409.095 505.994 409.097 505.979 409.098C505.963 409.1 505.948 409.102 505.932 409.103C505.916 409.105 505.901 409.107 505.886 409.108C505.87 409.11 505.855 409.111 505.839 409.112C505.824 409.115 505.809 409.116 505.793 409.117C505.777 409.118 505.761 409.12 505.746 409.121C505.731 409.123 505.715 409.123 505.7 409.125C505.684 409.126 505.669 409.127 505.653 409.129C505.638 409.129 505.622 409.13 505.606 409.132C505.591 409.133 505.575 409.134 505.56 409.135C505.544 409.136 505.528 409.137 505.513 409.137C505.497 409.138 505.482 409.139 505.466 409.14C505.451 409.141 505.435 409.141 505.42 409.142C505.405 409.143 505.389 409.144 505.373 409.144C505.357 409.145 505.342 409.146 505.327 409.146C505.311 409.146 505.296 409.147 505.28 409.147C505.264 409.148 505.249 409.148 505.233 409.148C505.218 409.148 505.202 409.149 505.186 409.149C505.171 409.149 505.155 409.15 505.139 409.15C505.124 409.15 505.109 409.15 505.093 409.15C505.077 409.15 505.062 409.15 505.046 409.15C505.031 409.151 505.015 409.151 505 409.151C504.984 409.15 504.968 409.15 504.953 409.15C504.937 409.15 504.922 409.149 504.906 409.149C504.891 409.149 504.876 409.149 504.859 409.148C504.844 409.148 504.829 409.148 504.813 409.147C504.797 409.147 504.782 409.147 504.766 409.146C504.751 409.145 504.736 409.145 504.719 409.144C504.704 409.143 504.688 409.143 504.673 409.142C504.657 409.141 504.642 409.141 504.626 409.139C504.61 409.139 504.595 409.138 504.579 409.138C504.563 409.136 504.549 409.135 504.533 409.135C504.518 409.134 504.502 409.133 504.487 409.132C504.471 409.131 504.455 409.13 504.44 409.128C504.424 409.127 504.409 409.126 504.394 409.125C504.378 409.124 504.362 409.122 504.347 409.121C504.331 409.12 504.315 409.119 504.3 409.117C504.284 409.116 504.269 409.114 504.254 409.113C504.238 409.111 504.222 409.109 504.207 409.108C504.191 409.107 504.176 409.105 504.16 409.103C504.145 409.101 504.13 409.1 504.114 409.098C504.099 409.096 504.083 409.094 504.068 409.093C504.053 409.091 504.037 409.089 504.022 409.088C504.006 409.085 503.99 409.083 503.975 409.081C503.959 409.079 503.944 409.077 503.929 409.075C503.914 409.073 503.898 409.071 503.883 409.069C503.867 409.067 503.852 409.065 503.837 409.062C503.821 409.06 503.806 409.057 503.79 409.055C503.775 409.053 503.76 409.05 503.744 409.048C503.728 409.046 503.714 409.044 503.698 409.041C503.683 409.038 503.667 409.036 503.652 409.033C503.636 409.03 503.621 409.028 503.606 409.025C503.59 409.023 503.575 409.02 503.56 409.017C503.545 409.014 503.529 409.012 503.514 409.008C503.499 409.006 503.483 409.003 503.468 409C503.453 408.997 503.437 408.994 503.423 408.991C503.407 408.988 503.392 408.985 503.377 408.982C503.361 408.979 503.346 408.975 503.33 408.972C503.316 408.969 503.301 408.966 503.285 408.962C503.27 408.959 503.255 408.956 503.24 408.952C503.224 408.949 503.209 408.945 503.194 408.942C503.179 408.939 503.164 408.935 503.149 408.932C503.133 408.928 503.118 408.924 503.103 408.921C503.088 408.917 503.073 408.914 503.058 408.91C503.042 408.906 503.027 408.902 503.012 408.898C502.997 408.895 502.982 408.891 502.967 408.887C502.952 408.883 502.937 408.88 502.922 408.875C502.907 408.871 502.892 408.867 502.877 408.863C502.861 408.859 502.846 408.855 502.831 408.851C502.817 408.847 502.802 408.842 502.786 408.838C502.771 408.834 502.757 408.83 502.742 408.826C502.727 408.821 502.712 408.817 502.697 408.813C502.682 408.808 502.667 408.804 502.652 408.799C502.637 408.795 502.622 408.79 502.607 408.786C502.593 408.781 502.577 408.777 502.563 408.772C502.547 408.767 502.533 408.763 502.518 408.758C502.503 408.753 502.488 408.748 502.473 408.744C502.459 408.739 502.444 408.734 502.429 408.729C502.415 408.724 502.399 408.719 502.385 408.715C502.37 408.709 502.356 408.704 502.341 408.7C502.326 408.694 502.311 408.689 502.297 408.684C502.282 408.679 502.267 408.674 502.252 408.669C502.238 408.663 502.223 408.659 502.209 408.653C502.194 408.647 502.179 408.642 502.164 408.636C502.15 408.632 502.135 408.626 502.12 408.621C502.106 408.615 502.092 408.609 502.077 408.605C502.063 408.598 502.048 408.593 502.034 408.587C502.019 408.581 502.005 408.576 501.99 408.57C501.975 408.565 501.961 408.559 501.947 408.553C501.932 408.547 501.917 408.542 501.903 408.536C501.889 408.529 501.874 408.524 501.86 408.517C501.846 408.512 501.831 408.506 501.817 408.5C501.803 408.494 501.788 408.488 501.774 408.482C501.76 408.475 501.745 408.469 501.732 408.463C501.717 408.457 501.702 408.451 501.688 408.444C501.674 408.439 501.66 408.432 501.646 408.426C501.631 408.419 501.617 408.413 501.603 408.407C501.589 408.4 501.575 408.394 501.561 408.387C501.546 408.381 501.533 408.374 501.518 408.368C501.504 408.36 501.49 408.354 501.476 408.347C501.462 408.341 501.448 408.334 501.434 408.327C501.42 408.321 501.405 408.313 501.392 408.307C501.378 408.3 501.364 408.293 501.35 408.286C501.336 408.279 501.322 408.273 501.308 408.266C501.294 408.258 501.28 408.252 501.266 408.244C501.253 408.238 501.238 408.23 501.225 408.224C501.211 408.217 501.197 408.209 501.183 408.202C501.17 408.194 501.156 408.187 501.142 408.18C501.128 408.173 501.114 408.165 501.101 408.158C501.087 408.15 501.074 408.143 501.06 408.136C501.046 408.128 501.032 408.121 501.018 408.114C501.005 408.106 500.991 408.098 500.978 408.091C500.964 408.083 500.951 408.076 500.937 408.067C500.924 408.06 500.91 408.053 500.896 408.044C500.883 408.037 500.87 408.03 500.856 408.021C500.843 408.013 500.829 408.006 500.816 407.997C500.803 407.99 500.789 407.982 500.775 407.974C500.762 407.966 500.749 407.958 500.736 407.95C500.723 407.942 500.709 407.934 500.696 407.925C500.683 407.917 500.67 407.91 500.656 407.901C500.643 407.893 500.63 407.885 500.616 407.877C500.603 407.868 500.59 407.86 500.577 407.852C500.564 407.843 500.55 407.835 500.538 407.827C500.525 407.818 500.511 407.809 500.498 407.801C500.485 407.793 500.472 407.784 500.459 407.775C500.446 407.767 500.433 407.758 500.42 407.75C500.407 407.741 500.394 407.733 500.381 407.723C500.369 407.715 500.355 407.706 500.343 407.697C500.33 407.689 500.317 407.68 500.304 407.671C500.292 407.662 500.278 407.653 500.266 407.644C500.254 407.635 500.24 407.626 500.227 407.617C500.215 407.608 500.203 407.599 500.19 407.59C500.177 407.582 500.164 407.572 500.152 407.563C500.139 407.554 500.127 407.545 500.114 407.535C500.102 407.526 500.089 407.517 500.077 407.508C500.064 407.498 500.052 407.489 500.039 407.48C500.027 407.47 500.015 407.461 500.002 407.452C499.99 407.442 499.978 407.433 499.965 407.423C499.952 407.414 499.94 407.404 499.928 407.395C499.915 407.385 499.903 407.376 499.891 407.366C499.879 407.356 499.866 407.347 499.854 407.337C499.842 407.327 499.83 407.318 499.818 407.308C499.805 407.298 499.794 407.288 499.782 407.279C499.769 407.269 499.757 407.259 499.746 407.249C499.733 407.239 499.721 407.229 499.71 407.219C499.697 407.21 499.686 407.199 499.674 407.189C499.662 407.18 499.65 407.169 499.638 407.159C499.626 407.149 499.614 407.139 499.603 407.128C499.591 407.118 499.58 407.109 499.567 407.098C499.555 407.087 499.544 407.078 499.532 407.067C499.521 407.057 499.509 407.047 499.497 407.037C499.486 407.026 499.474 407.015 499.462 407.005C499.451 406.995 499.44 406.984 499.428 406.974C499.417 406.963 499.405 406.952 499.393 406.942C499.382 406.932 499.371 406.921 499.359 406.91C499.348 406.9 499.336 406.889 499.325 406.878C499.314 406.868 499.302 406.857 499.291 406.846C499.28 406.836 499.269 406.825 499.258 406.814C499.247 406.803 499.236 406.792 499.224 406.782C499.213 406.771 499.202 406.759 499.191 406.749C499.18 406.738 499.169 406.727 499.158 406.716C499.147 406.705 499.135 406.694 499.124 406.683C499.113 406.672 499.103 406.661 499.092 406.65C499.081 406.638 499.07 406.627 499.059 406.616C499.048 406.605 499.037 406.594 499.027 406.583C499.016 406.572 499.005 406.56 498.995 406.548C498.983 406.537 498.973 406.526 498.962 406.515C498.952 406.504 498.941 406.492 498.931 406.481C498.92 406.469 498.909 406.458 498.899 406.447C498.888 406.435 498.878 406.424 498.867 406.412C498.857 406.4 498.846 406.389 498.836 406.377C498.826 406.366 498.816 406.353 498.805 406.342C498.795 406.331 498.784 406.319 498.775 406.307C498.764 406.295 498.754 406.284 498.744 406.272C498.733 406.26 498.723 406.248 498.713 406.237C498.703 406.225 498.693 406.213 498.683 406.201C498.673 406.189 498.663 406.178 498.653 406.165C498.643 406.154 498.633 406.141 498.622 406.13C498.613 406.117 498.603 406.105 498.593 406.093C498.583 406.082 498.573 406.069 498.563 406.058C498.554 406.045 498.544 406.033 498.535 406.021C498.525 406.009 498.515 405.997 498.506 405.984C498.496 405.972 498.486 405.96 498.477 405.948C498.467 405.935 498.458 405.923 498.448 405.911C498.438 405.899 498.429 405.886 498.419 405.874C498.41 405.861 498.4 405.849 498.391 405.837C498.382 405.824 498.373 405.812 498.363 405.799C498.354 405.787 498.344 405.774 498.335 405.761C498.326 405.749 498.317 405.737 498.308 405.724C498.298 405.711 498.289 405.699 498.28 405.686C498.271 405.674 498.262 405.661 498.253 405.648C498.244 405.635 498.235 405.623 498.227 405.61C498.217 405.597 498.208 405.585 498.199 405.572C498.19 405.559 498.182 405.546 498.172 405.534C498.164 405.521 498.155 405.508 498.146 405.495C498.137 405.482 498.129 405.469 498.12 405.456C498.111 405.443 498.103 405.43 498.094 405.417C498.086 405.405 498.077 405.392 498.069 405.378C498.06 405.366 498.051 405.353 498.043 405.339C498.035 405.326 498.026 405.313 498.018 405.3C498.01 405.287 498.001 405.273 497.993 405.261C497.985 405.248 497.977 405.234 497.968 405.221C497.96 405.208 497.952 405.194 497.944 405.181C497.936 405.168 497.928 405.155 497.919 405.141C497.911 405.128 497.902 405.115 497.895 405.102C497.887 405.088 497.879 405.075 497.871 405.062C497.863 405.048 497.855 405.035 497.847 405.021C497.84 405.008 497.832 404.994 497.824 404.981C497.816 404.967 497.809 404.954 497.801 404.94C497.793 404.927 497.785 404.913 497.777 404.899C497.77 404.886 497.762 404.873 497.755 404.859C497.747 404.845 497.74 404.832 497.732 404.818C497.725 404.804 497.717 404.791 497.71 404.777C497.703 404.764 497.695 404.75 497.688 404.736C497.681 404.722 497.673 404.708 497.666 404.695C497.659 404.681 497.652 404.667 497.644 404.653C497.637 404.64 497.63 404.626 497.623 404.611C497.616 404.598 497.609 404.584 497.602 404.57C497.595 404.556 497.587 404.542 497.581 404.528C497.573 404.514 497.567 404.501 497.56 404.487C497.554 404.472 497.546 404.458 497.54 404.444C497.533 404.43 497.526 404.416 497.519 404.403C497.513 404.389 497.506 404.374 497.499 404.36C497.493 404.346 497.486 404.332 497.48 404.318C497.474 404.304 497.466 404.29 497.46 404.275C497.454 404.261 497.447 404.247 497.44 404.233C497.435 404.218 497.428 404.205 497.422 404.191C497.415 404.176 497.409 404.161 497.403 404.148C497.397 404.134 497.39 404.119 497.384 404.104C497.379 404.091 497.373 404.076 497.366 404.061C497.361 404.048 497.354 404.033 497.348 404.019C497.342 404.004 497.336 403.99 497.33 403.975C497.324 403.961 497.319 403.947 497.312 403.932C497.306 403.918 497.301 403.903 497.295 403.889C497.289 403.874 497.284 403.86 497.278 403.846C497.273 403.831 497.267 403.817 497.261 403.802C497.256 403.787 497.25 403.773 497.245 403.759C497.239 403.744 497.234 403.729 497.228 403.714C497.223 403.7 497.218 403.685 497.213 403.671C497.207 403.656 497.201 403.642 497.196 403.626C497.191 403.612 497.185 403.597 497.18 403.583C497.175 403.568 497.171 403.553 497.165 403.539C497.16 403.524 497.156 403.509 497.15 403.495C497.145 403.48 497.14 403.465 497.135 403.45C497.13 403.436 497.125 403.421 497.121 403.406C497.116 403.391 497.111 403.377 497.106 403.362C497.101 403.346 497.097 403.332 497.092 403.317C497.088 403.302 497.082 403.287 497.078 403.273C497.075 403.264 497.073 403.256 497.07 403.247C497.065 403.232 497.061 403.217 497.056 403.202C497.052 403.187 497.047 403.173 497.043 403.158C497.039 403.142 497.034 403.127 497.03 403.112C497.026 403.098 497.022 403.082 497.018 403.068C497.014 403.053 497.009 403.038 497.005 403.023C497.001 403.007 496.997 402.992 496.993 402.977C496.989 402.962 496.985 402.948 496.981 402.933C496.977 402.917 496.973 402.902 496.969 402.887C496.965 402.872 496.962 402.857 496.958 402.842C496.954 402.827 496.95 402.812 496.946 402.797C496.943 402.782 496.939 402.767 496.935 402.752C496.932 402.736 496.928 402.721 496.925 402.705C496.921 402.69 496.918 402.675 496.914 402.66C496.911 402.645 496.907 402.63 496.904 402.615C496.901 402.6 496.897 402.585 496.894 402.569C496.891 402.553 496.888 402.539 496.884 402.524C496.88 402.508 496.877 402.493 496.874 402.478C496.871 402.462 496.869 402.447 496.866 402.432C496.863 402.416 496.86 402.402 496.857 402.387C496.853 402.371 496.851 402.355 496.848 402.34C496.845 402.325 496.842 402.309 496.839 402.294C496.837 402.279 496.834 402.264 496.831 402.248C496.829 402.233 496.826 402.218 496.823 402.203C496.821 402.187 496.818 402.172 496.816 402.156C496.813 402.141 496.811 402.126 496.808 402.11C496.806 402.095 496.803 402.079 496.801 402.064C496.799 402.048 496.796 402.033 496.794 402.018C496.792 402.003 496.79 401.987 496.788 401.972C496.785 401.956 496.783 401.941 496.781 401.925C496.779 401.909 496.777 401.895 496.775 401.879C496.773 401.864 496.771 401.848 496.769 401.832C496.767 401.817 496.766 401.802 496.763 401.786C496.762 401.771 496.76 401.755 496.758 401.74C496.757 401.724 496.755 401.709 496.754 401.694C496.752 401.678 496.75 401.663 496.748 401.647C496.747 401.631 496.745 401.616 496.744 401.601C496.742 401.585 496.741 401.57 496.739 401.554C496.738 401.538 496.737 401.523 496.735 401.508C496.734 401.492 496.733 401.477 496.732 401.461C496.73 401.445 496.729 401.43 496.728 401.414C496.727 401.399 496.726 401.383 496.725 401.368C496.724 401.352 496.723 401.337 496.722 401.321C496.721 401.305 496.72 401.29 496.719 401.275C496.719 401.259 496.718 401.243 496.717 401.228C496.716 401.212 496.715 401.197 496.715 401.182C496.714 401.166 496.713 401.151 496.712 401.135C496.712 401.119 496.711 401.104 496.711 401.088C496.71 401.073 496.71 401.057 496.71 401.042C496.709 401.026 496.709 401.01 496.708 400.995C496.708 400.979 496.708 400.964 496.708 400.948C496.707 400.932 496.707 400.917 496.707 400.902C496.706 400.886 496.706 400.87 496.706 400.855C496.707 400.839 496.707 400.824 496.706 400.808C496.706 400.792 496.706 400.777 496.707 400.761C496.707 400.745 496.707 400.731 496.707 400.714C496.707 400.699 496.707 400.683 496.708 400.668C496.708 400.652 496.708 400.637 496.709 400.621C496.709 400.606 496.709 400.59 496.71 400.575C496.71 400.559 496.711 400.544 496.711 400.528C496.712 400.512 496.712 400.497 496.713 400.481C496.714 400.466 496.714 400.45 496.715 400.434C496.716 400.419 496.716 400.403 496.717 400.388C496.717 400.372 496.719 400.356 496.72 400.341C496.721 400.326 496.722 400.31 496.722 400.294C496.723 400.279 496.724 400.264 496.725 400.248C496.726 400.232 496.728 400.216 496.729 400.202C496.73 400.186 496.731 400.171 496.732 400.155C496.733 400.139 496.735 400.124 496.736 400.108C496.738 400.092 496.738 400.078 496.74 400.062C496.741 400.047 496.743 400.031 496.744 400.016C496.746 400 496.747 399.985 496.749 399.969C496.751 399.954 496.752 399.938 496.753 399.922C496.756 399.907 496.757 399.892 496.759 399.876C496.761 399.86 496.762 399.845 496.764 399.829C496.766 399.814 496.768 399.799 496.769 399.783C496.772 399.768 496.774 399.752 496.776 399.736C496.778 399.721 496.78 399.706 496.782 399.691C496.783 399.675 496.786 399.66 496.788 399.645C496.79 399.629 496.792 399.613 496.795 399.598C496.797 399.583 496.8 399.567 496.802 399.552C496.804 399.537 496.807 399.521 496.809 399.506C496.811 399.491 496.814 399.475 496.816 399.46C496.819 399.444 496.822 399.429 496.825 399.413C496.827 399.398 496.829 399.383 496.832 399.367C496.835 399.352 496.837 399.337 496.84 399.321C496.843 399.306 496.847 399.291 496.849 399.276C496.852 399.26 496.855 399.245 496.858 399.23C496.86 399.215 496.864 399.199 496.866 399.184C496.87 399.168 496.872 399.154 496.875 399.138C496.879 399.123 496.882 399.108 496.885 399.092C496.888 399.077 496.892 399.062 496.895 399.047C496.898 399.032 496.901 399.016 496.905 399.001C496.908 398.986 496.912 398.971 496.915 398.956C496.918 398.941 496.922 398.925 496.926 398.91C496.929 398.895 496.933 398.88 496.937 398.865C496.94 398.85 496.944 398.835 496.948 398.82C496.951 398.804 496.955 398.789 496.959 398.774C496.963 398.759 496.967 398.744 496.971 398.729C496.974 398.714 496.978 398.698 496.982 398.683C496.986 398.668 496.99 398.653 496.994 398.638C496.999 398.624 497.002 398.608 497.006 398.594C497.01 398.579 497.015 398.563 497.019 398.548C497.024 398.534 497.027 398.519 497.032 398.503C497.036 398.489 497.041 398.474 497.045 398.459C497.049 398.444 497.054 398.429 497.058 398.414C497.063 398.399 497.067 398.384 497.072 398.369C497.076 398.354 497.081 398.34 497.085 398.325C497.09 398.31 497.095 398.295 497.1 398.28C497.104 398.265 497.109 398.25 497.114 398.236C497.118 398.22 497.123 398.206 497.129 398.191C497.133 398.177 497.138 398.162 497.143 398.147C497.148 398.132 497.153 398.117 497.159 398.103C497.163 398.088 497.169 398.073 497.174 398.059C497.178 398.044 497.184 398.029 497.189 398.015C497.194 398 497.2 397.985 497.205 397.971C497.21 397.956 497.216 397.941 497.221 397.926C497.226 397.912 497.232 397.898 497.237 397.883C497.243 397.868 497.248 397.853 497.254 397.839C497.259 397.825 497.265 397.81 497.271 397.796C497.276 397.781 497.282 397.767 497.287 397.752C497.293 397.738 497.299 397.723 497.305 397.709C497.31 397.694 497.316 397.68 497.323 397.666C497.328 397.651 497.334 397.637 497.34 397.622C497.346 397.608 497.352 397.594 497.358 397.58C497.364 397.565 497.37 397.55 497.376 397.536C497.382 397.522 497.388 397.508 497.395 397.494C497.401 397.479 497.407 397.465 497.413 397.451C497.42 397.437 497.426 397.423 497.433 397.408C497.439 397.394 497.445 397.38 497.451 397.365C497.458 397.351 497.464 397.337 497.47 397.322C497.477 397.309 497.484 397.294 497.491 397.28C497.497 397.266 497.504 397.252 497.51 397.238C497.517 397.224 497.524 397.21 497.531 397.196C497.537 397.182 497.543 397.168 497.551 397.154C497.557 397.14 497.565 397.126 497.572 397.112C497.579 397.098 497.586 397.084 497.592 397.07C497.599 397.056 497.606 397.042 497.613 397.028C497.621 397.015 497.627 397.001 497.635 396.987C497.642 396.973 497.649 396.959 497.656 396.945C497.663 396.932 497.671 396.918 497.678 396.904C497.685 396.89 497.693 396.876 497.7 396.863C497.707 396.849 497.715 396.836 497.722 396.822C497.73 396.808 497.737 396.795 497.745 396.781C497.752 396.767 497.76 396.753 497.767 396.74C497.775 396.727 497.783 396.713 497.79 396.699C497.798 396.686 497.805 396.672 497.813 396.658C497.821 396.645 497.829 396.632 497.836 396.618C497.845 396.605 497.852 396.592 497.86 396.578C497.868 396.565 497.876 396.551 497.884 396.538C497.892 396.524 497.9 396.511 497.908 396.498C497.916 396.485 497.924 396.471 497.932 396.458C497.941 396.445 497.949 396.431 497.957 396.418C497.965 396.405 497.973 396.392 497.981 396.379C497.99 396.366 497.998 396.352 498.006 396.339C498.015 396.326 498.023 396.313 498.031 396.3C498.04 396.286 498.049 396.274 498.057 396.26C498.065 396.247 498.074 396.235 498.083 396.222C498.091 396.208 498.1 396.196 498.108 396.183C498.117 396.17 498.126 396.157 498.135 396.144C498.143 396.131 498.152 396.117 498.161 396.106C498.17 396.092 498.178 396.079 498.187 396.067C498.196 396.053 498.205 396.041 498.213 396.029C498.223 396.016 498.232 396.003 498.24 395.99C498.249 395.978 498.259 395.965 498.268 395.952C498.277 395.939 498.286 395.927 498.295 395.914C498.304 395.902 498.313 395.889 498.323 395.877C498.332 395.864 498.341 395.851 498.35 395.839C498.36 395.826 498.369 395.814 498.378 395.801C498.388 395.789 498.397 395.777 498.406 395.764C498.416 395.752 498.426 395.74 498.435 395.727C498.444 395.715 498.454 395.703 498.464 395.69C498.473 395.678 498.483 395.666 498.492 395.654C498.502 395.641 498.511 395.629 498.521 395.617C498.531 395.604 498.54 395.592 498.551 395.58C498.56 395.568 498.57 395.556 498.579 395.544C498.59 395.532 498.599 395.52 498.609 395.508C498.62 395.496 498.629 395.484 498.639 395.472C498.649 395.459 498.659 395.448 498.669 395.436C498.679 395.424 498.69 395.412 498.699 395.4C498.709 395.389 498.72 395.377 498.73 395.365C498.74 395.353 498.75 395.342 498.76 395.329C498.771 395.318 498.781 395.307 498.791 395.295C498.802 395.283 498.812 395.271 498.822 395.259C498.833 395.248 498.843 395.236 498.853 395.225C498.864 395.214 498.874 395.202 498.884 395.19C498.895 395.179 498.906 395.167 498.916 395.156C498.927 395.144 498.937 395.133 498.948 395.122C498.959 395.111 498.969 395.099 498.98 395.087C498.991 395.076 499.001 395.065 499.012 395.054C499.023 395.043 499.034 395.031 499.044 395.02C499.056 395.009 499.066 394.998 499.077 394.987C499.088 394.975 499.099 394.964 499.109 394.953C499.121 394.942 499.131 394.931 499.142 394.92C499.154 394.909 499.165 394.897 499.175 394.887C499.187 394.876 499.197 394.865 499.209 394.854C499.22 394.843 499.231 394.833 499.242 394.822C499.253 394.81 499.265 394.8 499.276 394.789C499.287 394.778 499.298 394.767 499.31 394.757C499.32 394.746 499.333 394.736 499.343 394.725C499.355 394.715 499.367 394.704 499.378 394.693C499.39 394.682 499.401 394.672 499.412 394.661C499.424 394.65 499.435 394.64 499.447 394.63C499.458 394.62 499.47 394.609 499.481 394.599C499.493 394.589 499.504 394.578 499.516 394.567C499.528 394.557 499.54 394.547 499.551 394.537C499.563 394.527 499.575 394.517 499.587 394.506C499.599 394.496 499.61 394.486 499.622 394.476C499.634 394.465 499.646 394.456 499.658 394.446C499.669 394.435 499.681 394.425 499.693 394.416C499.705 394.405 499.717 394.395 499.73 394.385C499.741 394.376 499.754 394.366 499.765 394.356C499.778 394.346 499.789 394.336 499.802 394.326C499.813 394.316 499.826 394.307 499.838 394.298C499.85 394.288 499.862 394.278 499.874 394.268C499.887 394.258 499.899 394.249 499.911 394.239C499.923 394.23 499.936 394.22 499.948 394.21C499.961 394.201 499.973 394.192 499.985 394.182C499.998 394.172 500.01 394.163 500.022 394.154C500.035 394.145 500.047 394.135 500.06 394.126C500.072 394.117 500.085 394.107 500.097 394.098C500.11 394.089 500.123 394.08 500.135 394.07C500.148 394.061 500.16 394.052 500.173 394.043C500.186 394.034 500.198 394.025 500.211 394.016C500.224 394.006 500.236 393.998 500.249 393.989C500.261 393.979 500.274 393.97 500.287 393.962C500.3 393.953 500.312 393.944 500.325 393.935C500.339 393.927 500.351 393.917 500.364 393.909C500.377 393.9 500.39 393.891 500.403 393.882C500.416 393.874 500.428 393.865 500.442 393.857C500.455 393.848 500.468 393.839 500.481 393.832C500.493 393.823 500.507 393.814 500.52 393.806C500.533 393.797 500.546 393.789 500.559 393.781C500.572 393.772 500.585 393.764 500.598 393.755C500.612 393.747 500.625 393.739 500.638 393.73C500.651 393.722 500.664 393.714 500.678 393.706C500.691 393.697 500.705 393.689 500.718 393.681C500.73 393.673 500.744 393.665 500.758 393.657C500.771 393.649 500.785 393.641 500.798 393.633C500.811 393.625 500.824 393.617 500.838 393.609C500.851 393.601 500.865 393.594 500.878 393.586C500.892 393.578 500.906 393.57 500.919 393.563C500.932 393.555 500.945 393.547 500.959 393.54C500.973 393.533 500.986 393.525 501 393.517C501.014 393.509 501.027 393.502 501.041 393.494C501.055 393.487 501.068 393.48 501.082 393.472C501.096 393.465 501.109 393.457 501.123 393.45C501.137 393.442 501.151 393.435 501.164 393.428C501.178 393.421 501.192 393.413 501.206 393.406C501.22 393.399 501.233 393.392 501.247 393.385C501.261 393.377 501.275 393.371 501.289 393.363C501.303 393.356 501.317 393.35 501.331 393.343C501.345 393.336 501.359 393.329 501.372 393.322C501.387 393.315 501.401 393.309 501.415 393.302C501.429 393.295 501.443 393.289 501.457 393.281C501.471 393.275 501.485 393.268 501.499 393.262C501.513 393.254 501.527 393.248 501.541 393.242C501.555 393.235 501.569 393.229 501.584 393.222C501.598 393.215 501.612 393.209 501.626 393.203C501.64 393.196 501.655 393.19 501.669 393.184C501.683 393.177 501.698 393.171 501.712 393.165C501.725 393.159 501.74 393.152 501.755 393.147C501.769 393.14 501.783 393.134 501.797 393.128C501.812 393.121 501.826 393.116 501.841 393.11C501.855 393.104 501.869 393.098 501.884 393.092C501.898 393.086 501.913 393.081 501.927 393.075C501.941 393.068 501.956 393.063 501.97 393.057C501.984 393.05 501.999 393.046 502.013 393.04C502.028 393.034 502.042 393.029 502.057 393.023C502.071 393.017 502.087 393.012 502.101 393.006C502.115 392.999 502.13 392.995 502.145 392.99C502.159 392.985 502.174 392.979 502.188 392.974C502.203 392.97 502.218 392.963 502.233 392.958C502.248 392.954 502.262 392.947 502.277 392.942C502.291 392.938 502.306 392.931 502.32 392.927C502.335 392.922 502.349 392.916 502.364 392.911C502.38 392.906 502.394 392.9 502.409 392.896C502.424 392.891 502.438 392.885 502.453 392.88C502.467 392.875 502.483 392.87 502.498 392.866C502.512 392.861 502.527 392.857 502.542 392.853C502.557 392.848 502.571 392.843 502.586 392.839C502.596 392.837 502.604 392.834 502.613 392.831C502.627 392.826 502.642 392.822 502.657 392.818C502.672 392.813 502.686 392.808 502.701 392.804C502.717 392.799 502.731 392.794 502.746 392.79C502.761 392.785 502.776 392.781 502.791 392.777C502.806 392.772 502.822 392.77 502.837 392.765C502.851 392.761 502.867 392.758 502.881 392.753C502.896 392.749 502.912 392.746 502.927 392.742C502.941 392.737 502.957 392.735 502.972 392.73C502.987 392.725 503.002 392.723 503.017 392.719C503.032 392.714 503.048 392.712 503.063 392.707C503.078 392.702 503.093 392.701 503.108 392.696C503.123 392.692 503.139 392.689 503.154 392.685C503.169 392.683 503.184 392.678 503.199 392.675C503.215 392.673 503.229 392.668 503.245 392.665C503.26 392.662 503.275 392.658 503.29 392.655C503.306 392.653 503.32 392.649 503.336 392.646C503.352 392.643 503.367 392.639 503.382 392.636C503.398 392.634 503.413 392.63 503.428 392.627C503.443 392.624 503.458 392.621 503.474 392.618C503.489 392.615 503.504 392.612 503.519 392.609C503.535 392.607 503.55 392.604 503.565 392.6C503.581 392.598 503.596 392.595 503.611 392.593C503.627 392.589 503.642 392.587 503.658 392.585C503.672 392.582 503.688 392.579 503.703 392.577C503.718 392.574 503.734 392.572 503.749 392.57C503.765 392.567 503.78 392.565 503.796 392.562C503.811 392.559 503.827 392.558 503.842 392.555C503.857 392.553 503.872 392.551 503.888 392.549C503.903 392.547 503.919 392.545 503.934 392.542C503.95 392.541 503.965 392.539 503.98 392.536C503.996 392.534 504.011 392.532 504.027 392.53C504.043 392.529 504.057 392.526 504.073 392.525C504.089 392.523 504.104 392.521 504.12 392.519C504.135 392.517 504.151 392.516 504.166 392.514C504.181 392.513 504.197 392.511 504.212 392.509C504.227 392.508 504.243 392.506 504.259 392.505C504.275 392.503 504.29 392.502 504.305 392.501C504.321 392.499 504.336 392.498 504.352 392.497C504.368 392.496 504.383 392.494 504.399 392.493C504.414 392.491 504.43 392.491 504.445 392.49C504.461 392.488 504.476 392.487 504.492 392.486C504.507 392.485 504.523 392.484 504.538 392.483C504.554 392.482 504.569 392.481 504.585 392.48C504.6 392.479 504.616 392.478 504.632 392.478C504.647 392.477 504.663 392.476 504.678 392.475C504.694 392.474 504.709 392.474 504.725 392.474C504.741 392.473 504.756 392.472 504.771 392.472C504.787 392.471 504.803 392.471 504.818 392.471C504.834 392.47 504.849 392.469 504.865 392.469C504.881 392.469 504.896 392.469 504.912 392.469C504.928 392.469 504.943 392.469 504.959 392.468C504.974 392.468 504.99 392.467 505.005 392.467C505.02 392.467 505.036 392.467 505.052 392.467C505.067 392.468 505.083 392.467 505.098 392.467C505.114 392.467 505.13 392.468 505.145 392.468C505.161 392.468 505.176 392.468 505.192 392.468C505.207 392.469 505.224 392.469 505.238 392.469C505.254 392.47 505.27 392.47 505.286 392.47C505.301 392.471 505.317 392.471 505.332 392.472C505.348 392.473 505.364 392.473 505.379 392.474C505.394 392.474 505.409 392.475 505.425 392.476C505.441 392.477 505.457 392.477 505.472 392.478C505.488 392.479 505.503 392.479 505.519 392.481C505.534 392.481 505.55 392.482 505.565 392.483C505.581 392.484 505.596 392.485 505.612 392.486C505.628 392.487 505.643 392.488 505.658 392.489C505.674 392.49 505.69 392.492 505.705 392.493C505.72 392.494 505.736 392.495 505.751 392.497C505.767 392.498 505.783 392.499 505.798 392.501C505.814 392.502 505.829 392.504 505.845 392.505C505.86 392.507 505.876 392.508 505.891 392.51C505.906 392.511 505.922 392.513 505.938 392.514C505.953 392.516 505.969 392.517 505.984 392.52C505.999 392.521 506.015 392.523 506.031 392.525C506.046 392.527 506.062 392.528 506.077 392.531C506.092 392.533 506.108 392.535 506.123 392.536C506.139 392.539 506.154 392.541 506.169 392.542C506.184 392.545 506.201 392.547 506.216 392.549C506.231 392.551 506.246 392.553 506.262 392.556C506.277 392.558 506.292 392.56 506.308 392.562C506.323 392.565 506.339 392.567 506.354 392.57C506.369 392.572 506.385 392.574 506.4 392.577C506.416 392.58 506.431 392.582 506.446 392.585C506.462 392.588 506.477 392.59 506.493 392.593C506.507 392.595 506.523 392.598 506.539 392.601C506.554 392.604 506.569 392.607 506.585 392.61C506.6 392.612 506.615 392.615 506.63 392.618C506.646 392.621 506.661 392.624 506.676 392.627C506.691 392.63 506.706 392.633 506.722 392.636C506.737 392.639 506.752 392.642 506.768 392.645C506.783 392.649 506.798 392.652 506.813 392.655C506.828 392.659 506.844 392.662 506.859 392.666C506.874 392.669 506.889 392.672 506.905 392.676C506.919 392.679 506.935 392.683 506.95 392.686C506.965 392.69 506.981 392.694 506.995 392.697C507.01 392.701 507.025 392.705 507.041 392.708C507.056 392.711 507.071 392.715 507.086 392.719C507.101 392.723 507.116 392.727 507.131 392.731C507.146 392.735 507.161 392.739 507.177 392.742C507.192 392.746 507.207 392.751 507.222 392.755C507.237 392.759 507.252 392.763 507.267 392.767C507.282 392.771 507.297 392.775 507.312 392.78C507.327 392.783 507.342 392.788 507.357 392.792C507.372 392.797 507.386 392.801 507.402 392.805C507.417 392.81 507.432 392.814 507.446 392.819C507.462 392.823 507.476 392.827 507.491 392.832C507.506 392.837 507.521 392.841 507.536 392.846C507.55 392.851 507.566 392.855 507.581 392.859C507.595 392.865 507.61 392.87 507.624 392.874C507.64 392.879 507.654 392.884 507.669 392.889C507.684 392.894 507.699 392.899 507.713 392.903C507.728 392.909 507.743 392.914 507.757 392.919C507.772 392.924 507.787 392.929 507.801 392.934C507.817 392.939 507.832 392.944 507.845 392.949C507.861 392.955 507.875 392.96 507.89 392.965C507.904 392.971 507.919 392.976 507.934 392.981C507.948 392.987 507.963 392.992 507.977 392.998C507.992 393.003 508.007 393.009 508.021 393.014C508.036 393.02 508.05 393.025 508.065 393.031C508.079 393.036 508.094 393.042 508.108 393.048C508.123 393.053 508.137 393.059 508.152 393.065C508.166 393.071 508.18 393.077 508.195 393.082C508.209 393.089 508.224 393.094 508.238 393.101C508.252 393.106 508.267 393.112 508.282 393.118C508.296 393.124 508.31 393.13 508.324 393.136C508.338 393.143 508.352 393.148 508.367 393.155C508.382 393.161 508.396 393.167 508.41 393.173C508.424 393.179 508.439 393.187 508.453 393.192C508.466 393.199 508.481 393.205 508.496 393.212C508.509 393.218 508.524 393.225 508.538 393.231C508.552 393.237 508.566 393.244 508.58 393.251C508.594 393.257 508.608 393.264 508.622 393.271C508.637 393.277 508.65 393.284 508.665 393.291C508.678 393.298 508.693 393.304 508.707 393.311C508.721 393.318 508.734 393.324 508.748 393.332C508.762 393.338 508.776 393.345 508.791 393.353C508.804 393.359 508.818 393.367 508.832 393.373C508.846 393.381 508.86 393.388 508.874 393.394C508.887 393.402 508.901 393.409 508.915 393.416C508.929 393.423 508.943 393.431 508.956 393.438C508.97 393.445 508.984 393.452 508.998 393.46C509.011 393.467 509.025 393.475 509.038 393.482C509.052 393.49 509.066 393.497 509.079 393.505C509.093 393.512 509.107 393.519 509.12 393.527C509.134 393.535 509.148 393.542 509.161 393.551C509.175 393.558 509.188 393.566 509.202 393.574C509.215 393.581 509.229 393.589 509.242 393.597C509.255 393.604 509.269 393.612 509.282 393.62C509.296 393.628 509.309 393.636 509.323 393.644C509.336 393.652 509.349 393.66 509.363 393.668C509.376 393.676 509.389 393.684 509.402 393.693C509.416 393.701 509.429 393.708 509.442 393.717C509.455 393.725 509.469 393.733 509.482 393.742C509.495 393.75 509.508 393.758 509.521 393.767C509.535 393.775 509.548 393.783 509.561 393.792C509.574 393.8 509.587 393.808 509.6 393.817C509.613 393.825 509.626 393.834 509.639 393.842C509.652 393.851 509.665 393.86 509.678 393.868C509.691 393.877 509.704 393.886 509.717 393.894C509.73 393.903 509.742 393.912 509.756 393.921C509.768 393.929 509.781 393.938 509.794 393.947C509.807 393.956 509.819 393.964 509.832 393.974C509.845 393.983 509.858 393.992 509.87 394.001C509.883 394.01 509.896 394.019 509.909 394.028C509.921 394.036 509.933 394.046 509.946 394.055C509.959 394.064 509.972 394.073 509.984 394.083C509.997 394.091 510.01 394.101 510.022 394.11C510.035 394.12 510.046 394.128 510.06 394.138C510.072 394.148 510.084 394.157 510.097 394.166C510.109 394.176 510.121 394.185 510.134 394.194C510.146 394.204 510.158 394.214 510.171 394.223C510.183 394.233 510.195 394.242 510.207 394.252C510.22 394.261 510.232 394.271 510.244 394.281C510.256 394.291 510.268 394.3 510.281 394.31C510.292 394.32 510.304 394.329 510.317 394.339C510.329 394.349 510.34 394.359 510.353 394.369C510.365 394.379 510.377 394.389 510.389 394.399C510.401 394.408 510.413 394.419 510.425 394.429C510.436 394.438 510.449 394.449 510.46 394.459C510.472 394.469 510.484 394.479 510.496 394.49C510.507 394.5 510.519 394.51 510.531 394.52C510.543 394.53 510.554 394.54 510.566 394.551C510.578 394.561 510.589 394.571 510.601 394.582C510.613 394.592 510.624 394.602 510.636 394.613C510.648 394.624 510.659 394.634 510.67 394.644C510.682 394.655 510.694 394.665 510.705 394.676C510.716 394.687 510.728 394.697 510.739 394.707C510.751 394.718 510.762 394.729 510.773 394.739C510.784 394.75 510.796 394.761 510.807 394.771C510.819 394.782 510.83 394.793 510.841 394.804C510.852 394.814 510.863 394.826 510.874 394.836C510.886 394.847 510.897 394.858 510.908 394.869C510.919 394.88 510.93 394.891 510.941 394.902C510.952 394.913 510.963 394.924 510.974 394.935C510.984 394.946 510.995 394.957 511.007 394.968C511.018 394.98 511.029 394.991 511.039 395.002C511.05 395.013 511.061 395.024 511.072 395.036C511.083 395.046 511.093 395.058 511.104 395.069C511.115 395.08 511.125 395.092 511.136 395.103C511.147 395.114 511.157 395.126 511.168 395.137C511.178 395.149 511.189 395.16 511.2 395.171C511.21 395.183 511.22 395.194 511.231 395.206C511.242 395.218 511.252 395.229 511.262 395.241C511.272 395.252 511.283 395.264 511.293 395.275C511.304 395.288 511.314 395.299 511.325 395.31C511.334 395.323 511.344 395.334 511.355 395.346C511.365 395.357 511.375 395.37 511.385 395.381C511.395 395.393 511.406 395.405 511.416 395.417C511.425 395.428 511.436 395.441 511.446 395.453C511.456 395.465 511.466 395.477 511.475 395.489C511.486 395.501 511.496 395.512 511.506 395.525C511.515 395.536 511.525 395.548 511.534 395.561C511.545 395.573 511.554 395.585 511.564 395.597C511.574 395.609 511.584 395.621 511.593 395.634C511.603 395.646 511.612 395.658 511.622 395.67C511.632 395.683 511.642 395.695 511.651 395.707C511.66 395.72 511.67 395.732 511.679 395.745C511.689 395.757 511.698 395.769 511.707 395.781C511.716 395.794 511.726 395.806 511.735 395.818C511.745 395.831 511.754 395.844 511.763 395.857C511.772 395.869 511.782 395.881 511.791 395.894C511.799 395.907 511.809 395.919 511.819 395.931C511.827 395.944 511.836 395.957 511.845 395.97C511.854 395.983 511.863 395.995 511.872 396.008C511.881 396.021 511.891 396.034 511.899 396.046C511.908 396.059 511.917 396.072 511.925 396.084C511.935 396.097 511.943 396.11 511.952 396.123C511.96 396.136 511.97 396.149 511.978 396.162C511.987 396.174 511.996 396.188 512.004 396.201C512.013 396.213 512.021 396.226 512.03 396.24C512.038 396.253 512.047 396.265 512.055 396.279C512.064 396.292 512.072 396.305 512.081 396.318C512.089 396.331 512.097 396.344 512.105 396.357C512.114 396.371 512.122 396.384 512.13 396.397C512.138 396.41 512.147 396.424 512.155 396.437C512.163 396.45 512.171 396.463 512.179 396.476C512.187 396.49 512.195 396.503 512.204 396.516C512.212 396.529 512.22 396.543 512.227 396.556C512.235 396.57 512.243 396.583 512.251 396.597C512.259 396.611 512.267 396.624 512.275 396.637C512.283 396.651 512.29 396.664 512.298 396.678C512.306 396.691 512.313 396.705 512.321 396.719C512.328 396.732 512.336 396.746 512.343 396.759C512.351 396.773 512.359 396.786 512.366 396.8C512.374 396.813 512.381 396.827 512.389 396.841C512.396 396.855 512.403 396.868 512.41 396.882C512.417 396.896 512.425 396.909 512.432 396.924C512.439 396.937 512.447 396.951 512.454 396.965C512.461 396.979 512.469 396.992 512.475 397.007C512.483 397.021 512.49 397.034 512.496 397.048C512.504 397.062 512.51 397.076 512.518 397.09C512.524 397.104 512.531 397.117 512.538 397.132C512.545 397.146 512.552 397.16 512.559 397.174C512.565 397.188 512.572 397.201 512.579 397.215C512.586 397.229 512.592 397.244 512.599 397.258C512.606 397.272 512.612 397.286 512.619 397.3C512.625 397.314 512.631 397.329 512.638 397.343C512.645 397.357 512.651 397.37 512.657 397.386C512.664 397.4 512.67 397.413 512.676 397.428C512.683 397.442 512.689 397.456 512.695 397.47C512.701 397.485 512.707 397.499 512.714 397.513C512.72 397.527 512.726 397.542 512.732 397.556C512.738 397.57 512.744 397.585 512.75 397.599C512.756 397.614 512.762 397.629 512.768 397.642C512.774 397.657 512.78 397.671 512.786 397.686C512.792 397.7 512.797 397.715 512.803 397.729C512.809 397.744 512.814 397.758 512.82 397.773C512.826 397.787 512.831 397.802 512.837 397.816C512.843 397.831 512.848 397.845 512.854 397.859C512.859 397.875 512.864 397.889 512.87 397.904C512.875 397.918 512.881 397.933 512.886 397.947C512.891 397.962 512.897 397.976 512.902 397.991C512.907 398.006 512.912 398.02 512.918 398.035C512.923 398.05 512.928 398.065 512.933 398.079C512.938 398.094 512.944 398.109 512.948 398.123C512.953 398.138 512.959 398.153 512.963 398.168C512.968 398.183 512.973 398.197 512.978 398.212C512.983 398.227 512.987 398.242 512.993 398.256C512.997 398.272 513.002 398.286 513.007 398.301C513.011 398.316 513.016 398.331 513.021 398.345ZM454.23 428.134L447.658 406.62C445.224 407.333 443.742 408.996 442.849 410.922L447.821 427.201C449.638 428.3 451.8 428.864 454.23 428.134ZM442.141 411.138C442.141 411.138 430.186 405.792 419.779 413.547C419.779 413.547 427.346 412.249 430.859 413.821C437.028 416.582 419.779 413.547 409.64 430C427.242 437.981 439.852 425.825 436.278 431.562C434.242 434.829 427.242 437.981 427.242 437.981C440.206 438.597 447.133 427.483 447.133 427.483L442.141 411.138Z" fill="black"/>
<path d="M822.326 189.528L827.775 183.956L820.102 185.319C812.303 186.703 804.452 187.536 796.57 187.921L796.568 187.921C787.574 188.366 778.516 188.204 769.527 187.513L769.526 187.513C751.502 186.137 733.629 182.829 716.333 177.604C707.691 174.993 699.188 171.87 690.938 168.239C683.689 165.025 676.65 161.434 669.865 157.316L663.183 153.259L666.271 160.44C678.438 188.729 704.023 210.661 736.565 216.696C769.084 222.764 800.819 211.522 822.326 189.528ZM630.539 114.259L630.542 114.265C638.059 131.243 654.358 144.547 669.379 153.66C688.028 164.988 709.124 172.802 730.159 177.887C763.947 186.09 802.064 188.532 836.09 178.783C848.968 175.101 862.478 169.147 872.323 159.236C875.822 155.742 878.921 151.569 881.144 146.812C885.538 137.444 885.779 126.791 882.21 117.183C877.954 105.727 869.541 96.6795 860.371 89.5116C856.5 86.4775 852.591 83.8741 848.768 81.5594L842.185 77.5746L845.168 84.6672C847.464 90.1248 849.252 95.7887 850.551 101.629L850.552 101.634C850.801 102.833 851.044 104 851.259 105.167L851.388 105.867L851.866 106.393C852.754 107.373 853.628 108.39 854.479 109.419C859.693 115.897 864.08 123.622 862.831 131.183L862.83 131.189C862.003 136.272 858.477 140.843 853.934 144.136C844.108 151.257 831.066 154.445 818.763 156.302C783.958 161.549 746.771 156.043 713.434 144.808L713.431 144.807C709.71 143.559 706.025 142.155 702.359 140.699C684.486 133.511 665.482 123.794 654.405 108.379C648.883 100.695 647.269 91.9814 652.616 84.6203L652.62 84.6148C656.342 79.4617 662.639 75.2349 668.655 72.2466L669.302 71.9249L669.678 71.307C673.351 65.2695 677.705 59.6286 682.674 54.4562L688.07 48.8389L680.413 50.2666L680.4 50.269C679.147 50.5025 677.864 50.7418 676.555 51.0159C664.313 53.5635 651.511 57.9967 641.549 66.516C634.198 72.7905 628.48 81.5173 626.993 91.3375L626.993 91.3375L626.992 91.3441C625.822 99.2052 627.43 107.183 630.539 114.259ZM674.958 69.7095L674.952 69.7178L674.946 69.7262C671.203 75.2346 668.021 81.1416 665.486 87.3113C665.273 87.8286 665.045 88.3709 664.808 88.9344C663.469 92.1206 661.845 95.9827 660.988 99.8235C659.972 104.372 659.89 109.466 663.025 113.778C666.207 118.166 670.8 121.189 674.902 123.679L674.903 123.68C704.269 141.482 738.288 150.39 772.23 153.708L772.231 153.708C793.149 155.743 814.749 155.763 835.281 150.098L835.285 150.097C838.99 149.068 843.994 147.397 846.558 143.091C847.869 140.892 848.28 138.437 848.564 136.454L848.565 136.452C853.23 103.705 839.49 68.9903 813.685 48.3327C787.88 27.6755 750.995 21.8698 720.093 33.62C703.732 39.8264 689.401 50.8211 678.743 64.5537C677.393 66.2568 676.151 67.9846 674.958 69.7095ZM859.46 259.599C874.749 256.054 884.268 240.783 880.723 225.49C877.178 210.198 861.911 200.672 846.621 204.216C831.332 207.76 821.813 223.032 825.358 238.325C828.903 253.617 844.171 263.143 859.46 259.599ZM903.952 199.893C913.125 197.767 918.834 188.605 916.708 179.432C914.581 170.259 905.423 164.544 896.251 166.67C887.079 168.797 881.369 177.958 883.495 187.131C885.622 196.305 894.78 202.019 903.952 199.893Z" fill="black" stroke="white" stroke-width="5"/>
</svg>
