<svg width="1119" height="691" viewBox="0 -200 1119 691" fill="none" xmlns="http://www.w3.org/2000/svg">
<path d="M374.499 71.7438C416.257 75.5383 443.077 79.3587 482.831 92.2428C514.563 102.527 555.467 107.006 591.428 113C609.763 116.056 629.346 116.996 647.914 117.641C670.668 118.431 695.354 114.571 717.792 118.801C770.273 128.694 823.407 149.287 865.771 180.943C920.766 222.037 961.147 277.572 965.616 346.224C969.06 399.132 1151.32 475.904 1111.25 510C1050.03 562.083 756.469 550.341 678.411 551.859C631.567 552.77 586.826 559.405 541.969 572.616C501.672 584.484 471.866 604.256 438.543 628.182C409.633 648.94 377.9 666.734 344.267 679.107C314.117 690.2 278.851 689.768 247.073 688.132C200.933 685.757 143.808 679.777 103.338 655.643C69.245 635.312 43.2116 601.639 20.5978 570.553C3.38143 546.887 -12.8483 519.017 4.28837 492.553C14.4879 476.803 27.9796 463.525 37.7028 447.172C50.6658 425.371 61.3455 404.368 71.2498 381.034C98.569 316.671 100.251 245.049 131.449 181.974C143.22 158.176 161.647 138.393 182.233 121.38C205.753 101.942 237.685 80.5422 268.024 72.9041C301.032 64.5941 341.089 68.7079 374.499 71.7438Z" fill="white" stroke="white" stroke-width="3" stroke-linecap="round"/>
<path d="M611.534 412.958C610.706 412.958 610.034 412.286 610.034 411.458C610.034 410.63 610.706 409.958 611.534 409.958C612.363 409.958 613.034 410.63 613.034 411.458C613.034 412.286 612.363 412.958 611.534 412.958Z" fill="black"/>
<path d="M693.495 231.095C693.026 231.778 692.093 231.952 691.41 231.483C690.726 231.014 690.553 230.081 691.022 229.397C691.49 228.714 692.424 228.541 693.107 229.009C693.79 229.478 693.964 230.412 693.495 231.095Z" fill="black"/>
<path d="M465.193 395.259C464.515 395.735 463.58 395.571 463.104 394.893C462.628 394.215 462.792 393.28 463.47 392.804C464.148 392.328 465.083 392.492 465.559 393.17C466.035 393.848 465.871 394.783 465.193 395.259Z" fill="black"/>
<path d="M396.044 144.815C395.054 145.393 393.688 145.194 392.994 144.37C392.299 143.547 392.538 142.411 393.528 141.833C394.518 141.255 395.883 141.454 396.578 142.277C397.272 143.101 397.033 144.237 396.044 144.815Z" fill="black"/>
<path d="M299.044 90.8148C298.054 91.3928 296.688 91.1938 295.994 90.3703C295.299 89.5468 295.538 88.4107 296.528 87.8327C297.518 87.2547 298.883 87.4537 299.578 88.2772C300.272 89.1007 300.033 90.2368 299.044 90.8148Z" fill="black"/>
<path d="M476.175 240.674C475.282 241.195 474.05 241.016 473.423 240.273C472.796 239.53 473.012 238.504 473.905 237.983C474.798 237.461 476.03 237.641 476.657 238.384C477.284 239.127 477.068 240.152 476.175 240.674Z" fill="black"/>
<path d="M737.15 518.757C738.179 518.656 739.224 519.333 739.484 520.27C739.744 521.206 739.12 522.048 738.091 522.15C737.062 522.251 736.017 521.574 735.757 520.637C735.497 519.701 736.121 518.859 737.15 518.757Z" fill="black"/>
<path d="M631.855 573.279C632.811 572.884 634.007 573.231 634.526 574.053C635.045 574.875 634.691 575.86 633.735 576.255C632.779 576.649 631.583 576.303 631.064 575.481C630.545 574.659 630.899 573.673 631.855 573.279Z" fill="black"/>
<path d="M532.499 527.721C533.455 527.326 534.651 527.673 535.17 528.495C535.689 529.317 535.335 530.303 534.379 530.697C533.423 531.091 532.227 530.745 531.708 529.923C531.189 529.101 531.543 528.115 532.499 527.721Z" fill="black"/>
<path d="M595.499 395.721C596.455 395.327 597.651 395.673 598.17 396.495C598.689 397.317 598.335 398.303 597.379 398.697C596.423 399.091 595.227 398.745 594.708 397.923C594.189 397.101 594.543 396.115 595.499 395.721Z" fill="black"/>
<path d="M713.499 343.721C714.455 343.327 715.651 343.673 716.17 344.495C716.689 345.317 716.335 346.303 715.379 346.697C714.423 347.091 713.227 346.745 712.708 345.923C712.189 345.101 712.543 344.115 713.499 343.721Z" fill="black"/>
<path d="M831.499 291.721C832.455 291.327 833.651 291.673 834.17 292.495C834.689 293.317 834.335 294.303 833.379 294.697C832.423 295.091 831.227 294.745 830.708 293.923C830.189 293.101 830.543 292.115 831.499 291.721Z" fill="black"/>
<path d="M672.534 410.958C671.706 410.958 671.034 410.286 671.034 409.458C671.034 408.63 671.706 407.958 672.534 407.958C673.363 407.958 674.034 408.63 674.034 409.458C674.034 410.286 673.363 410.958 672.534 410.958Z" fill="black"/>
<path d="M726.361 179.667C725.892 180.35 724.959 180.524 724.276 180.055C723.593 179.586 723.419 178.653 723.888 177.97C724.356 177.287 725.29 177.113 725.973 177.582C726.656 178.05 726.83 178.984 726.361 179.667Z" fill="black"/>
<path d="M513.973 358.577C513.294 359.053 512.359 358.889 511.883 358.211C511.407 357.533 511.571 356.597 512.249 356.122C512.927 355.646 513.863 355.809 514.339 356.488C514.814 357.166 514.651 358.101 513.973 358.577Z" fill="black"/>
<path d="M588.997 207.69C588.425 208.092 587.635 207.953 587.233 207.381C586.831 206.808 586.969 206.018 587.542 205.616C588.114 205.214 588.905 205.352 589.306 205.925C589.708 206.498 589.57 207.288 588.997 207.69Z" fill="black"/>
<path d="M467.242 100.267C466.253 100.845 464.887 100.646 464.192 99.822C463.498 98.9986 463.737 97.8624 464.727 97.2844C465.716 96.7064 467.082 96.9054 467.776 97.7289C468.471 98.5524 468.232 99.6885 467.242 100.267Z" fill="black"/>
<path d="M370.242 46.2664C369.253 46.8444 367.887 46.6454 367.192 45.822C366.498 44.9985 366.737 43.8624 367.727 43.2844C368.716 42.7064 370.082 42.9054 370.776 43.7288C371.471 44.5523 371.232 45.6884 370.242 46.2664Z" fill="black"/>
<path d="M540.417 200.478C539.524 200.999 538.292 200.82 537.665 200.077C537.039 199.334 537.254 198.309 538.147 197.787C539.04 197.265 540.272 197.445 540.899 198.188C541.526 198.931 541.31 199.956 540.417 200.478Z" fill="black"/>
<path d="M661.998 528.5C663.027 528.398 664.072 529.075 664.331 530.012C664.591 530.949 663.968 531.79 662.938 531.892C661.909 531.993 660.864 531.317 660.605 530.38C660.345 529.443 660.968 528.601 661.998 528.5Z" fill="black"/>
<path d="M562.715 604.302C563.671 603.908 564.866 604.254 565.386 605.076C565.905 605.898 565.551 606.884 564.595 607.278C563.639 607.672 562.443 607.326 561.924 606.504C561.404 605.682 561.759 604.696 562.715 604.302Z" fill="black"/>
<path d="M463.359 558.744C464.315 558.35 465.511 558.696 466.03 559.518C466.549 560.34 466.195 561.326 465.239 561.72C464.283 562.115 463.087 561.768 462.568 560.946C462.049 560.124 462.403 559.138 463.359 558.744Z" fill="black"/>
<path d="M526.359 426.744C527.315 426.35 528.511 426.696 529.03 427.518C529.549 428.34 529.195 429.326 528.239 429.72C527.283 430.115 526.087 429.768 525.568 428.946C525.049 428.124 525.403 427.139 526.359 426.744Z" fill="black"/>
<path d="M644.359 374.744C645.315 374.35 646.511 374.696 647.03 375.518C647.549 376.34 647.195 377.326 646.239 377.72C645.283 378.115 644.087 377.768 643.568 376.946C643.049 376.124 643.403 375.139 644.359 374.744Z" fill="black"/>
<path d="M762.359 322.744C763.315 322.35 764.511 322.696 765.03 323.518C765.549 324.34 765.195 325.326 764.239 325.72C763.283 326.115 762.087 325.768 761.568 324.946C761.049 324.124 761.403 323.138 762.359 322.744Z" fill="black"/>
<path d="M654.534 383.958C653.706 383.958 653.034 383.286 653.034 382.458C653.034 381.63 653.706 380.958 654.534 380.958C655.363 380.958 656.034 381.63 656.034 382.458C656.034 383.286 655.363 383.958 654.534 383.958Z" fill="black"/>
<path d="M693.914 179.231C693.445 179.914 692.512 180.088 691.829 179.619C691.146 179.151 690.972 178.217 691.441 177.534C691.909 176.851 692.843 176.677 693.526 177.146C694.209 177.615 694.383 178.548 693.914 179.231Z" fill="black"/>
<path d="M483.728 346.819C483.05 347.295 482.114 347.131 481.638 346.453C481.162 345.775 481.326 344.839 482.004 344.363C482.682 343.887 483.618 344.051 484.094 344.729C484.57 345.407 484.406 346.343 483.728 346.819Z" fill="black"/>
<path d="M563.455 197.76C562.882 198.161 562.092 198.023 561.69 197.45C561.288 196.878 561.427 196.088 561.999 195.686C562.572 195.284 563.362 195.422 563.764 195.995C564.166 196.568 564.028 197.358 563.455 197.76Z" fill="black"/>
<path d="M423.097 85.9867C422.107 86.5647 420.742 86.3657 420.047 85.5422C419.352 84.7187 419.591 83.5826 420.581 83.0046C421.571 82.4266 422.936 82.6256 423.631 83.4491C424.326 84.2725 424.087 85.4087 423.097 85.9867Z" fill="black"/>
<path d="M326.097 31.9867C325.107 32.5647 323.742 32.3657 323.047 31.5422C322.352 30.7187 322.591 29.5826 323.581 29.0046C324.571 28.4266 325.936 28.6256 326.631 29.4491C327.326 30.2725 327.087 31.4087 326.097 31.9867Z" fill="black"/>
<path d="M500.585 187.593C499.692 188.115 498.46 187.935 497.833 187.192C497.206 186.449 497.422 185.424 498.315 184.902C499.208 184.381 500.44 184.56 501.067 185.303C501.694 186.046 501.478 187.072 500.585 187.593Z" fill="black"/>
<path d="M692.827 556.822C693.857 556.72 694.902 557.397 695.161 558.334C695.421 559.271 694.798 560.113 693.768 560.214C692.739 560.316 691.694 559.639 691.435 558.702C691.175 557.765 691.798 556.924 692.827 556.822Z" fill="black"/>
<path d="M600.408 622.518C601.364 622.124 602.56 622.47 603.079 623.292C603.598 624.114 603.244 625.1 602.288 625.494C601.332 625.889 600.136 625.542 599.617 624.72C599.098 623.898 599.452 622.912 600.408 622.518Z" fill="black"/>
<path d="M501.052 576.96C502.008 576.566 503.204 576.912 503.723 577.734C504.243 578.556 503.888 579.542 502.932 579.936C501.976 580.331 500.781 579.984 500.261 579.162C499.742 578.341 500.096 577.355 501.052 576.96Z" fill="black"/>
<path d="M564.052 444.96C565.008 444.566 566.204 444.912 566.723 445.734C567.243 446.556 566.888 447.542 565.932 447.936C564.976 448.331 563.781 447.984 563.261 447.162C562.742 446.34 563.096 445.355 564.052 444.96Z" fill="black"/>
<path d="M682.052 392.96C683.008 392.566 684.204 392.912 684.723 393.734C685.243 394.556 684.888 395.542 683.932 395.936C682.976 396.331 681.781 395.984 681.261 395.162C680.742 394.34 681.096 393.355 682.052 392.96Z" fill="black"/>
<path d="M800.052 340.96C801.008 340.566 802.204 340.912 802.723 341.734C803.243 342.556 802.888 343.542 801.932 343.936C800.976 344.331 799.781 343.984 799.261 343.162C798.742 342.34 799.096 341.355 800.052 340.96Z" fill="black"/>
<path d="M629.534 371.958C628.706 371.958 628.034 371.286 628.034 370.458C628.034 369.63 628.706 368.958 629.534 368.958C630.363 368.958 631.034 369.63 631.034 370.458C631.034 371.286 630.363 371.958 629.534 371.958Z" fill="black"/>
<path d="M669.874 193.055C669.406 193.738 668.472 193.911 667.789 193.443C667.106 192.974 666.932 192.04 667.401 191.357C667.869 190.674 668.803 190.5 669.486 190.969C670.169 191.438 670.343 192.372 669.874 193.055Z" fill="black"/>
<path d="M456.371 351.359C455.693 351.835 454.758 351.672 454.282 350.993C453.806 350.315 453.97 349.38 454.648 348.904C455.326 348.428 456.261 348.592 456.737 349.27C457.213 349.948 457.049 350.884 456.371 351.359Z" fill="black"/>
<path d="M540.352 201.594C539.779 201.996 538.989 201.858 538.587 201.285C538.185 200.713 538.323 199.923 538.896 199.521C539.469 199.119 540.259 199.257 540.661 199.83C541.063 200.402 540.924 201.192 540.352 201.594Z" fill="black"/>
<path d="M383.167 91.5012C382.177 92.0792 380.812 91.8803 380.117 91.0568C379.422 90.2333 379.661 89.0972 380.651 88.5192C381.641 87.9412 383.006 88.1402 383.701 88.9636C384.396 89.7871 384.157 90.9232 383.167 91.5012Z" fill="black"/>
<path d="M286.167 37.5013C285.177 38.0793 283.812 37.8803 283.117 37.0568C282.422 36.2334 282.661 35.0972 283.651 34.5192C284.641 33.9412 286.006 34.1402 286.701 34.9637C287.396 35.7872 287.157 36.9233 286.167 37.5013Z" fill="black"/>
<path d="M464.556 192.569C463.663 193.09 462.431 192.911 461.804 192.168C461.177 191.425 461.393 190.4 462.286 189.878C463.179 189.357 464.411 189.536 465.038 190.279C465.665 191.022 465.449 192.047 464.556 192.569Z" fill="black"/>
<path d="M727.649 567.325C728.678 567.223 729.723 567.9 729.983 568.837C730.243 569.774 729.619 570.615 728.59 570.717C727.561 570.818 726.516 570.141 726.256 569.205C725.996 568.268 726.62 567.426 727.649 567.325Z" fill="black"/>
<path d="M636.779 622.521C637.735 622.127 638.931 622.473 639.45 623.295C639.969 624.117 639.615 625.103 638.659 625.497C637.703 625.892 636.507 625.545 635.988 624.723C635.469 623.901 635.823 622.915 636.779 622.521Z" fill="black"/>
<path d="M537.423 576.963C538.379 576.569 539.575 576.915 540.094 577.737C540.613 578.559 540.259 579.545 539.303 579.939C538.347 580.334 537.151 579.987 536.632 579.165C536.113 578.344 536.467 577.358 537.423 576.963Z" fill="black"/>
<path d="M600.423 444.963C601.379 444.569 602.575 444.915 603.094 445.737C603.613 446.559 603.259 447.545 602.303 447.939C601.347 448.334 600.151 447.987 599.632 447.165C599.113 446.344 599.467 445.358 600.423 444.963Z" fill="black"/>
<path d="M718.423 392.963C719.379 392.569 720.575 392.915 721.094 393.737C721.613 394.559 721.259 395.545 720.303 395.939C719.347 396.334 718.151 395.987 717.632 395.165C717.113 394.344 717.467 393.358 718.423 392.963Z" fill="black"/>
<path d="M836.423 340.963C837.379 340.569 838.575 340.915 839.094 341.737C839.613 342.559 839.259 343.545 838.303 343.939C837.347 344.334 836.151 343.987 835.632 343.165C835.113 342.344 835.467 341.358 836.423 340.963Z" fill="black"/>
<path d="M640.534 440.958C639.706 440.958 639.034 440.286 639.034 439.458C639.034 438.63 639.706 437.958 640.534 437.958C641.363 437.958 642.034 438.63 642.034 439.458C642.034 440.286 641.363 440.958 640.534 440.958Z" fill="black"/>
<path d="M732.991 223.027C732.522 223.71 731.588 223.884 730.905 223.415C730.222 222.946 730.048 222.012 730.517 221.329C730.986 220.646 731.92 220.472 732.603 220.941C733.286 221.41 733.459 222.344 732.991 223.027Z" fill="black"/>
<path d="M505.016 401.516C504.338 401.992 503.402 401.828 502.926 401.15C502.45 400.472 502.614 399.537 503.292 399.061C503.97 398.585 504.906 398.749 505.382 399.427C505.858 400.105 505.694 401.04 505.016 401.516Z" fill="black"/>
<path d="M581.433 243.953C580.861 244.355 580.071 244.217 579.669 243.644C579.267 243.071 579.405 242.281 579.978 241.879C580.55 241.477 581.34 241.616 581.742 242.188C582.144 242.761 582.006 243.551 581.433 243.953Z" fill="black"/>
<path d="M454.169 152.414C453.179 152.992 451.814 152.793 451.119 151.969C450.424 151.146 450.664 150.01 451.653 149.432C452.643 148.854 454.008 149.053 454.703 149.876C455.398 150.7 455.159 151.836 454.169 152.414Z" fill="black"/>
<path d="M357.169 98.4138C356.179 98.9918 354.814 98.7928 354.119 97.9693C353.424 97.1458 353.664 96.0097 354.653 95.4317C355.643 94.8537 357.008 95.0527 357.703 95.8762C358.398 96.6997 358.159 97.8358 357.169 98.4138Z" fill="black"/>
<path d="M528.621 247.53C527.728 248.052 526.496 247.872 525.869 247.129C525.243 246.386 525.458 245.361 526.351 244.839C527.244 244.318 528.476 244.498 529.103 245.241C529.73 245.984 529.514 247.009 528.621 247.53Z" fill="black"/>
<path d="M692.341 490.654C693.37 490.552 694.415 491.229 694.675 492.166C694.935 493.102 694.311 493.944 693.282 494.046C692.253 494.147 691.208 493.47 690.948 492.534C690.689 491.597 691.312 490.755 692.341 490.654Z" fill="black"/>
<path d="M580.84 559.307C581.796 558.913 582.992 559.259 583.512 560.081C584.031 560.903 583.677 561.889 582.721 562.283C581.765 562.678 580.569 562.331 580.05 561.509C579.53 560.688 579.884 559.702 580.84 559.307Z" fill="black"/>
<path d="M481.485 513.749C482.441 513.355 483.637 513.702 484.156 514.523C484.675 515.345 484.321 516.331 483.365 516.725C482.409 517.12 481.213 516.773 480.694 515.952C480.175 515.13 480.529 514.144 481.485 513.749Z" fill="black"/>
<path d="M544.485 381.749C545.441 381.355 546.637 381.702 547.156 382.523C547.675 383.345 547.321 384.331 546.365 384.725C545.409 385.12 544.213 384.773 543.694 383.951C543.175 383.13 543.529 382.144 544.485 381.749Z" fill="black"/>
<path d="M638.423 253.672C639.379 253.278 640.575 253.624 641.094 254.446C641.613 255.268 641.259 256.254 640.303 256.648C639.347 257.043 638.151 256.696 637.632 255.874C637.113 255.052 637.467 254.066 638.423 253.672Z" fill="black"/>
<path d="M638.423 253.672C639.379 253.278 640.575 253.624 641.094 254.446C641.613 255.268 641.259 256.254 640.303 256.648C639.347 257.043 638.151 256.696 637.632 255.874C637.113 255.052 637.467 254.066 638.423 253.672Z" fill="black"/>
<path d="M700.362 113.148C701.318 112.754 702.513 113.1 703.033 113.922C703.552 114.744 703.198 115.73 702.242 116.124C701.286 116.518 700.09 116.172 699.571 115.35C699.051 114.528 699.406 113.542 700.362 113.148Z" fill="black"/>
<path d="M422.361 388.148C423.317 387.754 424.513 388.1 425.033 388.922C425.552 389.744 425.198 390.73 424.242 391.124C423.286 391.518 422.09 391.172 421.571 390.35C421.051 389.528 421.405 388.542 422.361 388.148Z" fill="black"/>
<path d="M780.485 277.749C781.441 277.355 782.637 277.701 783.156 278.523C783.675 279.345 783.321 280.331 782.365 280.725C781.409 281.12 780.213 280.773 779.694 279.951C779.175 279.13 779.529 278.144 780.485 277.749Z" fill="black"/>
<path d="M842.423 137.225C843.379 136.831 844.575 137.177 845.094 137.999C845.613 138.821 845.259 139.807 844.303 140.201C843.347 140.596 842.151 140.249 841.632 139.427C841.113 138.606 841.467 137.62 842.423 137.225Z" fill="black"/>
<path d="M564.423 412.225C565.379 411.831 566.575 412.177 567.094 412.999C567.613 413.821 567.259 414.807 566.303 415.201C565.347 415.596 564.151 415.249 563.632 414.427C563.113 413.606 563.467 412.62 564.423 412.225Z" fill="black"/>
<path d="M601.534 459.958C600.706 459.958 600.034 459.286 600.034 458.458C600.034 457.63 600.706 456.958 601.534 456.958C602.363 456.958 603.034 457.63 603.034 458.458C603.034 459.286 602.363 459.958 601.534 459.958Z" fill="black"/>
<path d="M663.473 319.434C662.644 319.434 661.973 318.762 661.973 317.934C661.973 317.106 662.644 316.434 663.473 316.434C664.301 316.434 664.973 317.106 664.973 317.934C664.973 318.762 664.301 319.434 663.473 319.434Z" fill="black"/>
<path d="M385.473 594.434C384.644 594.434 383.973 593.762 383.973 592.934C383.973 592.106 384.644 591.434 385.473 591.434C386.301 591.434 386.973 592.106 386.973 592.934C386.973 593.762 386.301 594.434 385.473 594.434Z" fill="black"/>
<path d="M726.59 265.934C726.121 266.617 725.187 266.791 724.504 266.322C723.821 265.853 723.647 264.919 724.116 264.236C724.585 263.553 725.518 263.38 726.202 263.848C726.885 264.317 727.058 265.251 726.59 265.934Z" fill="black"/>
<path d="M788.528 125.41C788.059 126.093 787.126 126.267 786.442 125.798C785.759 125.329 785.586 124.395 786.054 123.712C786.523 123.029 787.457 122.856 788.14 123.324C788.823 123.793 788.997 124.727 788.528 125.41Z" fill="black"/>
<path d="M510.528 400.41C510.059 401.093 509.126 401.267 508.442 400.798C507.759 400.329 507.586 399.395 508.054 398.712C508.523 398.029 509.457 397.856 510.14 398.324C510.823 398.793 510.997 399.727 510.528 400.41Z" fill="black"/>
<path d="M484.01 439.474C483.332 439.949 482.397 439.786 481.921 439.108C481.445 438.43 481.609 437.494 482.287 437.018C482.965 436.542 483.9 436.706 484.376 437.384C484.852 438.062 484.688 438.998 484.01 439.474Z" fill="black"/>
<path d="M545.949 298.949C545.271 299.425 544.335 299.262 543.859 298.583C543.383 297.905 543.547 296.97 544.225 296.494C544.903 296.018 545.839 296.182 546.315 296.86C546.791 297.538 546.627 298.473 545.949 298.949Z" fill="black"/>
<path d="M267.949 573.949C267.271 574.425 266.335 574.262 265.859 573.583C265.383 572.905 265.547 571.97 266.225 571.494C266.903 571.018 267.839 571.182 268.315 571.86C268.791 572.538 268.627 573.474 267.949 573.949Z" fill="black"/>
<path d="M625.632 135.485C625.059 135.887 624.269 135.749 623.867 135.176C623.465 134.603 623.604 133.813 624.176 133.411C624.749 133.009 625.539 133.148 625.941 133.72C626.343 134.293 626.205 135.083 625.632 135.485Z" fill="black"/>
<path d="M347.632 410.485C347.059 410.887 346.269 410.749 345.867 410.176C345.465 409.603 345.604 408.813 346.176 408.411C346.749 408.009 347.539 408.148 347.941 408.72C348.343 409.293 348.204 410.083 347.632 410.485Z" fill="black"/>
<path d="M423.509 198.511C422.519 199.089 421.154 198.89 420.459 198.066C419.764 197.243 420.004 196.107 420.993 195.529C421.983 194.951 423.349 195.15 424.043 195.973C424.738 196.797 424.499 197.933 423.509 198.511Z" fill="black"/>
<path d="M485.447 57.9867C484.458 58.5647 483.092 58.3657 482.398 57.5422C481.703 56.7187 481.942 55.5826 482.932 55.0046C483.921 54.4266 485.287 54.6256 485.982 55.4491C486.676 56.2725 486.437 57.4087 485.447 57.9867Z" fill="black"/>
<path d="M207.447 332.987C206.458 333.565 205.092 333.366 204.398 332.542C203.703 331.719 203.942 330.583 204.932 330.005C205.921 329.427 207.287 329.626 207.982 330.449C208.676 331.273 208.437 332.409 207.447 332.987Z" fill="black"/>
<path d="M326.509 144.511C325.519 145.089 324.154 144.89 323.459 144.066C322.764 143.243 323.004 142.107 323.993 141.529C324.983 140.951 326.349 141.15 327.043 141.973C327.738 142.797 327.499 143.933 326.509 144.511Z" fill="black"/>
<path d="M388.447 3.98666C387.458 4.56466 386.092 4.36566 385.398 3.54219C384.703 2.71872 384.942 1.5826 385.932 1.0046C386.921 0.426597 388.287 0.625591 388.982 1.44906C389.676 2.27254 389.437 3.40865 388.447 3.98666Z" fill="black"/>
<path d="M110.447 278.987C109.458 279.565 108.092 279.366 107.398 278.542C106.703 277.719 106.942 276.583 107.932 276.005C108.921 275.427 110.287 275.626 110.982 276.449C111.676 277.273 111.437 278.409 110.447 278.987Z" fill="black"/>
<path d="M500.957 289.123C500.064 289.645 498.832 289.465 498.205 288.722C497.578 287.979 497.794 286.954 498.687 286.433C499.58 285.911 500.812 286.091 501.439 286.834C502.066 287.577 501.85 288.602 500.957 289.123Z" fill="black"/>
<path d="M734.831 464.387C735.86 464.285 736.905 464.962 737.165 465.899C737.425 466.836 736.801 467.677 735.772 467.779C734.743 467.881 733.698 467.204 733.438 466.267C733.178 465.33 733.802 464.488 734.831 464.387Z" fill="black"/>
<path d="M613.938 521.893C614.894 521.498 616.09 521.845 616.609 522.667C617.129 523.488 616.774 524.474 615.818 524.869C614.862 525.263 613.667 524.917 613.147 524.095C612.628 523.273 612.982 522.287 613.938 521.893Z" fill="black"/>
<path d="M514.582 476.335C515.538 475.94 516.734 476.287 517.254 477.109C517.773 477.931 517.419 478.916 516.463 479.311C515.507 479.705 514.311 479.359 513.792 478.537C513.272 477.715 513.626 476.729 514.582 476.335Z" fill="black"/>
<path d="M577.582 344.335C578.538 343.94 579.734 344.287 580.254 345.109C580.773 345.931 580.419 346.917 579.463 347.311C578.507 347.705 577.311 347.359 576.792 346.537C576.272 345.715 576.626 344.729 577.582 344.335Z" fill="black"/>
<path d="M695.582 292.335C696.538 291.94 697.734 292.287 698.254 293.109C698.773 293.931 698.419 294.917 697.463 295.311C696.507 295.705 695.311 295.359 694.792 294.537C694.272 293.715 694.626 292.729 695.582 292.335Z" fill="black"/>
<path d="M813.582 240.335C814.538 239.94 815.734 240.287 816.254 241.109C816.773 241.931 816.419 242.917 815.463 243.311C814.507 243.705 813.311 243.359 812.792 242.537C812.272 241.715 812.626 240.729 813.582 240.335Z" fill="black"/>
<path d="M580.534 501.958C579.706 501.958 579.034 501.286 579.034 500.458C579.034 499.63 579.706 498.958 580.534 498.958C581.363 498.958 582.034 499.63 582.034 500.458C582.034 501.286 581.363 501.958 580.534 501.958Z" fill="black"/>
<path d="M749.337 307.014C748.869 307.697 747.935 307.87 747.252 307.402C746.569 306.933 746.395 305.999 746.864 305.316C747.333 304.633 748.266 304.459 748.949 304.928C749.632 305.397 749.806 306.33 749.337 307.014Z" fill="black"/>
<path d="M490.951 485.915C490.273 486.391 489.338 486.227 488.862 485.549C488.386 484.871 488.55 483.936 489.228 483.46C489.906 482.984 490.841 483.148 491.317 483.826C491.793 484.504 491.629 485.439 490.951 485.915Z" fill="black"/>
<path d="M569.555 315.23C568.983 315.632 568.193 315.494 567.791 314.921C567.389 314.349 567.527 313.558 568.1 313.157C568.672 312.755 569.462 312.893 569.864 313.466C570.266 314.038 570.128 314.828 569.555 315.23Z" fill="black"/>
<path d="M433.64 254.911C432.65 255.489 431.285 255.29 430.59 254.467C429.896 253.644 430.135 252.507 431.124 251.929C432.114 251.351 433.48 251.55 434.174 252.374C434.869 253.197 434.63 254.333 433.64 254.911Z" fill="black"/>
<path d="M336.64 200.911C335.65 201.489 334.285 201.29 333.59 200.467C332.896 199.644 333.135 198.507 334.124 197.929C335.114 197.351 336.48 197.55 337.174 198.374C337.869 199.197 337.63 200.333 336.64 200.911Z" fill="black"/>
<path d="M510.098 340.014C509.205 340.535 507.973 340.356 507.346 339.613C506.719 338.87 506.935 337.845 507.828 337.323C508.721 336.801 509.953 336.981 510.58 337.724C511.207 338.467 510.991 339.492 510.098 340.014Z" fill="black"/>
<path d="M747.746 414.321C748.775 414.219 749.82 414.896 750.08 415.833C750.339 416.77 749.716 417.611 748.687 417.713C747.657 417.815 746.613 417.138 746.353 416.201C746.093 415.264 746.716 414.422 747.746 414.321Z" fill="black"/>
<path d="M611.85 470.23C612.806 469.836 614.001 470.182 614.521 471.004C615.04 471.826 614.686 472.812 613.73 473.206C612.774 473.601 611.578 473.254 611.059 472.432C610.539 471.61 610.894 470.624 611.85 470.23Z" fill="black"/>
<path d="M512.494 424.672C513.45 424.278 514.646 424.624 515.165 425.446C515.684 426.268 515.33 427.254 514.374 427.648C513.418 428.043 512.222 427.696 511.703 426.874C511.184 426.052 511.538 425.066 512.494 424.672Z" fill="black"/>
<path d="M575.494 292.672C576.45 292.278 577.646 292.624 578.165 293.446C578.684 294.268 578.33 295.254 577.374 295.648C576.418 296.043 575.222 295.696 574.703 294.874C574.184 294.052 574.538 293.066 575.494 292.672Z" fill="black"/>
<path d="M693.494 240.672C694.45 240.278 695.646 240.624 696.165 241.446C696.684 242.268 696.33 243.254 695.374 243.648C694.418 244.043 693.222 243.696 692.703 242.874C692.184 242.052 692.538 241.066 693.494 240.672Z" fill="black"/>
<path d="M820.162 190.874C821.118 190.48 822.314 190.826 822.833 191.648C823.353 192.47 822.998 193.456 822.042 193.85C821.086 194.245 819.891 193.898 819.371 193.076C818.852 192.255 819.206 191.269 820.162 190.874Z" fill="black"/>
<path d="M355.998 330.667C355.998 330.667 353.644 328.575 347.767 327.889L350.469 338.475C355.023 333.977 355.998 330.667 355.998 330.667ZM347.025 327.729C340.306 326.944 329.301 327.871 312.495 335.033C311.955 335.248 311.456 335.456 310.995 335.657C310.535 335.858 310.112 336.051 309.727 336.234C309.342 336.418 308.993 336.591 308.68 336.753C308.367 336.915 308.089 337.066 307.845 337.203C307.6 337.34 307.39 337.464 307.212 337.572C307.033 337.681 306.887 337.774 306.771 337.85C306.539 338.002 306.43 338.086 306.43 338.086C306.43 338.086 306.445 338.059 306.499 337.996C306.553 337.934 306.646 337.835 306.802 337.694C306.88 337.623 306.973 337.541 307.085 337.447C307.198 337.353 307.328 337.247 307.481 337.129C307.634 337.01 307.808 336.878 308.006 336.732C308.205 336.586 308.429 336.426 308.68 336.251C308.931 336.076 309.191 335.905 309.452 335.739C309.714 335.574 309.978 335.414 310.239 335.261C310.499 335.109 310.756 334.964 311.003 334.828C311.1 334.775 311.187 334.73 311.28 334.679L294.926 329.91L290.71 331.379L302.004 341.822L305.997 357.464L301.507 373.676L305.721 372.199L317.009 357.247C316.905 357.268 316.81 357.289 316.702 357.31C316.434 357.363 316.153 357.414 315.865 357.461C315.579 357.509 315.285 357.553 314.991 357.591C314.696 357.629 314.401 357.66 314.111 357.683C313.821 357.705 313.562 357.722 313.329 357.734C313.096 357.746 312.89 357.753 312.708 357.756C312.526 357.76 312.368 357.76 312.232 357.757C312.095 357.754 311.979 357.748 311.881 357.741C311.686 357.728 311.563 357.709 311.489 357.693C311.415 357.677 311.39 357.665 311.39 357.665C311.39 357.665 311.52 357.661 311.783 357.632C311.914 357.618 312.079 357.598 312.278 357.568C312.476 357.539 312.708 357.501 312.975 357.452C313.241 357.402 313.542 357.342 313.877 357.267C314.212 357.192 314.583 357.103 314.988 356.997C315.393 356.891 315.832 356.769 316.308 356.628C316.784 356.486 317.295 356.325 317.842 356.143C335.149 350.846 344.719 344.25 349.929 339.104L347.025 327.729ZM336.762 337.652C336.764 337.657 336.766 337.662 336.767 337.668C336.77 337.678 336.772 337.687 336.774 337.697C336.776 337.707 336.779 337.716 336.781 337.726C336.784 337.736 336.786 337.745 336.788 337.754C336.791 337.764 336.793 337.774 336.795 337.783C336.797 337.793 336.8 337.803 336.802 337.812C336.804 337.822 336.806 337.832 336.808 337.841C336.81 337.851 336.812 337.861 336.815 337.87C336.817 337.88 336.819 337.89 336.821 337.899C336.823 337.909 336.825 337.918 336.827 337.928C336.829 337.938 336.831 337.948 336.833 337.958C336.835 337.967 336.837 337.977 336.839 337.987C336.841 337.996 336.843 338.006 336.845 338.016C336.847 338.025 336.849 338.035 336.851 338.045C336.852 338.055 336.854 338.065 336.856 338.074C336.858 338.084 336.86 338.094 336.861 338.104C336.863 338.114 336.865 338.123 336.867 338.133C336.868 338.143 336.87 338.153 336.872 338.162C336.873 338.172 336.875 338.182 336.877 338.192C336.878 338.202 336.88 338.212 336.881 338.221C336.883 338.231 336.884 338.241 336.886 338.251C336.888 338.261 336.889 338.271 336.891 338.28C336.892 338.29 336.893 338.3 336.895 338.31C336.896 338.32 336.898 338.33 336.899 338.34C336.9 338.35 336.902 338.359 336.903 338.369C336.905 338.379 336.906 338.389 336.907 338.399C336.909 338.409 336.91 338.419 336.911 338.428C336.912 338.438 336.914 338.448 336.915 338.458C336.916 338.468 336.917 338.478 336.918 338.488C336.92 338.498 336.921 338.508 336.922 338.518C336.923 338.527 336.924 338.538 336.925 338.547C336.926 338.558 336.927 338.567 336.928 338.577C336.929 338.587 336.93 338.597 336.931 338.607C336.932 338.617 336.933 338.627 336.934 338.637C336.935 338.647 336.936 338.657 336.937 338.667C336.938 338.677 336.939 338.687 336.939 338.696C336.94 338.706 336.941 338.716 336.942 338.727C336.942 338.736 336.943 338.746 336.944 338.756C336.945 338.766 336.946 338.776 336.947 338.786C336.947 338.796 336.948 338.806 336.948 338.816C336.949 338.826 336.95 338.836 336.95 338.846C336.951 338.856 336.951 338.866 336.952 338.876C336.953 338.886 336.953 338.896 336.953 338.906C336.954 338.916 336.954 338.926 336.955 338.936C336.955 338.946 336.956 338.956 336.956 338.966C336.957 338.976 336.957 338.986 336.958 338.996C336.958 339.006 336.958 339.016 336.959 339.026C336.959 339.036 336.959 339.046 336.959 339.056C336.96 339.066 336.96 339.076 336.96 339.086C336.96 339.096 336.961 339.106 336.961 339.116C336.961 339.126 336.961 339.136 336.961 339.146C336.961 339.156 336.961 339.166 336.962 339.176C336.962 339.186 336.962 339.196 336.962 339.206C336.962 339.216 336.962 339.226 336.962 339.236C336.962 339.246 336.962 339.256 336.962 339.266C336.962 339.276 336.962 339.286 336.962 339.296C336.962 339.306 336.962 339.316 336.961 339.326C336.961 339.336 336.961 339.346 336.961 339.356C336.961 339.366 336.96 339.376 336.96 339.386C336.96 339.396 336.96 339.406 336.959 339.416C336.959 339.426 336.959 339.436 336.958 339.446C336.958 339.456 336.958 339.466 336.957 339.476C336.957 339.486 336.957 339.496 336.956 339.506C336.956 339.516 336.955 339.526 336.955 339.536C336.955 339.546 336.954 339.556 336.953 339.566C336.953 339.576 336.952 339.586 336.952 339.595C336.951 339.606 336.95 339.616 336.95 339.626C336.949 339.636 336.949 339.646 336.948 339.656C336.947 339.665 336.947 339.676 336.946 339.686C336.946 339.695 336.945 339.706 336.944 339.716C336.943 339.725 336.943 339.736 336.942 339.745C336.941 339.755 336.94 339.765 336.939 339.775C336.938 339.785 336.937 339.795 336.937 339.805C336.936 339.815 336.935 339.825 336.934 339.835C336.933 339.845 336.932 339.855 336.931 339.865C336.93 339.875 336.929 339.885 336.928 339.894C336.927 339.905 336.926 339.915 336.925 339.924C336.924 339.934 336.922 339.944 336.921 339.954C336.92 339.964 336.919 339.974 336.918 339.984C336.917 339.994 336.916 340.004 336.915 340.014C336.913 340.024 336.912 340.034 336.911 340.043C336.909 340.053 336.908 340.063 336.907 340.073C336.906 340.083 336.904 340.093 336.903 340.103C336.901 340.113 336.9 340.122 336.899 340.132C336.897 340.142 336.896 340.152 336.894 340.162C336.893 340.171 336.892 340.182 336.89 340.192C336.888 340.202 336.887 340.211 336.886 340.221C336.884 340.23 336.882 340.24 336.881 340.25C336.879 340.26 336.878 340.27 336.876 340.28C336.874 340.289 336.873 340.299 336.871 340.309C336.869 340.319 336.868 340.329 336.866 340.339C336.864 340.349 336.863 340.358 336.861 340.368C336.859 340.378 336.857 340.387 336.855 340.397C336.854 340.407 336.852 340.416 336.85 340.427C336.848 340.436 336.846 340.446 336.844 340.456C336.842 340.466 336.84 340.475 336.838 340.485C336.836 340.495 336.835 340.504 336.832 340.514C336.83 340.524 336.828 340.534 336.826 340.544C336.824 340.553 336.822 340.563 336.82 340.572C336.818 340.582 336.816 340.592 336.814 340.602C336.812 340.611 336.81 340.621 336.807 340.63C336.805 340.64 336.803 340.65 336.801 340.659C336.799 340.669 336.796 340.679 336.794 340.688C336.792 340.698 336.79 340.708 336.787 340.717C336.785 340.727 336.782 340.736 336.78 340.746C336.778 340.756 336.775 340.765 336.773 340.775C336.771 340.784 336.768 340.794 336.766 340.804C336.763 340.813 336.761 340.823 336.758 340.832C336.756 340.842 336.753 340.851 336.751 340.861C336.748 340.87 336.746 340.88 336.743 340.889C336.741 340.899 336.738 340.908 336.735 340.918C336.733 340.928 336.73 340.937 336.727 340.946C336.725 340.956 336.722 340.966 336.719 340.975C336.717 340.984 336.714 340.994 336.711 341.003C336.708 341.013 336.705 341.022 336.703 341.031C336.7 341.041 336.697 341.05 336.694 341.06C336.691 341.069 336.688 341.078 336.685 341.088C336.682 341.097 336.68 341.107 336.677 341.116C336.674 341.125 336.671 341.135 336.668 341.144C336.665 341.153 336.662 341.163 336.659 341.172C336.656 341.181 336.653 341.191 336.65 341.2C336.647 341.209 336.644 341.218 336.64 341.228C336.637 341.237 336.634 341.247 336.631 341.256C336.628 341.265 336.625 341.274 336.621 341.284C336.619 341.293 336.615 341.302 336.612 341.311C336.609 341.321 336.606 341.33 336.602 341.339C336.599 341.348 336.596 341.357 336.592 341.367C336.589 341.376 336.586 341.385 336.582 341.394C336.579 341.403 336.575 341.412 336.572 341.422C336.569 341.431 336.565 341.44 336.562 341.449C336.558 341.458 336.555 341.467 336.551 341.476C336.548 341.485 336.544 341.495 336.541 341.503C336.537 341.512 336.534 341.522 336.53 341.531C336.526 341.54 336.523 341.549 336.519 341.558C336.516 341.567 336.512 341.576 336.508 341.584C336.505 341.594 336.501 341.602 336.497 341.612C336.493 341.621 336.49 341.63 336.486 341.639C336.482 341.647 336.479 341.657 336.475 341.666C336.471 341.674 336.467 341.683 336.463 341.692C336.459 341.701 336.455 341.71 336.451 341.719C336.448 341.727 336.444 341.736 336.44 341.745C336.436 341.754 336.432 341.763 336.428 341.772C336.424 341.781 336.42 341.789 336.416 341.798C336.412 341.807 336.408 341.816 336.404 341.824C336.4 341.833 336.396 341.842 336.392 341.851C336.388 341.86 336.384 341.868 336.38 341.877C336.376 341.885 336.372 341.894 336.367 341.903C336.363 341.912 336.359 341.92 336.355 341.929C336.35 341.938 336.346 341.946 336.342 341.955C336.338 341.963 336.334 341.972 336.329 341.981C336.325 341.989 336.321 341.998 336.316 342.007C336.312 342.015 336.307 342.024 336.303 342.032C336.299 342.041 336.294 342.049 336.29 342.058C336.286 342.066 336.281 342.074 336.277 342.083C336.272 342.092 336.268 342.1 336.264 342.108C336.259 342.117 336.255 342.125 336.25 342.134C336.245 342.143 336.241 342.151 336.236 342.159C336.232 342.167 336.227 342.176 336.223 342.184C336.218 342.193 336.214 342.201 336.209 342.209C336.204 342.217 336.2 342.226 336.195 342.234C336.19 342.242 336.185 342.251 336.18 342.259C336.176 342.267 336.171 342.276 336.166 342.283C336.162 342.292 336.157 342.3 336.152 342.308C336.147 342.316 336.143 342.325 336.138 342.333C336.133 342.341 336.128 342.349 336.123 342.358C336.118 342.365 336.114 342.373 336.108 342.382C336.104 342.389 336.099 342.398 336.094 342.406C336.089 342.414 336.084 342.422 336.079 342.43C336.074 342.438 336.069 342.446 336.064 342.454C336.059 342.462 336.054 342.47 336.049 342.478C336.043 342.486 336.038 342.494 336.033 342.502C336.028 342.51 336.023 342.518 336.018 342.526C336.013 342.534 336.008 342.541 336.003 342.549C335.997 342.557 335.992 342.565 335.987 342.573C335.982 342.581 335.976 342.588 335.971 342.596C335.966 342.604 335.961 342.612 335.956 342.62C335.95 342.627 335.945 342.635 335.94 342.643C335.934 342.65 335.929 342.658 335.924 342.666C335.918 342.674 335.913 342.681 335.908 342.689C335.902 342.697 335.897 342.704 335.891 342.712C335.886 342.72 335.881 342.727 335.875 342.734C335.87 342.742 335.864 342.75 335.858 342.757C335.853 342.765 335.847 342.772 335.842 342.78C335.837 342.787 335.831 342.795 335.825 342.802C335.82 342.81 335.814 342.817 335.809 342.825C335.803 342.832 335.797 342.84 335.792 342.847C335.786 342.855 335.78 342.862 335.775 342.869C335.769 342.876 335.764 342.884 335.758 342.891C335.752 342.898 335.746 342.906 335.741 342.913C335.735 342.92 335.729 342.928 335.723 342.935C335.718 342.942 335.712 342.949 335.706 342.957C335.7 342.964 335.694 342.971 335.688 342.978C335.683 342.985 335.677 342.993 335.671 342.999C335.665 343.006 335.659 343.014 335.653 343.021C335.647 343.028 335.641 343.035 335.635 343.042C335.629 343.049 335.623 343.056 335.618 343.063C335.612 343.07 335.606 343.077 335.6 343.084C335.594 343.091 335.587 343.098 335.582 343.105C335.576 343.112 335.569 343.119 335.563 343.125C335.557 343.132 335.551 343.14 335.545 343.146C335.539 343.153 335.533 343.16 335.527 343.166C335.52 343.174 335.515 343.18 335.508 343.187C335.502 343.194 335.496 343.2 335.49 343.207C335.484 343.214 335.477 343.22 335.471 343.227C335.465 343.234 335.459 343.241 335.452 343.247C335.446 343.254 335.44 343.26 335.433 343.267C335.427 343.273 335.421 343.28 335.415 343.286C335.408 343.293 335.402 343.3 335.395 343.306C335.389 343.313 335.383 343.319 335.376 343.326C335.37 343.332 335.364 343.339 335.357 343.345C335.351 343.351 335.344 343.358 335.338 343.364C335.332 343.371 335.325 343.377 335.319 343.383C335.312 343.39 335.306 343.396 335.299 343.402C335.293 343.409 335.286 343.415 335.28 343.421C335.273 343.427 335.266 343.434 335.26 343.44C335.253 343.446 335.247 343.452 335.241 343.459C335.234 343.465 335.227 343.471 335.22 343.477C335.214 343.483 335.207 343.489 335.201 343.495C335.194 343.501 335.187 343.507 335.181 343.513C335.174 343.519 335.167 343.525 335.161 343.531C335.154 343.537 335.147 343.543 335.14 343.549C335.134 343.555 335.127 343.561 335.12 343.567C335.113 343.573 335.106 343.579 335.1 343.585C335.093 343.59 335.086 343.596 335.079 343.602C335.072 343.608 335.066 343.614 335.059 343.62C335.052 343.625 335.045 343.631 335.038 343.636C335.032 343.642 335.025 343.648 335.018 343.654C335.011 343.659 335.004 343.665 334.997 343.671C334.99 343.676 334.983 343.682 334.976 343.687C334.969 343.693 334.962 343.699 334.955 343.704C334.948 343.71 334.941 343.715 334.934 343.721C334.928 343.726 334.92 343.732 334.913 343.737C334.907 343.743 334.899 343.748 334.892 343.753C334.885 343.759 334.878 343.764 334.871 343.769C334.864 343.775 334.857 343.78 334.85 343.786C334.843 343.791 334.836 343.796 334.828 343.801C334.821 343.807 334.814 343.812 334.807 343.817C334.8 343.822 334.793 343.827 334.786 343.832C334.779 343.838 334.772 343.843 334.764 343.848C334.757 343.853 334.75 343.858 334.742 343.863C334.735 343.868 334.728 343.873 334.721 343.878C334.714 343.883 334.706 343.888 334.699 343.893C334.692 343.898 334.685 343.903 334.677 343.908C334.67 343.913 334.663 343.917 334.655 343.923C334.648 343.927 334.641 343.932 334.633 343.937C334.626 343.942 334.619 343.946 334.611 343.951C334.604 343.956 334.596 343.961 334.589 343.966C334.582 343.97 334.574 343.975 334.567 343.98C334.56 343.984 334.552 343.989 334.545 343.994C334.537 343.998 334.53 344.003 334.522 344.007C334.515 344.012 334.507 344.017 334.5 344.021C334.493 344.026 334.485 344.03 334.478 344.035C334.47 344.039 334.462 344.043 334.455 344.048C334.448 344.052 334.44 344.056 334.433 344.061C334.425 344.065 334.417 344.069 334.41 344.074C334.402 344.078 334.395 344.082 334.387 344.086C334.379 344.091 334.372 344.095 334.365 344.099C334.357 344.103 334.349 344.108 334.342 344.112C334.334 344.116 334.327 344.12 334.319 344.124C334.311 344.129 334.303 344.132 334.296 344.137C334.288 344.141 334.281 344.145 334.273 344.149C334.265 344.153 334.258 344.157 334.25 344.161C334.242 344.165 334.234 344.168 334.227 344.173C334.219 344.177 334.211 344.18 334.204 344.184C334.196 344.188 334.188 344.192 334.181 344.196C334.173 344.2 334.165 344.203 334.157 344.207C334.15 344.211 334.142 344.214 334.134 344.218C334.127 344.222 334.119 344.226 334.111 344.229C334.103 344.233 334.095 344.236 334.087 344.24C334.08 344.244 334.072 344.247 334.064 344.251C334.056 344.255 334.048 344.258 334.04 344.261C334.032 344.264 334.025 344.268 334.017 344.272C334.009 344.275 334.001 344.279 333.993 344.282C333.985 344.285 333.977 344.289 333.969 344.292C333.962 344.294 333.954 344.299 333.946 344.302C333.938 344.305 333.93 344.309 333.922 344.312C333.914 344.315 333.907 344.319 333.899 344.322C333.891 344.325 333.883 344.329 333.875 344.332C333.867 344.335 333.859 344.338 333.851 344.341C333.843 344.344 333.835 344.347 333.827 344.35C333.819 344.352 333.811 344.355 333.803 344.358C333.798 344.36 333.794 344.362 333.789 344.363C333.781 344.366 333.773 344.369 333.765 344.372C333.757 344.375 333.749 344.378 333.741 344.381C333.733 344.384 333.725 344.387 333.717 344.39C333.709 344.393 333.701 344.395 333.693 344.398C333.685 344.401 333.677 344.403 333.669 344.406C333.661 344.409 333.652 344.41 333.645 344.413C333.637 344.416 333.628 344.418 333.62 344.421C333.612 344.424 333.604 344.425 333.596 344.428C333.588 344.431 333.58 344.433 333.572 344.436C333.564 344.439 333.555 344.44 333.547 344.443C333.539 344.446 333.531 344.447 333.523 344.45C333.515 344.453 333.506 344.454 333.498 344.457C333.49 344.459 333.482 344.462 333.474 344.464C333.466 344.465 333.458 344.468 333.45 344.47C333.441 344.472 333.433 344.475 333.425 344.477C333.417 344.478 333.409 344.481 333.4 344.483C333.392 344.484 333.384 344.487 333.376 344.489C333.367 344.49 333.359 344.493 333.351 344.495C333.343 344.496 333.335 344.499 333.326 344.5C333.318 344.502 333.31 344.504 333.302 344.506C333.294 344.507 333.285 344.51 333.277 344.512C333.269 344.513 333.261 344.515 333.252 344.517C333.244 344.518 333.236 344.52 333.228 344.522C333.219 344.524 333.211 344.525 333.203 344.527C333.195 344.529 333.187 344.53 333.178 344.531C333.17 344.533 333.162 344.535 333.153 344.536C333.145 344.537 333.137 344.539 333.128 344.54C333.12 344.542 333.112 344.543 333.104 344.544C333.096 344.546 333.087 344.548 333.079 344.549C333.071 344.55 333.062 344.552 333.054 344.553C333.046 344.554 333.037 344.555 333.029 344.556C333.021 344.558 333.012 344.559 333.004 344.56C332.996 344.562 332.988 344.563 332.98 344.564C332.971 344.565 332.963 344.566 332.954 344.567C332.946 344.568 332.938 344.569 332.929 344.57C332.921 344.571 332.913 344.572 332.905 344.573C332.896 344.574 332.888 344.575 332.88 344.576C332.871 344.577 332.863 344.578 332.855 344.578C332.846 344.579 332.838 344.58 332.83 344.581C332.821 344.582 332.813 344.582 332.804 344.583C332.796 344.584 332.788 344.584 332.779 344.585C332.771 344.586 332.763 344.586 332.755 344.587C332.746 344.588 332.737 344.588 332.729 344.589C332.721 344.589 332.713 344.59 332.704 344.591C332.696 344.591 332.687 344.591 332.679 344.592C332.671 344.592 332.662 344.593 332.654 344.593C332.646 344.594 332.638 344.594 332.629 344.594C332.621 344.594 332.612 344.595 332.604 344.595C332.596 344.596 332.587 344.596 332.579 344.596C332.571 344.596 332.562 344.596 332.554 344.597C332.545 344.597 332.537 344.597 332.529 344.597C332.52 344.597 332.512 344.597 332.504 344.597C332.495 344.597 332.487 344.597 332.479 344.597C332.47 344.597 332.462 344.597 332.454 344.597C332.445 344.597 332.437 344.597 332.428 344.597C332.42 344.597 332.412 344.596 332.403 344.596C332.395 344.597 332.387 344.596 332.378 344.596C332.37 344.596 332.362 344.595 332.353 344.595C332.345 344.595 332.336 344.595 332.328 344.594C332.32 344.594 332.312 344.593 332.303 344.593C332.294 344.593 332.286 344.592 332.278 344.592C332.27 344.591 332.261 344.591 332.253 344.59C332.244 344.59 332.236 344.589 332.228 344.589C332.219 344.588 332.211 344.588 332.203 344.587C332.195 344.587 332.186 344.586 332.178 344.585C332.169 344.584 332.161 344.584 332.153 344.583C332.144 344.582 332.136 344.582 332.128 344.581C332.119 344.58 332.111 344.579 332.103 344.579C332.094 344.578 332.086 344.577 332.078 344.576C332.069 344.575 332.061 344.574 332.053 344.573C332.045 344.572 332.036 344.571 332.028 344.57C332.019 344.569 332.011 344.568 332.003 344.567C331.994 344.566 331.986 344.565 331.978 344.563C331.97 344.562 331.961 344.561 331.953 344.56C331.945 344.559 331.936 344.558 331.928 344.557C331.92 344.555 331.911 344.554 331.903 344.553C331.895 344.551 331.887 344.55 331.878 344.549C331.87 344.548 331.862 344.546 331.853 344.545C331.845 344.543 331.837 344.542 331.829 344.541C331.82 344.539 331.812 344.537 331.804 344.536C331.796 344.534 331.787 344.533 331.779 344.531C331.771 344.53 331.763 344.529 331.754 344.527C331.746 344.525 331.738 344.523 331.729 344.522C331.721 344.52 331.713 344.519 331.705 344.517C331.696 344.515 331.688 344.513 331.68 344.511C331.672 344.51 331.663 344.508 331.655 344.506C331.647 344.504 331.639 344.503 331.63 344.501C331.623 344.499 331.614 344.497 331.606 344.495C331.598 344.493 331.59 344.491 331.582 344.489C331.573 344.487 331.565 344.484 331.557 344.482C331.549 344.48 331.541 344.478 331.532 344.476C331.524 344.474 331.516 344.472 331.508 344.47C331.5 344.468 331.491 344.465 331.484 344.463C331.475 344.461 331.467 344.459 331.459 344.457C331.451 344.454 331.443 344.452 331.435 344.45C331.426 344.447 331.418 344.445 331.41 344.442C331.402 344.44 331.394 344.438 331.386 344.435C331.378 344.433 331.37 344.431 331.361 344.428C331.353 344.426 331.345 344.423 331.337 344.42C331.329 344.418 331.321 344.415 331.313 344.413C331.305 344.41 331.297 344.407 331.288 344.405C331.281 344.402 331.273 344.399 331.264 344.397C331.256 344.394 331.249 344.391 331.24 344.389C331.232 344.386 331.225 344.383 331.216 344.38C331.208 344.377 331.2 344.375 331.192 344.372C331.184 344.369 331.176 344.366 331.168 344.363C331.16 344.36 331.152 344.357 331.144 344.354C331.136 344.351 331.128 344.348 331.12 344.345C331.112 344.342 331.104 344.339 331.096 344.336C331.088 344.333 331.081 344.33 331.073 344.326C331.065 344.323 331.057 344.32 331.049 344.317C331.041 344.314 331.033 344.31 331.025 344.307C331.017 344.304 331.009 344.301 331.001 344.297C330.993 344.294 330.985 344.291 330.978 344.288C330.97 344.284 330.962 344.281 330.954 344.277C330.946 344.274 330.938 344.27 330.93 344.267C330.923 344.264 330.915 344.26 330.907 344.257C330.899 344.253 330.891 344.249 330.883 344.246C330.876 344.242 330.868 344.239 330.86 344.235C330.852 344.231 330.845 344.228 330.837 344.224C330.829 344.221 330.821 344.217 330.814 344.213C330.806 344.209 330.798 344.206 330.79 344.202C330.782 344.198 330.774 344.194 330.767 344.19C330.759 344.187 330.751 344.183 330.744 344.179C330.736 344.175 330.728 344.171 330.721 344.167C330.713 344.163 330.705 344.159 330.698 344.156C330.69 344.151 330.682 344.147 330.674 344.143C330.667 344.14 330.659 344.136 330.652 344.131C330.644 344.127 330.636 344.123 330.629 344.119C330.621 344.115 330.614 344.111 330.606 344.107C330.598 344.102 330.591 344.098 330.583 344.094C330.575 344.089 330.568 344.085 330.56 344.081C330.553 344.077 330.546 344.073 330.538 344.068C330.53 344.064 330.523 344.059 330.515 344.055C330.508 344.051 330.5 344.046 330.493 344.042C330.485 344.037 330.478 344.033 330.47 344.028C330.463 344.024 330.455 344.019 330.448 344.015C330.441 344.01 330.433 344.006 330.426 344.002C330.418 343.997 330.411 343.992 330.403 343.987C330.396 343.983 330.388 343.978 330.381 343.973C330.374 343.969 330.366 343.964 330.359 343.96C330.351 343.954 330.344 343.95 330.337 343.945C330.33 343.94 330.322 343.935 330.315 343.931C330.308 343.926 330.3 343.921 330.293 343.916C330.286 343.911 330.278 343.906 330.271 343.901C330.264 343.896 330.257 343.891 330.249 343.886C330.242 343.881 330.235 343.877 330.228 343.871C330.22 343.866 330.213 343.861 330.206 343.856C330.199 343.851 330.191 343.846 330.184 343.841C330.177 343.836 330.17 343.831 330.163 343.825C330.156 343.82 330.149 343.815 330.141 343.81C330.134 343.804 330.127 343.8 330.12 343.794C330.113 343.789 330.106 343.784 330.099 343.778C330.091 343.773 330.085 343.768 330.078 343.762C330.07 343.757 330.063 343.752 330.056 343.746C330.049 343.741 330.042 343.735 330.035 343.73C330.028 343.724 330.021 343.719 330.014 343.713C330.007 343.708 330 343.702 329.993 343.697C329.986 343.691 329.979 343.686 329.972 343.68C329.966 343.674 329.958 343.669 329.952 343.663C329.945 343.658 329.938 343.652 329.931 343.646C329.924 343.641 329.917 343.635 329.911 343.629C329.904 343.623 329.897 343.617 329.89 343.612C329.883 343.606 329.876 343.6 329.869 343.594C329.863 343.589 329.856 343.583 329.849 343.577C329.842 343.571 329.836 343.565 329.829 343.559C329.822 343.553 329.815 343.547 329.809 343.542C329.802 343.535 329.795 343.529 329.788 343.523C329.782 343.517 329.775 343.511 329.769 343.505C329.762 343.499 329.756 343.493 329.749 343.487C329.742 343.481 329.736 343.475 329.729 343.469C329.722 343.462 329.715 343.456 329.709 343.45C329.702 343.444 329.696 343.438 329.689 343.432C329.683 343.425 329.676 343.419 329.67 343.413C329.663 343.407 329.657 343.4 329.65 343.394C329.644 343.388 329.637 343.381 329.631 343.375C329.624 343.368 329.618 343.362 329.612 343.356C329.605 343.35 329.599 343.343 329.592 343.337C329.586 343.33 329.58 343.324 329.573 343.317C329.567 343.311 329.56 343.304 329.554 343.297C329.548 343.291 329.542 343.285 329.535 343.278C329.529 343.271 329.523 343.265 329.516 343.258C329.51 343.252 329.504 343.245 329.498 343.238C329.491 343.232 329.485 343.225 329.479 343.218C329.472 343.211 329.467 343.205 329.46 343.198C329.454 343.191 329.448 343.184 329.441 343.178C329.436 343.171 329.429 343.164 329.423 343.157C329.417 343.15 329.411 343.144 329.405 343.137C329.399 343.13 329.393 343.123 329.387 343.116C329.381 343.109 329.375 343.102 329.369 343.095C329.363 343.089 329.357 343.081 329.351 343.075C329.345 343.067 329.339 343.06 329.333 343.053C329.327 343.046 329.321 343.039 329.315 343.032C329.309 343.025 329.303 343.018 329.297 343.011C329.291 343.004 329.286 342.997 329.28 342.99C329.274 342.982 329.268 342.975 329.262 342.968C329.256 342.961 329.25 342.954 329.245 342.947C329.239 342.94 329.233 342.932 329.227 342.925C329.221 342.917 329.216 342.91 329.21 342.903C329.204 342.896 329.199 342.889 329.193 342.881C329.187 342.873 329.182 342.867 329.176 342.859C329.17 342.852 329.165 342.844 329.159 342.837C329.153 342.829 329.148 342.822 329.142 342.815C329.137 342.807 329.131 342.799 329.126 342.792C329.12 342.785 329.114 342.777 329.109 342.77C329.104 342.762 329.098 342.754 329.093 342.747C329.087 342.739 329.082 342.732 329.076 342.724C329.071 342.717 329.065 342.709 329.06 342.702C329.055 342.694 329.049 342.686 329.044 342.678C329.038 342.671 329.033 342.663 329.028 342.655C329.023 342.647 329.017 342.64 329.012 342.632C329.006 342.625 329.001 342.617 328.996 342.609C328.991 342.601 328.985 342.593 328.98 342.586C328.975 342.578 328.97 342.57 328.965 342.562C328.959 342.554 328.954 342.547 328.949 342.538C328.944 342.531 328.939 342.522 328.934 342.515C328.928 342.507 328.923 342.499 328.918 342.491C328.913 342.483 328.908 342.475 328.903 342.467C328.898 342.459 328.893 342.451 328.888 342.443C328.883 342.435 328.878 342.427 328.873 342.419C328.868 342.411 328.863 342.403 328.858 342.395C328.853 342.386 328.848 342.378 328.844 342.37C328.839 342.362 328.834 342.354 328.829 342.346C328.824 342.338 328.819 342.329 328.815 342.322C328.81 342.313 328.805 342.305 328.8 342.297C328.795 342.289 328.791 342.281 328.786 342.272C328.781 342.264 328.776 342.256 328.772 342.247C328.767 342.239 328.762 342.231 328.758 342.222C328.753 342.214 328.748 342.206 328.744 342.198C328.739 342.189 328.735 342.181 328.73 342.172C328.725 342.164 328.721 342.156 328.716 342.147C328.712 342.139 328.707 342.13 328.703 342.122C328.698 342.114 328.694 342.105 328.689 342.097C328.685 342.088 328.681 342.08 328.676 342.071C328.672 342.063 328.667 342.054 328.663 342.046C328.659 342.037 328.654 342.029 328.65 342.02C328.645 342.012 328.641 342.003 328.637 341.995C328.632 341.986 328.628 341.977 328.624 341.969C328.619 341.96 328.615 341.951 328.611 341.943C328.607 341.934 328.603 341.925 328.598 341.917C328.594 341.908 328.59 341.9 328.586 341.891C328.582 341.882 328.578 341.873 328.574 341.865C328.569 341.856 328.565 341.847 328.561 341.838C328.557 341.83 328.553 341.821 328.549 341.812C328.546 341.804 328.541 341.795 328.537 341.786C328.533 341.777 328.529 341.768 328.526 341.759C328.522 341.751 328.518 341.741 328.514 341.733C328.51 341.724 328.506 341.715 328.502 341.707C328.498 341.698 328.494 341.689 328.491 341.68C328.487 341.671 328.483 341.662 328.479 341.653C328.475 341.644 328.471 341.635 328.468 341.626C328.464 341.617 328.46 341.608 328.457 341.599C328.453 341.59 328.449 341.581 328.446 341.572C328.442 341.563 328.438 341.554 328.435 341.545C328.431 341.536 328.428 341.527 328.424 341.518C328.421 341.509 328.417 341.5 328.414 341.491C328.41 341.482 328.406 341.473 328.403 341.463C328.4 341.454 328.396 341.445 328.393 341.436C328.389 341.427 328.386 341.418 328.383 341.409C328.379 341.399 328.376 341.39 328.372 341.382C328.369 341.372 328.366 341.363 328.362 341.354C328.359 341.345 328.356 341.336 328.353 341.326C328.35 341.317 328.346 341.308 328.343 341.299C328.34 341.289 328.336 341.28 328.333 341.271C328.33 341.261 328.327 341.253 328.324 341.243C328.321 341.234 328.318 341.224 328.315 341.215C328.311 341.206 328.309 341.196 328.305 341.187C328.303 341.178 328.299 341.169 328.296 341.159C328.293 341.149 328.29 341.141 328.287 341.131C328.284 341.122 328.282 341.112 328.278 341.103C328.276 341.094 328.273 341.084 328.27 341.075C328.267 341.066 328.264 341.056 328.261 341.046C328.258 341.037 328.256 341.028 328.253 341.018C328.25 341.009 328.247 340.999 328.245 340.99C328.242 340.981 328.239 340.971 328.237 340.962C328.234 340.952 328.231 340.942 328.228 340.933C328.226 340.924 328.223 340.914 328.221 340.905C328.218 340.895 328.216 340.886 328.213 340.876C328.21 340.866 328.208 340.857 328.205 340.847C328.203 340.838 328.2 340.828 328.198 340.819C328.196 340.814 328.195 340.808 328.193 340.802C328.191 340.793 328.189 340.783 328.186 340.774C328.184 340.764 328.181 340.755 328.179 340.745C328.177 340.735 328.174 340.726 328.172 340.716C328.17 340.706 328.168 340.697 328.165 340.687C328.163 340.678 328.161 340.668 328.159 340.658C328.156 340.648 328.154 340.639 328.152 340.629C328.15 340.619 328.148 340.61 328.146 340.6C328.144 340.591 328.142 340.581 328.139 340.571C328.137 340.561 328.135 340.552 328.133 340.542C328.131 340.532 328.129 340.523 328.127 340.513C328.125 340.503 328.123 340.494 328.121 340.484C328.119 340.474 328.117 340.464 328.115 340.454C328.113 340.445 328.112 340.435 328.11 340.425C328.108 340.415 328.106 340.406 328.104 340.396C328.103 340.386 328.101 340.377 328.099 340.367C328.097 340.357 328.096 340.347 328.093 340.338C328.092 340.327 328.09 340.318 328.088 340.308C328.087 340.298 328.085 340.289 328.084 340.278C328.082 340.268 328.08 340.259 328.079 340.249C328.077 340.239 328.076 340.229 328.074 340.219C328.072 340.21 328.071 340.2 328.069 340.19C328.068 340.18 328.067 340.171 328.065 340.16C328.064 340.151 328.062 340.141 328.061 340.131C328.06 340.121 328.058 340.111 328.057 340.101C328.055 340.091 328.054 340.082 328.053 340.072C328.052 340.062 328.05 340.052 328.049 340.042C328.048 340.032 328.046 340.022 328.045 340.013C328.044 340.003 328.043 339.993 328.042 339.983C328.04 339.973 328.039 339.963 328.038 339.953C328.037 339.943 328.036 339.933 328.035 339.923C328.034 339.913 328.033 339.903 328.032 339.893C328.031 339.884 328.03 339.873 328.029 339.864C328.028 339.853 328.027 339.843 328.026 339.834C328.025 339.824 328.024 339.814 328.024 339.804C328.023 339.794 328.022 339.784 328.021 339.774C328.02 339.764 328.019 339.754 328.018 339.744C328.017 339.734 328.017 339.724 328.016 339.714C328.015 339.704 328.015 339.694 328.014 339.684C328.013 339.675 328.012 339.665 328.012 339.654C328.011 339.644 328.01 339.635 328.01 339.624C328.009 339.615 328.009 339.605 328.008 339.595C328.008 339.585 328.007 339.575 328.007 339.565C328.006 339.554 328.006 339.545 328.005 339.535C328.005 339.525 328.004 339.514 328.004 339.505C328.003 339.495 328.003 339.485 328.003 339.475C328.002 339.465 328.002 339.455 328.001 339.445C328.001 339.435 328.001 339.425 328.001 339.415C328 339.405 328 339.395 328 339.385C328 339.375 328 339.365 327.999 339.355C327.999 339.345 327.999 339.335 327.999 339.325C327.999 339.314 327.999 339.305 327.998 339.295C327.998 339.284 327.998 339.275 327.998 339.265C327.998 339.255 327.998 339.245 327.998 339.234C327.998 339.225 327.998 339.215 327.998 339.205C327.998 339.194 327.998 339.185 327.999 339.174C327.999 339.164 327.998 339.155 327.999 339.145C327.999 339.135 327.999 339.125 327.999 339.115C327.999 339.105 328 339.095 328 339.085C328 339.074 328 339.065 328.001 339.055C328.001 339.045 328.001 339.035 328.002 339.024C328.002 339.015 328.002 339.005 328.003 338.995C328.003 338.985 328.003 338.975 328.004 338.964C328.004 338.954 328.005 338.944 328.005 338.935C328.006 338.925 328.006 338.915 328.007 338.904C328.007 338.895 328.008 338.885 328.008 338.875C328.009 338.865 328.01 338.854 328.01 338.845C328.011 338.835 328.012 338.825 328.012 338.815C328.013 338.805 328.014 338.795 328.014 338.785C328.015 338.775 328.015 338.765 328.016 338.755C328.017 338.745 328.018 338.735 328.018 338.725C328.019 338.715 328.02 338.705 328.021 338.695C328.022 338.685 328.023 338.675 328.023 338.665C328.025 338.655 328.025 338.646 328.026 338.635C328.027 338.626 328.028 338.616 328.029 338.606C328.03 338.596 328.031 338.586 328.032 338.576C328.033 338.566 328.034 338.556 328.036 338.546C328.036 338.536 328.038 338.526 328.039 338.516C328.04 338.506 328.041 338.497 328.042 338.487C328.043 338.477 328.044 338.467 328.046 338.457C328.047 338.447 328.048 338.437 328.05 338.427C328.051 338.417 328.052 338.408 328.053 338.398C328.054 338.388 328.056 338.378 328.057 338.368C328.059 338.358 328.06 338.348 328.062 338.338C328.063 338.328 328.064 338.319 328.066 338.308C328.067 338.299 328.069 338.289 328.07 338.279C328.071 338.269 328.073 338.26 328.075 338.25C328.076 338.24 328.078 338.23 328.08 338.22C328.081 338.21 328.083 338.201 328.084 338.191C328.086 338.181 328.087 338.171 328.089 338.161C328.091 338.152 328.093 338.142 328.094 338.132C328.096 338.122 328.098 338.113 328.1 338.102C328.101 338.093 328.103 338.083 328.105 338.073C328.107 338.064 328.109 338.054 328.11 338.044C328.112 338.035 328.114 338.024 328.116 338.015C328.118 338.005 328.12 337.995 328.122 337.985C328.124 337.976 328.126 337.966 328.128 337.956C328.13 337.946 328.132 337.937 328.134 337.927C328.136 337.918 328.138 337.908 328.14 337.898C328.142 337.888 328.144 337.879 328.146 337.869C328.148 337.859 328.151 337.85 328.153 337.84C328.155 337.831 328.157 337.82 328.159 337.811C328.161 337.802 328.164 337.792 328.166 337.782C328.169 337.773 328.171 337.763 328.173 337.753C328.175 337.744 328.178 337.734 328.18 337.725C328.182 337.715 328.185 337.705 328.187 337.696C328.19 337.686 328.192 337.676 328.195 337.667C328.197 337.657 328.2 337.648 328.202 337.638C328.204 337.629 328.207 337.62 328.209 337.61C328.212 337.6 328.214 337.591 328.217 337.581C328.219 337.571 328.222 337.562 328.225 337.553C328.228 337.543 328.23 337.534 328.233 337.524C328.236 337.514 328.238 337.505 328.241 337.496C328.244 337.486 328.247 337.477 328.249 337.467C328.252 337.458 328.255 337.449 328.257 337.439C328.26 337.43 328.263 337.42 328.266 337.411C328.269 337.401 328.272 337.392 328.275 337.382C328.277 337.373 328.28 337.364 328.283 337.354C328.286 337.345 328.289 337.335 328.292 337.326C328.295 337.317 328.298 337.307 328.301 337.298C328.304 337.289 328.307 337.28 328.31 337.27C328.313 337.261 328.317 337.252 328.32 337.243C328.323 337.233 328.326 337.224 328.329 337.215C328.332 337.205 328.335 337.196 328.339 337.187C328.342 337.178 328.345 337.168 328.348 337.159C328.352 337.15 328.355 337.141 328.358 337.132C328.361 337.122 328.365 337.113 328.368 337.104C328.371 337.095 328.375 337.086 328.378 337.077C328.381 337.067 328.385 337.058 328.388 337.049C328.392 337.04 328.395 337.031 328.398 337.022C328.402 337.013 328.405 337.003 328.409 336.994C328.412 336.985 328.416 336.976 328.42 336.967C328.423 336.958 328.427 336.949 328.43 336.94C328.433 336.931 328.437 336.922 328.441 336.913C328.444 336.904 328.448 336.895 328.452 336.886C328.455 336.877 328.459 336.868 328.463 336.859C328.467 336.85 328.471 336.841 328.474 336.832C328.478 336.823 328.481 336.814 328.485 336.805C328.489 336.796 328.493 336.788 328.497 336.779C328.501 336.77 328.505 336.76 328.508 336.752C328.512 336.743 328.516 336.734 328.52 336.725C328.524 336.716 328.528 336.707 328.532 336.699C328.536 336.69 328.54 336.681 328.544 336.672C328.548 336.664 328.552 336.655 328.556 336.646C328.56 336.637 328.564 336.628 328.568 336.62C328.572 336.611 328.577 336.603 328.58 336.594C328.584 336.585 328.588 336.576 328.593 336.567C328.597 336.559 328.601 336.55 328.605 336.541C328.61 336.533 328.614 336.525 328.618 336.516C328.622 336.507 328.627 336.499 328.631 336.49C328.635 336.481 328.639 336.473 328.644 336.464C328.648 336.456 328.652 336.447 328.657 336.438C328.661 336.43 328.666 336.421 328.67 336.413C328.674 336.404 328.679 336.396 328.683 336.388C328.688 336.379 328.692 336.371 328.696 336.362C328.701 336.354 328.705 336.345 328.71 336.337C328.715 336.328 328.719 336.32 328.724 336.312C328.728 336.303 328.733 336.295 328.738 336.287C328.742 336.278 328.747 336.27 328.751 336.261C328.756 336.253 328.761 336.245 328.765 336.236C328.77 336.228 328.775 336.22 328.779 336.212C328.784 336.203 328.789 336.195 328.793 336.187C328.798 336.178 328.803 336.171 328.808 336.162C328.813 336.154 328.818 336.146 328.822 336.138C328.827 336.13 328.832 336.121 328.837 336.113C328.842 336.105 328.847 336.097 328.852 336.089C328.856 336.081 328.861 336.073 328.866 336.065C328.871 336.056 328.876 336.048 328.881 336.04C328.886 336.032 328.891 336.024 328.896 336.016C328.901 336.008 328.906 336.001 328.911 335.992C328.916 335.985 328.922 335.977 328.927 335.969C328.932 335.961 328.937 335.953 328.942 335.945C328.947 335.937 328.952 335.929 328.957 335.922C328.963 335.913 328.968 335.905 328.973 335.898C328.978 335.89 328.983 335.882 328.989 335.874C328.994 335.867 328.999 335.859 329.004 335.851C329.01 335.843 329.015 335.836 329.02 335.828C329.026 335.82 329.031 335.812 329.036 335.805C329.042 335.797 329.047 335.789 329.052 335.781C329.058 335.774 329.064 335.766 329.069 335.759C329.074 335.751 329.08 335.744 329.085 335.736C329.091 335.728 329.096 335.721 329.102 335.713C329.107 335.706 329.112 335.699 329.118 335.691C329.124 335.683 329.129 335.675 329.135 335.668C329.14 335.661 329.146 335.653 329.152 335.646C329.157 335.639 329.163 335.631 329.168 335.624C329.174 335.616 329.18 335.609 329.185 335.602C329.191 335.594 329.196 335.587 329.203 335.579C329.208 335.572 329.214 335.565 329.22 335.557C329.225 335.55 329.231 335.543 329.237 335.536C329.243 335.529 329.249 335.521 329.254 335.514C329.26 335.507 329.266 335.5 329.272 335.493C329.277 335.485 329.283 335.478 329.289 335.471C329.295 335.464 329.301 335.457 329.307 335.45C329.313 335.443 329.319 335.435 329.325 335.428C329.331 335.422 329.336 335.415 329.342 335.407C329.348 335.4 329.355 335.394 329.36 335.387C329.366 335.379 329.372 335.373 329.379 335.366C329.385 335.359 329.391 335.352 329.397 335.345C329.403 335.338 329.409 335.332 329.415 335.325C329.421 335.318 329.427 335.311 329.433 335.304C329.44 335.297 329.446 335.29 329.452 335.283C329.458 335.277 329.464 335.27 329.47 335.264C329.477 335.257 329.483 335.25 329.489 335.243C329.495 335.237 329.501 335.23 329.508 335.223C329.514 335.217 329.52 335.21 329.526 335.204C329.533 335.197 329.539 335.19 329.546 335.184C329.552 335.177 329.558 335.171 329.565 335.164C329.571 335.158 329.577 335.151 329.584 335.145C329.59 335.138 329.596 335.132 329.603 335.126C329.609 335.119 329.616 335.112 329.622 335.106C329.629 335.1 329.635 335.093 329.642 335.087C329.648 335.081 329.654 335.075 329.661 335.068C329.667 335.062 329.674 335.056 329.68 335.05C329.687 335.043 329.694 335.037 329.7 335.031C329.707 335.024 329.713 335.018 329.72 335.012C329.726 335.006 329.733 335 329.74 334.993C329.746 334.987 329.753 334.982 329.76 334.976C329.766 334.969 329.773 334.963 329.779 334.958C329.786 334.952 329.793 334.945 329.8 334.939C329.806 334.933 329.813 334.927 329.82 334.921C329.827 334.916 329.833 334.91 329.84 334.904C329.847 334.898 329.854 334.892 329.86 334.886C329.867 334.88 329.874 334.874 329.881 334.868C329.888 334.863 329.895 334.857 329.901 334.851C329.908 334.845 329.915 334.839 329.922 334.834C329.929 334.828 329.935 334.822 329.942 334.817C329.949 334.811 329.956 334.805 329.963 334.8C329.97 334.794 329.977 334.789 329.984 334.783C329.991 334.778 329.998 334.772 330.005 334.767C330.012 334.761 330.019 334.755 330.026 334.75C330.033 334.745 330.04 334.739 330.047 334.734C330.054 334.728 330.061 334.723 330.068 334.717C330.075 334.712 330.082 334.706 330.089 334.701C330.096 334.696 330.103 334.691 330.11 334.685C330.117 334.68 330.124 334.674 330.132 334.669C330.139 334.664 330.146 334.659 330.153 334.654C330.16 334.648 330.167 334.643 330.175 334.638C330.182 334.633 330.189 334.628 330.196 334.623C330.203 334.617 330.21 334.612 330.218 334.607C330.225 334.602 330.232 334.597 330.239 334.592C330.247 334.587 330.254 334.582 330.261 334.577C330.268 334.572 330.275 334.567 330.283 334.563C330.29 334.558 330.297 334.553 330.305 334.548C330.312 334.543 330.319 334.538 330.327 334.533C330.334 334.528 330.341 334.524 330.349 334.519C330.356 334.514 330.363 334.509 330.371 334.505C330.378 334.5 330.386 334.495 330.393 334.491C330.4 334.486 330.408 334.481 330.415 334.477C330.423 334.472 330.43 334.468 330.438 334.463C330.445 334.458 330.453 334.454 330.46 334.449C330.468 334.445 330.475 334.44 330.483 334.436C330.49 334.431 330.498 334.427 330.505 334.423C330.513 334.418 330.52 334.414 330.528 334.41C330.535 334.406 330.543 334.401 330.55 334.397C330.558 334.392 330.565 334.388 330.573 334.384C330.58 334.379 330.588 334.375 330.596 334.371C330.603 334.367 330.611 334.363 330.618 334.358C330.626 334.354 330.634 334.35 330.641 334.346C330.649 334.342 330.657 334.338 330.664 334.334C330.672 334.329 330.68 334.326 330.687 334.322C330.694 334.318 330.703 334.314 330.71 334.31C330.718 334.306 330.726 334.302 330.733 334.298C330.741 334.294 330.749 334.29 330.756 334.286C330.764 334.282 330.772 334.278 330.78 334.275C330.787 334.271 330.795 334.267 330.803 334.264C330.81 334.259 330.818 334.256 330.826 334.252C330.834 334.248 330.842 334.245 330.849 334.241C330.857 334.237 330.865 334.234 330.873 334.23C330.88 334.226 330.889 334.223 330.896 334.22C330.904 334.215 330.912 334.212 330.92 334.209C330.928 334.206 330.935 334.202 330.943 334.199C330.951 334.196 330.959 334.192 330.967 334.189C330.975 334.186 330.983 334.182 330.991 334.179C330.999 334.176 331.006 334.172 331.014 334.169C331.022 334.166 331.03 334.161 331.038 334.159C331.046 334.155 331.054 334.152 331.062 334.149C331.07 334.146 331.077 334.142 331.085 334.139C331.093 334.135 331.101 334.132 331.109 334.13C331.117 334.126 331.125 334.124 331.133 334.121C331.141 334.118 331.149 334.115 331.157 334.112C331.162 334.111 331.167 334.109 331.171 334.107C331.179 334.104 331.187 334.101 331.195 334.099C331.203 334.095 331.211 334.092 331.219 334.09C331.227 334.086 331.235 334.083 331.243 334.081C331.251 334.078 331.259 334.075 331.267 334.072C331.275 334.069 331.283 334.068 331.291 334.065C331.299 334.062 331.308 334.06 331.316 334.057C331.323 334.054 331.332 334.052 331.34 334.05C331.348 334.047 331.356 334.045 331.364 334.042C331.372 334.039 331.381 334.038 331.389 334.035C331.396 334.032 331.405 334.03 331.413 334.027C331.421 334.024 331.429 334.023 331.437 334.02C331.445 334.017 331.454 334.016 331.462 334.013C331.47 334.012 331.478 334.009 331.486 334.007C331.494 334.005 331.502 334.003 331.511 334.001C331.519 333.999 331.527 333.996 331.535 333.994C331.544 333.992 331.551 333.99 331.56 333.988C331.568 333.986 331.576 333.983 331.584 333.981C331.593 333.98 331.601 333.978 331.609 333.976C331.617 333.974 331.625 333.972 331.634 333.97C331.642 333.968 331.65 333.966 331.658 333.964C331.667 333.963 331.675 333.961 331.683 333.959C331.691 333.957 331.699 333.955 331.708 333.954C331.716 333.952 331.724 333.95 331.732 333.949C331.74 333.947 331.749 333.945 331.757 333.944C331.765 333.942 331.773 333.941 331.782 333.939C331.79 333.937 331.798 333.936 331.807 333.934C331.815 333.932 331.823 333.931 331.832 333.93C331.839 333.928 331.848 333.927 331.856 333.926C331.865 333.924 331.873 333.923 331.881 333.922C331.89 333.92 331.898 333.919 331.906 333.917C331.914 333.916 331.923 333.915 331.931 333.914C331.939 333.913 331.947 333.911 331.956 333.91C331.964 333.909 331.972 333.907 331.981 333.906C331.989 333.905 331.997 333.904 332.006 333.903C332.014 333.902 332.022 333.901 332.031 333.9C332.039 333.899 332.047 333.898 332.056 333.897C332.064 333.896 332.072 333.895 332.081 333.895C332.089 333.894 332.097 333.893 332.106 333.892C332.114 333.891 332.122 333.89 332.131 333.89C332.139 333.889 332.147 333.888 332.156 333.888C332.164 333.886 332.172 333.886 332.181 333.885C332.189 333.884 332.197 333.884 332.206 333.883C332.214 333.883 332.222 333.882 332.231 333.881C332.239 333.881 332.247 333.88 332.256 333.88C332.264 333.88 332.272 333.879 332.281 333.878C332.289 333.878 332.298 333.877 332.306 333.877C332.314 333.877 332.323 333.877 332.331 333.876C332.339 333.876 332.348 333.876 332.356 333.875C332.364 333.875 332.373 333.875 332.381 333.874C332.39 333.874 332.398 333.874 332.406 333.874C332.415 333.874 332.423 333.874 332.432 333.873C332.44 333.873 332.448 333.873 332.456 333.873C332.465 333.873 332.473 333.873 332.482 333.873C332.49 333.873 332.498 333.873 332.506 333.873C332.515 333.873 332.523 333.873 332.532 333.873C332.54 333.873 332.548 333.874 332.557 333.874C332.565 333.874 332.574 333.874 332.582 333.874C332.59 333.875 332.599 333.875 332.607 333.875C332.615 333.876 332.624 333.876 332.632 333.876C332.641 333.877 332.649 333.877 332.657 333.878C332.665 333.878 332.674 333.878 332.682 333.879C332.691 333.879 332.699 333.88 332.707 333.88C332.716 333.88 332.724 333.881 332.733 333.882C332.741 333.882 332.749 333.883 332.757 333.884C332.766 333.884 332.774 333.884 332.782 333.885C332.791 333.886 332.799 333.887 332.807 333.887C332.816 333.888 332.824 333.889 332.832 333.89C332.841 333.89 332.849 333.891 332.857 333.892C332.866 333.893 332.874 333.894 332.882 333.895C332.891 333.896 332.899 333.897 332.908 333.898C332.916 333.899 332.924 333.899 332.932 333.9C332.94 333.901 332.949 333.903 332.958 333.904C332.966 333.905 332.974 333.905 332.982 333.907C332.99 333.908 332.999 333.909 333.007 333.911C333.015 333.912 333.024 333.912 333.032 333.914C333.04 333.915 333.049 333.917 333.057 333.918C333.065 333.919 333.074 333.921 333.082 333.922C333.09 333.923 333.099 333.924 333.107 333.926C333.115 333.927 333.123 333.929 333.132 333.93C333.14 333.932 333.148 333.933 333.156 333.934C333.164 333.936 333.173 333.937 333.181 333.939C333.189 333.941 333.198 333.942 333.206 333.944C333.214 333.945 333.222 333.947 333.231 333.949C333.239 333.951 333.247 333.952 333.256 333.954C333.263 333.956 333.272 333.958 333.28 333.959C333.288 333.961 333.297 333.963 333.305 333.965C333.313 333.966 333.321 333.968 333.329 333.97C333.338 333.972 333.346 333.974 333.354 333.976C333.362 333.978 333.37 333.98 333.379 333.982C333.387 333.984 333.395 333.986 333.403 333.988C333.411 333.99 333.42 333.992 333.428 333.994C333.436 333.996 333.444 333.999 333.452 334.001C333.461 334.003 333.469 334.005 333.477 334.007C333.485 334.009 333.493 334.012 333.501 334.014C333.51 334.016 333.518 334.019 333.526 334.021C333.534 334.023 333.542 334.026 333.55 334.028C333.558 334.03 333.566 334.033 333.574 334.035C333.582 334.038 333.591 334.04 333.599 334.043C333.607 334.045 333.615 334.048 333.623 334.05C333.631 334.053 333.639 334.056 333.647 334.058C333.655 334.06 333.663 334.063 333.672 334.066C333.679 334.069 333.687 334.071 333.696 334.074C333.704 334.076 333.712 334.08 333.72 334.082C333.728 334.085 333.736 334.088 333.744 334.091C333.752 334.094 333.76 334.096 333.768 334.099C333.776 334.102 333.784 334.105 333.792 334.108C333.8 334.111 333.808 334.114 333.816 334.117C333.824 334.12 333.832 334.123 333.84 334.125C333.848 334.129 333.856 334.132 333.864 334.135C333.872 334.138 333.88 334.141 333.888 334.145C333.896 334.147 333.904 334.151 333.911 334.154C333.919 334.157 333.927 334.16 333.935 334.163C333.943 334.167 333.951 334.17 333.959 334.173C333.967 334.176 333.975 334.18 333.982 334.183C333.991 334.187 333.998 334.19 334.006 334.193C334.014 334.197 334.022 334.2 334.03 334.203C334.038 334.207 334.046 334.211 334.053 334.214C334.061 334.218 334.069 334.221 334.076 334.225C334.085 334.229 334.092 334.232 334.1 334.236C334.108 334.239 334.116 334.242 334.123 334.246C334.131 334.25 334.139 334.254 334.147 334.257C334.155 334.261 334.162 334.265 334.17 334.269C334.178 334.273 334.186 334.276 334.193 334.28C334.201 334.284 334.209 334.288 334.217 334.292C334.224 334.295 334.232 334.299 334.239 334.303C334.247 334.307 334.255 334.311 334.262 334.315C334.27 334.319 334.278 334.323 334.286 334.327C334.293 334.331 334.301 334.336 334.309 334.339C334.316 334.344 334.324 334.348 334.332 334.352C334.339 334.356 334.347 334.36 334.354 334.364C334.362 334.368 334.369 334.373 334.377 334.377C334.385 334.381 334.392 334.385 334.4 334.39C334.407 334.394 334.415 334.398 334.422 334.403C334.43 334.407 334.437 334.411 334.445 334.416C334.453 334.42 334.46 334.424 334.467 334.429C334.475 334.433 334.482 334.438 334.49 334.442C334.497 334.447 334.505 334.451 334.512 334.456C334.52 334.46 334.527 334.465 334.535 334.469C334.542 334.474 334.549 334.479 334.557 334.483C334.564 334.488 334.572 334.493 334.579 334.497C334.586 334.502 334.594 334.506 334.601 334.511C334.608 334.516 334.616 334.521 334.623 334.525C334.631 334.531 334.638 334.535 334.645 334.54C334.653 334.545 334.66 334.55 334.667 334.554C334.675 334.56 334.682 334.564 334.689 334.57C334.696 334.574 334.704 334.579 334.711 334.584C334.718 334.589 334.725 334.594 334.733 334.599C334.74 334.604 334.747 334.609 334.754 334.614C334.761 334.619 334.768 334.624 334.776 334.629C334.783 334.635 334.79 334.64 334.797 334.645C334.804 334.65 334.812 334.656 334.819 334.661C334.826 334.666 334.833 334.671 334.84 334.676C334.847 334.682 334.854 334.687 334.862 334.692C334.869 334.698 334.875 334.703 334.883 334.708C334.89 334.714 334.897 334.719 334.904 334.724C334.911 334.73 334.918 334.735 334.925 334.741C334.932 334.746 334.939 334.752 334.946 334.757C334.953 334.763 334.96 334.768 334.967 334.774C334.974 334.779 334.981 334.785 334.988 334.79C334.994 334.796 335.001 334.802 335.009 334.807C335.015 334.813 335.022 334.819 335.029 334.824C335.036 334.83 335.043 334.836 335.049 334.842C335.057 334.847 335.064 334.853 335.07 334.859C335.077 334.865 335.084 334.871 335.091 334.876C335.097 334.882 335.104 334.888 335.111 334.894C335.118 334.9 335.125 334.906 335.131 334.912C335.138 334.917 335.145 334.923 335.151 334.929C335.158 334.935 335.165 334.941 335.172 334.947C335.178 334.953 335.185 334.959 335.192 334.965C335.198 334.971 335.205 334.977 335.212 334.983C335.218 334.99 335.225 334.996 335.232 335.002C335.238 335.008 335.245 335.014 335.251 335.02C335.258 335.026 335.264 335.033 335.271 335.039C335.277 335.045 335.284 335.051 335.291 335.058C335.297 335.064 335.303 335.07 335.31 335.077C335.316 335.083 335.323 335.089 335.329 335.096C335.336 335.102 335.342 335.108 335.349 335.115C335.355 335.121 335.361 335.128 335.368 335.134C335.374 335.14 335.381 335.147 335.387 335.153C335.393 335.16 335.4 335.167 335.406 335.173C335.412 335.18 335.419 335.186 335.425 335.192C335.431 335.199 335.438 335.206 335.444 335.212C335.45 335.219 335.456 335.226 335.463 335.232C335.469 335.239 335.475 335.246 335.481 335.253C335.488 335.259 335.494 335.266 335.5 335.273C335.506 335.279 335.512 335.286 335.519 335.293C335.525 335.3 335.531 335.306 335.537 335.313C335.543 335.32 335.549 335.327 335.555 335.334C335.561 335.34 335.567 335.348 335.573 335.354C335.58 335.361 335.585 335.368 335.591 335.375C335.598 335.382 335.603 335.389 335.609 335.396C335.616 335.403 335.621 335.41 335.627 335.417C335.633 335.424 335.639 335.431 335.645 335.438C335.651 335.445 335.657 335.452 335.663 335.46C335.669 335.467 335.675 335.474 335.681 335.481C335.687 335.488 335.692 335.495 335.698 335.502C335.704 335.51 335.71 335.517 335.716 335.524C335.721 335.531 335.727 335.539 335.733 335.546C335.739 335.553 335.744 335.56 335.75 335.567C335.756 335.575 335.761 335.582 335.767 335.589C335.773 335.597 335.779 335.604 335.784 335.611C335.79 335.619 335.795 335.626 335.801 335.634C335.807 335.641 335.812 335.649 335.818 335.656C335.823 335.664 335.829 335.671 335.834 335.678C335.84 335.686 335.846 335.693 335.851 335.701C335.857 335.709 335.862 335.716 335.867 335.724C335.873 335.731 335.878 335.739 335.884 335.746C335.889 335.754 335.895 335.762 335.9 335.769C335.905 335.777 335.911 335.784 335.916 335.792C335.922 335.8 335.927 335.808 335.932 335.815C335.938 335.823 335.943 335.831 335.949 335.839C335.954 335.846 335.959 335.854 335.964 335.862C335.97 335.869 335.975 335.877 335.98 335.885C335.985 335.893 335.99 335.901 335.995 335.909C336.001 335.917 336.006 335.924 336.011 335.932C336.016 335.94 336.022 335.948 336.026 335.956C336.031 335.964 336.037 335.972 336.042 335.98C336.047 335.988 336.052 335.995 336.057 336.004C336.062 336.012 336.067 336.02 336.072 336.027C336.077 336.035 336.082 336.044 336.087 336.052C336.092 336.06 336.097 336.068 336.102 336.076C336.106 336.084 336.112 336.092 336.117 336.1C336.121 336.108 336.126 336.116 336.131 336.125C336.136 336.133 336.141 336.141 336.145 336.149C336.15 336.158 336.155 336.166 336.16 336.174C336.165 336.182 336.17 336.19 336.174 336.198C336.179 336.206 336.184 336.215 336.188 336.223C336.193 336.232 336.198 336.24 336.203 336.248C336.207 336.256 336.212 336.265 336.216 336.273C336.221 336.281 336.226 336.29 336.23 336.298C336.235 336.306 336.239 336.315 336.244 336.323C336.248 336.332 336.253 336.34 336.258 336.349C336.262 336.357 336.266 336.365 336.271 336.374C336.275 336.382 336.28 336.391 336.284 336.399C336.288 336.408 336.293 336.416 336.297 336.425C336.302 336.433 336.306 336.442 336.31 336.45C336.315 336.459 336.319 336.467 336.324 336.476C336.328 336.484 336.332 336.493 336.336 336.502C336.341 336.51 336.345 336.519 336.349 336.528C336.353 336.537 336.357 336.545 336.362 336.554C336.366 336.563 336.37 336.571 336.374 336.58C336.378 336.588 336.382 336.597 336.387 336.606C336.39 336.615 336.395 336.623 336.399 336.632C336.403 336.641 336.407 336.65 336.411 336.659C336.415 336.667 336.419 336.676 336.423 336.685C336.427 336.693 336.431 336.702 336.435 336.711C336.438 336.72 336.443 336.729 336.446 336.738C336.45 336.747 336.454 336.756 336.458 336.764C336.462 336.773 336.466 336.782 336.47 336.791C336.473 336.8 336.477 336.809 336.481 336.818C336.485 336.827 336.488 336.836 336.492 336.845C336.496 336.854 336.5 336.862 336.503 336.871C336.507 336.881 336.511 336.889 336.514 336.899C336.518 336.908 336.522 336.916 336.525 336.925C336.529 336.934 336.532 336.943 336.536 336.953C336.54 336.962 336.543 336.971 336.547 336.98C336.55 336.989 336.553 336.998 336.557 337.007C336.561 337.016 336.564 337.025 336.567 337.035C336.571 337.044 336.574 337.052 336.577 337.062C336.581 337.071 336.584 337.08 336.588 337.089C336.591 337.098 336.594 337.108 336.598 337.117C336.601 337.126 336.604 337.135 336.607 337.144C336.611 337.153 336.614 337.163 336.617 337.172C336.621 337.182 336.624 337.191 336.627 337.2C336.63 337.209 336.633 337.218 336.636 337.228C336.64 337.237 336.642 337.246 336.646 337.256C336.649 337.265 336.652 337.274 336.655 337.283C336.658 337.293 336.661 337.302 336.664 337.311C336.667 337.321 336.67 337.33 336.673 337.339C336.676 337.349 336.679 337.359 336.682 337.368C336.684 337.377 336.687 337.387 336.69 337.396C336.693 337.405 336.696 337.414 336.699 337.424C336.702 337.433 336.704 337.443 336.707 337.452C336.71 337.462 336.713 337.471 336.715 337.481C336.718 337.49 336.721 337.499 336.724 337.509C336.726 337.518 336.729 337.528 336.732 337.538C336.734 337.547 336.737 337.557 336.74 337.566C336.742 337.575 336.745 337.585 336.747 337.594C336.75 337.604 336.753 337.613 336.755 337.623C336.758 337.633 336.76 337.642 336.762 337.652ZM305.179 356.8L301.649 342.971C300.341 343.429 299.545 344.498 299.065 345.736L301.736 356.2C302.712 356.906 303.874 357.269 305.179 356.8ZM298.684 345.875C298.684 345.875 292.262 342.438 286.671 347.423C286.671 347.423 290.736 346.589 292.624 347.6C295.938 349.374 286.671 347.423 281.224 357.999C290.68 363.129 297.455 355.316 295.535 359.003C294.441 361.103 290.68 363.129 290.68 363.129C297.645 363.526 301.366 356.382 301.366 356.382L298.684 345.875Z" fill="black"/>
</svg>
